COFF
600 200 0
-0.1436165434730018 0.28666496449570933 -0.7756142947446925
-0.23947745158113387 0.33638758531593604 -0.7756142947446925
-0.22400934898678876 0.22297812780726264 -0.7756142947446925
0.0550944366189718 0.5031936821384764 -0.6537108292973877
-0.037636480645282536 0.5524840058885627 -0.6537108292973877
-0.022680921915547412 0.4431279470240397 -0.6537108292973877
0.2851139525589451 0.27336422423163015 -0.5962032810032397
0.2080965027533207 0.30387597340592404 -0.5962032810032397
0.2213382220458998 0.22438461164729948 -0.5962032810032397
-0.3963345324247921 0.5551321562799859 -0.0448741372429163
-0.4848884023064459 0.5833301149364916 -0.0448741372429163
-0.4759579060967395 0.490223761792137 -0.0448741372429163
-0.0704129119353374 -0.28981447905679986 0.5720555213943387
-0.1470784242036974 -0.2574688427164781 0.5720555213943387
-0.1295404099140162 -0.3356607618828796 0.5720555213943387
0.44586311754332186 0.08810948164111429 -0.8975171900838983
0.3650154048293727 0.11537110196892167 -0.8975171900838983
0.385989147742738 0.03471943787141013 -0.8975171900838983
-0.595395482564358 0.27983410816450144 -0.356839806944978
-0.6908845111268119 0.33075849977515726 -0.356839806944978
-0.6893330172417006 0.22100491548226173 -0.356839806944978
0.7009777624672637 0.15923273285310544 0.7604779506029896
0.6081887397953183 0.20505177198523836 0.7604779506029896
0.6277241281201382 0.10299529193870328 0.7604779506029896
-0.4578962693360346 -0.37777358310478176 -0.3821541373544047
-0.5290718581617201 -0.338733240870023 -0.3821541373544047
-0.5147384937838667 -0.42287209421472816 -0.3821541373544047
-0.6716435899538923 0.1903651253540953 -0.31810624954115707
-0.7284219534347082 0.21291170813542262 -0.31810624954115707
-0.7229415249119421 0.15185964170113406 -0.31810624954115707
-0.3282492741522355 -0.6742891207860978 0.6191793224747346
-0.39461706167773564 -0.6498361074240924 0.6191793224747346
-0.385398347889401 -0.7168658254535113 0.6191793224747346
-0.36124871787754365 -0.6059780588335851 -0.4187269323153501
-0.46769568057112243 -0.5667270141469459 -0.4187269323153501
-0.44810985391954533 -0.6788169622699178 -0.4187269323153501
-0.1114111755553388 -0.08747285548229568 -0.9488374045173235
-0.1651859809225071 -0.07045793938878696 -0.9488374045173235
-0.1517359313938358 -0.12293342841804708 -0.9488374045173235
0.04057437427478273 -0.45388461540289654 0.4749966058563548
-0.049831093422924924 -0.42318694439149684 0.4749966058563548
-0.04405766105469287 -0.5216447017574602 0.4749966058563548
0.26542398027233904 0.8165861625352161 -0.17134257294767866
0.1986542152423264 0.8480799811544099 -0.17134257294767866
0.21156917885607848 0.7683905887623821 -0.17134257294767866
-0.05710191676549157 0.17560336958708608 0.6991785606427786
-0.1481860355853525 0.22406486214360957 0.6991785606427786
-0.13868565838813102 0.11935977621485942 0.6991785606427786
0.4043045050394176 0.5259451804114053 0.5561949068129723
0.32267238645371665 0.552300879398017 0.5561949068129723
0.34125368280932594 0.4731894070157363 0.5561949068129723
0.8587004681956865 0.023723564828364664 0.16219755917929368
0.7507924240196137 0.05105996707143393 0.16219755917929368
0.7676784781097497 -0.04872234929479261 0.16219755917929368
-0.22486858738367355 0.048151193879282114 -0.5274850640742177
-0.32665195935077185 0.0977373112757044 -0.5274850640742177
-0.3119889390606378 -0.024356441773895864 -0.5274850640742177
-0.14464729129168213 0.03884106406123813 0.5543223018015375
-0.26040904906342205 0.07820784706508907 0.5543223018015375
-0.22753961286717736 -0.034730934244672065 0.5543223018015375
-0.17634952402279785 -0.5254653191302773 -0.6756761172590257
-0.2775036398403911 -0.4959910129018178 -0.6756761172590257
-0.2654959194078613 -0.5951655436122658 -0.6756761172590257
0.19052265346524108 -0.5039834562113379 -0.4997855474136491
0.10056942643868724 -0.46048367867772033 -0.4997855474136491
0.11874740454105735 -0.5654439860488695 -0.4997855474136491
-0.31437928380642777 0.1918762381675535 0.6922413799455415
-0.3903862641635351 0.22529263374313518 0.6922413799455415
-0.3812350962061395 0.14140142758719124 0.6922413799455415
0.04159734861173013 -0.5281731441973189 0.012286466340328737
-0.012295590355842243 -0.5015262507320682 0.012286466340328737
-0.004611323121923725 -0.566867491213616 0.012286466340328737
-0.24507435281000828 0.29664453898466553 -0.7323790949764544
-0.3276075271616521 0.3299339308218586 -0.7323790949764544
-0.3120965700861552 0.22881443640410168 -0.7323790949764544
-0.12995746190213048 0.054593303663175996 0.7627668365142014
-0.2303591878232566 0.08671561490548838 0.7627668365142014
-0.20605500755255907 -0.0252025102457194 0.7627668365142014
-0.005953531083852548 0.7742732699286012 -0.39262045501023257
-0.1160324147680874 0.8109410300321017 -0.39262045501023257
-0.10263923890237292 0.6987330479543226 -0.39262045501023257
0.4772283853530032 0.3200858919809286 -0.6448536805255825
0.39363202711513273 0.3473855590231159 -0.6448536805255825
0.4047782012101738 0.26565137154732643 -0.6448536805255825
0.569745943695478 0.13332525210638901 -0.4674235231444051
0.5077082407069071 0.15172800952697119 -0.4674235231444051
0.5234206077087795 0.08573121323056948 -0.4674235231444051
0.007472293714842166 -0.27859062905008264 -0.9528225109558783
-0.05125785477841184 -0.2548907066672416 -0.9528225109558783
-0.03814534913293861 -0.3142804259281074 -0.9528225109558783
-0.019281492659759904 -0.05155318597955622 0.7848981686026993
-0.07444197783277788 -0.02958216589394242 0.7848981686026993
-0.06797251747893289 -0.0960207889042434 0.7848981686026993
0.10049713179185976 0.08995167293079857 0.6639276530718231
-0.00042608303245342954 0.1360227854770499 0.6639276530718231
0.004738782141039323 0.017407347172948846 0.6639276530718231
0.3384674554467364 0.5434924057221319 0.40943151678001966
0.2814034654507299 0.5726860320938203 0.40943151678001966
0.2912702073042312 0.5057899993194204 0.40943151678001966
-0.16388503881284644 -0.9499311292181288 0.11472830568167991
-0.21433062106307027 -0.9331000374329154 0.11472830568167991
-0.20690016475567682 -0.9850971803303299 0.11472830568167991
-0.19314949626112338 -0.5744616512129346 0.5174298734114582
-0.24214541213250065 -0.5573677767304139 0.5174298734114582
-0.23450913980737115 -0.6102483979454318 0.5174298734114582
0.39026881094328414 -0.6177427639078659 0.3837283323498693
0.2874865386030533 -0.5831874122353508 0.3837283323498693
0.3111420320307645 -0.6843315925814395 0.3837283323498693
0.5861993193891742 -0.465495768069408 -0.34695546291913626
0.4867534816646086 -0.41858675356471414 -0.34695546291913626
0.4981144127772313 -0.5201225482452851 -0.34695546291913626
-0.4012500156645353 0.17545655133721788 0.8838714759259689
-0.46319846272155657 0.2045313095588038 0.8838714759259689
-0.44998545339932333 0.13658349474337095 0.8838714759259689
0.217549512437869 -0.37497565653838505 -0.5222338832631302
0.12294099426576868 -0.3353654721784171 -0.5222338832631302
0.14355177055562343 -0.4454961744394216 -0.5222338832631302
-0.090631990349829 0.129450393533515 0.6616971486647057
-0.14845062168650236 0.15278957986471164 0.6616971486647057
-0.13882638659413943 0.0904817072148786 0.6616971486647057
0.5538431673588865 -0.10148237236796112 -0.5736234841113427
0.501074025200254 -0.08628596001070775 -0.5736234841113427
0.5117371105757268 -0.1403085343933087 -0.5736234841113427
-0.3006316082292187 0.2025882264278854 -0.6050660597782881
-0.3872741418408657 0.23457441615887545 -0.6050660597782881
-0.3758773372277638 0.1537569310822866 -0.6050660597782881
0.24613139768115125 -0.17552825698669172 0.817546454074425
0.13742301745536423 -0.13418559120117313 0.817546454074425
0.15626026548316996 -0.23789837383843204 0.817546454074425
-0.16380386271953926 0.11099547350507627 0.7406705195407502
-0.24391109305230696 0.1464197572453823 0.7406705195407502
-0.23253515254392218 0.05998811655686159 0.7406705195407502
-0.0961908753525437 0.3695360731874141 0.819795149134606
-0.14947634871168258 0.3920216326981061 0.819795149134606
-0.14421114830972256 0.3287366417317256 0.819795149134606
0.5890141183761302 -0.39861469207622374 -0.09963687937973453
0.511458029960197 -0.3730109098171521 -0.09963687937973453
0.5216198587297346 -0.4439867809062154 -0.09963687937973453
0.07145684095468616 -0.0155050591280387 0.8114225234774965
0.0008945303841823189 0.005806256875182304 0.8114225234774965
0.01556319833381964 -0.060715658255165436 0.8114225234774965
0.587107578512622 -0.25130074262126434 0.40630129066456544
0.48133767165871744 -0.2066443004607915 0.40630129066456544
0.49475694716895563 -0.3134046865325901 0.40630129066456544
-1.1766020794958556 -0.2907964106043865 -0.10059639001122718
-1.2273102369249516 -0.26411086269723133 -0.10059639001122718
-1.2200229677959744 -0.32570196993482115 -0.10059639001122718
0.012147764241853196 0.43965177579672976 0.2551378773986064
-0.061753397932957185 0.46922135421076877 0.2551378773986064
-0.045525091429205404 0.38665614179380037 0.2551378773986064
0.3518806730152807 0.434012394039819 0.71019153944466
0.26698215277402954 0.4724278211307193 0.71019153944466
0.27899468861406473 0.3721578485844768 0.71019153944466
0.09607770853663208 -0.028457578404888943 -0.5649687912142254
0.037260739171574644 -0.009467137060601951 -0.5649687912142254
0.0538523538677103 -0.06845169387609144 -0.5649687912142254
0.5225069862391126 0.5371750407626679 -0.5289941038834333
0.4081773898323826 0.5703837550427009 -0.5289941038834333
0.43808842706798284 0.45188458452003205 -0.5289941038834333
0.797577195343552 -0.7341830846544574 -0.4218232868889417
0.698563222485661 -0.6921964520430032 -0.4218232868889417
0.7095829779911204 -0.793303330634365 -0.4218232868889417
-1.0784680185879645 0.4001243122614509 0.2615668665953657
-1.1808535691236215 0.45558064690535605 0.2615668665953657
-1.1683469454096242 0.3365121395076354 0.2615668665953657
-0.3178483018828806 0.36459725676746496 -0.5318270693960696
-0.38821002862423254 0.3974612819241907 -0.5318270693960696
-0.37882320487608 0.31317950384919113 -0.5318270693960696
0.3888912748605244 0.3997209342044161 -0.13297740335698327
0.2970407924337108 0.4369046631567236 -0.13297740335698327
0.3119567994051741 0.330195435866898 -0.13297740335698327
-0.11320851526013784 0.7359202130590954 -0.17183754673775112
-0.20274136361394485 0.7736370800118498 -0.17183754673775112
-0.18565186363821118 0.6827477087583218 -0.17183754673775112
-0.4917478402283053 -0.3112293508924793 -0.45943598785679635
-0.5928629475916207 -0.2637446313125468 -0.45943598785679635
-0.5718297539662163 -0.3806593265534838 -0.45943598785679635
0.8730933153562463 0.4208734158165499 0.07638558668760582
0.7708816974815086 0.4696279790752701 0.07638558668760582
0.7948240500888127 0.3565196440390856 0.07638558668760582
-0.37703658143285135 -0.22254333030200074 -0.5358020273467228
-0.43238653864927934 -0.1951394427734749 -0.5358020273467228
-0.4280750957102355 -0.2542872548199717 -0.5358020273467228
0.28140962471888853 0.1887230562582169 -0.9506986429015261
0.21371320375768335 0.22685733228793337 -0.9506986429015261
0.21967923934473046 0.14613284351224592 -0.9506986429015261
0.02937529941040946 0.337169994150733 -0.5139343138177255
-0.028814195193320177 0.35811684878193634 -0.5139343138177255
-0.015128279165231209 0.30122736210016526 -0.5139343138177255
0.488464306332124 -0.03537755156541499 -0.6154645909707444
0.39025424761330324 0.013333083044823231 -0.6154645909707444
0.4120902672029148 -0.09753459782036672 -0.6154645909707444
-0.5175916288477372 -0.11246559251349748 0.8042073980437695
-0.5787237282748464 -0.09516584012621986 0.8042073980437695
-0.5701081480971186 -0.15311529581075428 0.8042073980437695
-0.34714259302559125 -0.05434111658077501 0.8831440941689951
-0.41933318353073445 -0.033141674220003435 0.8831440941689951
-0.406872908377106 -0.1007891251015761 0.8831440941689951
0.03445483605825952 0.11212712237476051 0.6090812155502479
-0.04246050490313606 0.14667546867771036 0.6090812155502479
-0.03523459363870646 0.055002413052895875 0.6090812155502479
0.251830988048326 -0.2166674592949258 -0.8729919393241384
0.1929936505487733 -0.19208277989803973 -0.8729919393241384
0.20198908602650056 -0.2530918253711987 -0.8729919393241384
0.46068469261705425 -0.2213462466000835 -0.9409459002210391
0.398301668969957 -0.198347591616519 -0.9409459002210391
0.40233900471490114 -0.26661265385258737 -0.9409459002210391
0.06835734999118209 0.3074743674211168 0.8113502811352589
0.010354859953079946 0.3306536621031415 0.8113502811352589
0.020380260469725443 0.26279649883307454 0.8113502811352589
0.14617709160208223 -0.20746470724705043 -0.8292214985993581
0.03900596947962729 -0.1765889358410435 -0.8292214985993581
0.05959582314178262 -0.28488559904805977 -0.8292214985993581
-0.03508627377106709 -0.11763880900478163 0.823409570983148
-0.08799036513203744 -0.09102654588961302 0.823409570983148
-0.07800411059934026 -0.15001360868010213 0.823409570983148
0.6367462092762104 -0.09391774191666688 0.324863741707768
0.5483952878509125 -0.06625512915803847 0.324863741707768
0.5616362748586707 -0.16076782584601795 0.324863741707768
0.06438527925456286 0.2657236089991115 -0.7455523427920877
0.01293603080306029 0.28580499745725274 -0.7455523427920877
0.014651740193828106 0.22695884256987373 -0.7455523427920877
-0.0180657610837735 0.5234500238208422 0.6107833378482415
-0.08984741439384494 0.5512677980052143 0.6107833378482415
-0.0763816838414944 0.4652183208379625 0.6107833378482415
-0.1112106154971379 -0.20751960457900323 0.6587889384881892
-0.16205899315024033 -0.18508032493570373 0.6587889384881892
-0.15638682453218122 -0.2439980796157611 0.6587889384881892
0.7279939002210318 -0.1284191956845196 0.13035590763525523
0.646979257538067 -0.0987169194246611 0.13035590763525523
0.6603847347200525 -0.17907279091063574 0.13035590763525523
-0.24761294000154588 0.11089563294628287 -0.16449156085493166
-0.3307560649412001 0.14469332514419483 -0.16449156085493166
-0.3207698077809446 0.06534705872684887 -0.16449156085493166
0.5822238977940974 0.12883772401775886 -0.8318236342512955
0.506202991826669 0.1606855861224649 -0.8318236342512955
0.5187386763975502 0.08181772692820002 -0.8318236342512955
-0.08237541098528259 -0.1848164612217182 0.8089199543371228
-0.14555087969056493 -0.1664464779699979 0.8089199543371228
-0.13678216060604861 -0.22475278247289743 0.8089199543371228
0.06091327711128492 -0.4190495569310313 0.5515690410161338
-0.03202672476548223 -0.3729379368916223 0.5515690410161338
-0.02306513585232291 -0.4760212819066464 0.5515690410161338
-0.457805480158343 0.08305990116250837 0.8799582210327336
-0.5677891411403176 0.11715598275170011 0.8799582210327336
-0.5487534611290384 0.006011378113334839 0.8799582210327336
-0.7511393321096034 0.1534467978248854 0.23973884433155637
-0.8069553058517481 0.17530262838613592 0.23973884433155637
-0.7952719442693444 0.11190596788972793 0.23973884433155637
-0.12302568354796375 -0.014313412625720468 -0.47919641161712695
-0.20731157754345325 0.018530811010963395 -0.47919641161712695
-0.1922421257916631 -0.07529798682722755 -0.47919641161712695
-0.12172628777642727 0.7197227949988286 -0.616851640406885
-0.2046270756007731 0.7510497519310884 -0.616851640406885
-0.196813863454549 0.6674775014385712 -0.616851640406885
-0.4477529392674742 0.49068984608126165 -0.0005873261958127938
-0.5098050613875165 0.5123179534288407 -0.0005873261958127938
-0.4928295230312482 0.44883856572792624 -0.0005873261958127938
0.2188278740465039 -0.061639088354554616 -0.6872124070500889
0.14797161720327284 -0.04189987013694308 -0.6872124070500889
0.15749904880130264 -0.11102460668685604 -0.6872124070500889
0.21476290329417652 -0.6417391610762264 0.6219732770404611
0.1597280792088498 -0.61381064841656 0.6219732770404611
0.16916952327903229 -0.6813421487465645 0.6219732770404611
0.32812486761934867 0.376194739562728 -0.2944450510058765
0.24953300835406284 0.4112140146015025 -0.2944450510058765
0.25958544601421335 0.31491222496943827 -0.2944450510058765
0.632415575304427 0.023584171760108665 -0.1631001035108261
0.5597968638258627 0.04346295631814891 -0.1631001035108261
0.5717178762082691 -0.024079112103104004 -0.1631001035108261
0.40200607775346153 -0.22403244266940875 0.8705124606295823
0.30978653333433187 -0.18699021060780602 0.8705124606295823
0.33193001089067875 -0.27649342007973965 0.8705124606295823
-0.09894385490778454 -0.20239604972743572 0.8994619124502375
-0.17608734198170434 -0.1673230942532346 0.8994619124502375
-0.16367977375775875 -0.2571305213756556 0.8994619124502375
0.6723524267531973 0.17412244030700588 0.6122942642460383
0.6217035219168405 0.19875819357222368 0.6122942642460383
0.6253693284318625 0.13980859099028897 0.6122942642460383
-0.004877843120913494 -0.05712776020839714 -0.944388828739732
-0.06557665769028195 -0.04011897379967422 -0.944388828739732
-0.05105906796406463 -0.09788454321369233 -0.944388828739732
0.6240886644172816 -0.06983013479090702 -0.6333214609925327
0.5550828578213762 -0.04020649295745606 -0.6333214609925327
0.5679972045240392 -0.12447544435401618 -0.6333214609925327
-0.18811238150918558 -0.2662818464440315 0.8181192306920472
-0.2738658353033986 -0.22964016593251457 0.8181192306920472
-0.2717566501524317 -0.329152286396046 0.8181192306920472
0.12095012154804119 0.031455264102435224 -0.7649848930223895
0.0318452937506449 0.05591744084814441 -0.7649848930223895
0.0539780796093191 -0.036706180340277964 -0.7649848930223895
0.03259992574373884 -0.33826546725978807 -0.2748919403932805
-0.04586795090435411 -0.3138879738993166 -0.2748919403932805
-0.02576171429088616 -0.3951427842355443 -0.2748919403932805
-0.8567740776094553 0.037709853133761566 -0.192394482088623
-0.9283856979169948 0.07306462459746618 -0.192394482088623
-0.9188438087106789 -0.004408340258134524 -0.192394482088623
-0.007769146759645844 0.08064483722991463 0.7023556489681565
-0.07663538811110365 0.10587136119175869 0.7023556489681565
-0.06142133672209746 0.03167062586837314 0.7023556489681565
0.4523802082868504 0.6642613476222523 -0.346859728059641
0.34900895691992845 0.7100050541415834 -0.346859728059641
0.36342342462297134 0.5896369814532443 -0.346859728059641
0.11678747281710565 0.4567822442950602 -0.7424500138314247
0.06871567930948172 0.482676096797617 -0.7424500138314247
0.0730421350956791 0.4255834576128195 -0.7424500138314247
0.271108235859029 -0.12146395684302431 0.811632277531724
0.19730211558869912 -0.0886627467318228 0.811632277531724
0.2124774523668969 -0.17029716543452594 0.811632277531724
0.5494443240448208 0.006691738112827439 -0.7170394376331481
0.47056339873039943 0.03476056409641194 -0.7170394376331481
0.4815534169347569 -0.03787512027702458 -0.7170394376331481
-0.08061779331481883 0.5800694132080895 0.5210099505436425
-0.16485113184387376 0.6047608389212782 0.5210099505436425
-0.14252477997924906 0.521046673023285 0.5210099505436425
-0.3150342482852204 0.8370830397827927 0.2031900769802006
-0.429809977533396 0.8858005854942267 0.2031900769802006
-0.40605563292913227 0.771637040036991 0.2031900769802006
0.20699274173102272 0.06620199159790811 -0.9268179910025636
0.11589120406729257 0.11182395772387413 -0.9268179910025636
0.11968079387399905 0.005052864794713827 -0.9268179910025636
-0.20148945214939074 0.12081488569275753 -0.7416471272373428
-0.2704208291559594 0.15133908742716246 -0.7416471272373428
-0.25500337174946947 0.07921802011876812 -0.7416471272373428
-0.2093102657828764 -0.6483996720481384 -0.39956583861274503
-0.3055550159521459 -0.606095089311128 -0.39956583861274503
-0.2994237595936922 -0.7203193433312277 -0.39956583861274503
-0.6350364080883927 -0.06686269119859 -0.32344326152543224
-0.718055067219716 -0.023290291217219428 -0.32344326152543224
-0.7088966139011856 -0.11931636623910491 -0.32344326152543224
-0.5177728197103332 -0.5716908148564336 -0.2683364254248246
-0.5730011941448014 -0.5484343523813389 -0.2683364254248246
-0.5647995872236108 -0.6133836110475989 -0.2683364254248246
0.7459508691497305 -0.14797011447704028 0.535561420160342
0.6592957796628607 -0.11476500978554177 0.535561420160342
0.6658514830405902 -0.21898896237524484 0.535561420160342
-0.3054414518395371 0.7145568929315321 0.1460869423562632
-0.3717126501649618 0.7384026150803491 0.1460869423562632
-0.3641726398590212 0.6614582110879976 0.1460869423562632
-0.3274342701370586 0.3870349694055076 -0.9414765303600239
-0.42161912268496093 0.42429476734834515 -0.9414765303600239
-0.4009473883925169 0.320250449015973 -0.9414765303600239
0.6697760882296536 0.11442023297254998 -0.6445358778706396
0.572882551170722 0.15931779905520302 -0.6445358778706396
0.5840274870146716 0.0498668317780614 -0.6445358778706396
0.23164518129184175 0.4949689989059164 -0.37384847173550273
0.175495763839236 0.5176078830641542 -0.37384847173550273
0.18483281348519642 0.46445691206171047 -0.37384847173550273
-0.2683216588768572 0.5898364299435686 -0.14340708041967234
-0.3411593370841754 0.6166670840028362 -0.14340708041967234
-0.3268790127260105 0.548652200846244 -0.14340708041967234
0.0022439431878913327 0.18532577714216578 -0.7112624920830936
-0.07267106285951141 0.21911917186346064 -0.7112624920830936
-0.0582462223781013 0.13005675611359774 -0.7112624920830936
0.040506241300013804 0.08815820187636328 -0.6842082407802467
-0.029461593253352552 0.11519907066344645 -0.6842082407802467
-0.011042960371173412 0.04754350893712755 -0.6842082407802467
-0.014701809229027772 0.057646618624653014 0.6136030426355338
-0.07399678416163882 0.08327192188787343 0.6136030426355338
-0.06375462449021273 0.010218193756440841 0.6136030426355338
-0.35868081403550794 0.5497111912258454 -0.615294654381361
-0.43489786972937955 0.579572541719788 -0.615294654381361
-0.4204984637783551 0.4903281871217694 -0.615294654381361
0.08116129332544701 -0.8460997499469888 0.6723617937934414
-0.015380824065082246 -0.8200106477020804 0.6723617937934414
-0.0017091180308488885 -0.9085843161927697 0.6723617937934414
-0.45967902245179665 -0.023924506282503158 0.6315584187517468
-0.510669252482231 -0.0033483318751945865 0.6315584187517468
-0.5002448590712677 -0.06249906072047538 0.6315584187517468
0.5852213321451922 0.8567129908730929 -0.16497860519308713
0.5174467737030143 0.8774006685786845 -0.16497860519308713
0.5242406589750517 0.8100609619592769 -0.16497860519308713
-0.4453824206735942 0.04386999192197605 0.1262660258964824
-0.5464956932245146 0.08903638720588947 0.1262660258964824
-0.5291139487671498 -0.033972044532632924 0.1262660258964824
-0.7887775515408167 0.18639318251363063 -0.030705552690066005
-0.8633384413363326 0.2170775992990016 -0.030705552690066005
-0.8611601774083493 0.13054623955782357 -0.030705552690066005
-0.4394832042832268 -0.6952063474927843 -0.004253611936234716
-0.5451310397077891 -0.6509987009865212 -0.004253611936234716
-0.5275937395082089 -0.7690112772356512 -0.004253611936234716
0.7215847337043919 0.08943271665759452 0.08738657714334522
0.6144283868668213 0.13315175921230435 0.08738657714334522
0.6269074992568251 0.02208009696013656 0.08738657714334522
-0.45319285607892157 -0.08665226206715665 -0.30058645140261464
-0.5459586703691655 -0.04841956083082863 -0.30058645140261464
-0.5389202755296596 -0.15804304492708335 -0.30058645140261464
-0.09741492089821746 0.001914296210194964 0.8077130546500906
-0.1781784705387059 0.02485058401419008 0.8077130546500906
-0.16476034371926587 -0.049746765640959985 0.8077130546500906
0.21930219869227763 0.047194238636636965 0.709140627183425
0.1357375402516405 0.08162064220526441 0.709140627183425
0.15414234384084252 -0.012331438792480574 0.709140627183425
-0.23938852652154144 0.29694560623596544 0.4695484996463935
-0.3075307508903878 0.31674994440666243 0.4695484996463935
-0.29114230989235235 0.24933620964484715 0.4695484996463935
-0.0588833528912721 -0.17444522773175322 -0.7968658485987734
-0.12136880859670919 -0.1491476549382671 -0.7968658485987734
-0.11364385091802535 -0.20767010733870944 -0.7968658485987734
0.24970860757731594 0.6209662287235876 -0.08217847034052424
0.19169843828733885 0.6401417509791452 -0.08217847034052424
0.19950598845276685 0.5811434236485891 -0.08217847034052424
0.7542910881555301 0.14677888585224252 0.003636623708497647
0.6581135164609849 0.1865594459000974 0.003636623708497647
0.6744707513028722 0.07581206110583734 0.003636623708497647
0.23059086148966437 -0.6812069740181652 0.10155029160835953
0.1430358439494569 -0.6447936555233302 0.10155029160835953
0.16027844293117277 -0.7317439884947468 0.10155029160835953
0.26001697003469104 0.7752920767658599 0.40872869327591765
0.1781623685547573 0.8034647538281691 0.40872869327591765
0.18544246558741462 0.7122576997093343 0.40872869327591765
0.24415208573739122 -0.3536731734616469 0.7136185037127014
0.1722374616331546 -0.3303474697506 0.7136185037127014
0.18857038860164738 -0.4035351770797679 0.7136185037127014
0.1604449819357591 0.11530199546435409 0.6076481326618784
0.08535782741654978 0.14360278825836717 0.6076481326618784
0.09942976631561498 0.06956232113280778 0.6076481326618784
0.6518110126805958 -0.28578805509301397 -0.15455769699732075
0.6033709324528065 -0.26520692512603944 -0.15455769699732075
0.6127029685863596 -0.3186075833556314 -0.15455769699732075
-0.33770737966156705 0.6993132856204838 -0.11896488035592241
-0.41752785960437105 0.7318482862066575 -0.11896488035592241
-0.3995728680237906 0.6490412614613242 -0.11896488035592241
-0.6822569584965706 -0.5190743874009999 -0.5626309858535726
-0.7412604248098693 -0.488124451185199 -0.5626309858535726
-0.7380487376724477 -0.5542064034074404 -0.5626309858535726
0.05251919800665784 0.08123362654990363 0.7422110600197666
-0.04680497400146505 0.11380817521792394 0.7422110600197666
-0.023306096112133363 0.013114087494592468 0.7422110600197666
0.36457031018594194 -0.16646909128593684 1.0034050858317096
0.29284824595657416 -0.138774611899669 1.0034050858317096
0.30480570706898147 -0.2178655481900384 1.0034050858317096
-0.5495198599220287 -0.04080648892697038 -0.08905339773091354
-0.6138631122804616 -0.013304054454826499 -0.08905339773091354
-0.6091250598058611 -0.08036951576582975 -0.08905339773091354
-0.21368240342329956 0.564233702774427 -0.5499817354396676
-0.3048963146068802 0.5930015246815332 -0.5499817354396676
-0.27933694139236664 0.5027990750823291 -0.5499817354396676
0.14951787157276203 -0.014627387471902044 0.7466482521975101
0.06990142727609727 0.012701588686843693 0.7466482521975101
0.08148232617320655 -0.06597225857240903 0.7466482521975101
0.3110882379659394 0.07423131423948023 -0.7533891048010251
0.24367661852644534 0.09531570132940502 -0.7533891048010251
0.2592787510453382 0.030518797973965672 -0.7533891048010251
0.3186440775303496 0.05089909420509236 -0.7473680237456968
0.23091681259728727 0.09297575385377072 -0.7473680237456968
0.23797512098814091 -0.005237268539895139 -0.7473680237456968
-0.016985554293577926 -0.6293363247916716 0.5901779166109193
-0.08624242915679656 -0.6020823981662078 0.5901779166109193
-0.07789964825473088 -0.681315488021858 0.5901779166109193
0.6269424933715663 -0.026038627937987384 -0.46829879247228023
0.5152514908198766 0.016365368062569316 -0.46829879247228023
0.5414601606916283 -0.09990223379362792 -0.46829879247228023
0.7593452839761538 0.038876438430026715 -0.7122274917137984
0.705896211407548 0.05704094850183489 -0.7122274917137984
0.7157443890693463 0.006990027143755587 -0.7122274917137984
0.5283342329535303 -0.3332360431191717 -0.29662094245993303
0.4138451846050429 -0.29085153534670105 -0.29662094245993303
0.4424503786856971 -0.4093351200378399 -0.29662094245993303
0.2793874963664976 0.05883467747928273 -0.8310530754128108
0.22458695024637693 0.0785948061955492 -0.8310530754128108
0.23366717966432565 0.016027172185719918 -0.8310530754128108
-0.5553214156488658 -0.5843070407169996 0.2162931790298225
-0.6097823007633407 -0.5637615277385327 0.2162931790298225
-0.5984881896022808 -0.6169132263576563 0.2162931790298225
1.0657265963498188 0.122862735502518 -0.5461222907202838
1.0145596667588581 0.1365427943548469 -0.5461222907202838
1.0253767927916093 0.08695120727175544 -0.5461222907202838
0.5348596833037423 -0.26999855997654026 -0.6068245465315284
0.4342613554539693 -0.24167084913419806 -0.6068245465315284
0.46028877912644495 -0.3419768806072331 -0.6068245465315284
0.07771899360632673 -0.6486537811811411 -0.3948250598000343
0.0005610507893348098 -0.6145358899920681 -0.3948250598000343
0.005931342361435252 -0.7033778457978007 -0.3948250598000343
0.47385624959924166 -0.20981747976870785 0.615237277157391
0.37688753034097106 -0.17243639889757295 0.615237277157391
0.39598640781712996 -0.2839782332804238 0.615237277157391
0.08402291363143877 0.12177367641860765 0.7171167941060577
-0.004047815822163507 0.14875109345787332 0.7171167941060577
0.019891257869751558 0.057580201978495546 0.7171167941060577
0.5711985168643012 0.4412773005680798 -0.39355162437839264
0.47651652790316235 0.48002341923567643 -0.39355162437839264
0.4873363278303683 0.3852634935456551 -0.39355162437839264
-0.7437105749195293 -0.05635490538606134 -0.18763899896919078
-0.817264817288608 -0.029152217464191346 -0.18763899896919078
-0.811123880840608 -0.11383732241716467 -0.18763899896919078
0.09264771270669422 0.1928953378296633 -0.8132661006814567
0.009595842652973974 0.23035567903086573 -0.8132661006814567
0.0171534837915847 0.13080508144334177 -0.8132661006814567
0.2822483609370869 0.41543989629714345 0.2477967501887253
0.2076328738856404 0.4396119579950695 0.2477967501887253
0.22198123997187594 0.3650785492136006 0.2477967501887253
-0.5577166737634074 -0.1882035734958524 0.27215945384057355
-0.6154876420877048 -0.16686743792791428 0.27215945384057355
-0.6119927519971684 -0.2286028516528408 0.27215945384057355
0.08118642592731772 0.17669417044024058 0.5401502232291976
0.024134449171699525 0.20044081692956797 0.5401502232291976
0.034792260473477526 0.1397510741110154 0.5401502232291976
0.167844077709658 0.3634817351492079 -0.562148438810716
0.11474193873397041 0.3785181330523245 -0.562148438810716
0.12716731020094252 0.3230359898742114 -0.562148438810716
-0.5591994855818194 0.46886374012313503 -0.03140042640639386
-0.6341078175417608 0.49477207832368253 -0.03140042640639386
-0.6210523747734442 0.41402552678563664 -0.03140042640639386
0.22786094192690443 -0.4961257482652912 0.6558891955656093
0.17706504081661276 -0.4768927391585482 0.6558891955656093
0.18301491017868118 -0.5336010218755928 0.6558891955656093
-0.21916014119860522 -0.8895900386909638 0.18384053136304312
-0.3261536871105095 -0.8436595278529418 0.18384053136304312
-0.3203097760778067 -0.9639837472086797 0.18384053136304312
0.07756774373253938 0.6521194151359488 -0.2013587548038324
0.012475035475115491 0.6778627740600909 -0.2013587548038324
0.026863535403665758 0.6085366495242167 -0.2013587548038324
0.14216167792731932 0.4010472201062652 0.23150415733902482
0.04891122844330703 0.42663008379919426 0.23150415733902482
0.06903950509548906 0.3314108842362288 0.23150415733902482
0.04995135589402322 -0.044917248524130475 -0.6859796969585141
-0.011606741186053843 -0.016877891176053164 -0.6859796969585141
-0.006726932491422737 -0.08161536590546123 -0.6859796969585141
-0.3045379431089346 -0.399342226733662 0.2598790947002086
-0.3966425073341654 -0.36047307189215155 0.2598790947002086
-0.3742736708316902 -0.4529932566327813 0.2598790947002086
0.5513274273402374 -0.44550852639696575 0.6414935170263478
0.4972516267992445 -0.42941079326994575 0.6414935170263478
0.5062464608732029 -0.4865439621440052 0.6414935170263478
0.46556547677154425 0.45686889493057153 0.7923386976719603
0.41634394140408293 0.48347400753527037 0.7923386976719603
0.4247933445351258 0.42468887917843756 0.7923386976719603
0.3700951423144617 -0.6616249217858151 -0.11417914030130835
0.2834874137542832 -0.6311417630886096 -0.11417914030130835
0.3045716285064966 -0.727690639368768 -0.11417914030130835
0.27100249531181286 0.47586418209420317 0.6104136321154943
0.204454618513933 0.5037314412723615 0.6104136321154943
0.20748532757191324 0.4277678250834901 0.6104136321154943
-0.11612107433990723 0.6667702396242474 -0.22177073318637328
-0.196413915651933 0.6920349246327171 -0.22177073318637328
-0.18371518801434772 0.6093662630418003 -0.22177073318637328
-0.003252290713988408 0.11587898371820643 -0.8423245473628542
-0.07755301357947467 0.14345105929765112 -0.8423245473628542
-0.07268156910568228 0.06187045406802472 -0.8423245473628542
-0.9992768758503666 0.05712553432285061 -0.02964328019134914
-1.0722768352877465 0.09396099786343223 -0.02964328019134914
-1.0677544066688327 0.011714328735513722 -0.02964328019134914
0.2782354544917888 0.22728448458792064 0.43174777139331366
0.22232295437314661 0.2517102853583791 0.43174777139331366
0.23057077576738563 0.18849310512829384 0.43174777139331366
0.06538695546604631 0.8916778786916031 0.12635057535302607
-0.016453148089728625 0.9161378906188274 0.12635057535302607
0.00018677121610849792 0.8388049851899215 0.12635057535302607
0.007831650572530498 0.08583728329404967 0.8607514740648242
-0.0918010248496412 0.11080463647578563 0.8607514740648242
-0.07193385056906326 0.016716474839472743 0.8607514740648242
0.7822872601451393 -0.3990143309901754 -0.3368933973399349
0.690820217737319 -0.3515819869315913 -0.3368933973399349
0.6954959102813285 -0.4519763965840107 -0.3368933973399349
0.03146983079468449 0.011402156269626207 0.8519594787487426
-0.0362330176909167 0.0437093633603699 0.8519594787487426
-0.028155563093773556 -0.03669270612027733 0.8519594787487426
0.07339448759850482 -0.01612001807836745 -0.5374231981702237
-0.0323944328800118 0.026874329112561428 -0.5374231981702237
-0.019582898059943787 -0.08158340745771617 -0.5374231981702237
0.5518540023677683 0.5710957028715257 0.3033756602912206
0.47189564591326494 0.6034087516259987 0.3033756602912206
0.47730086118106274 0.5129344002356079 0.3033756602912206
-0.0025180996811359144 -0.23019425539857907 -0.840256389218344
-0.06692368726712838 -0.19584924452065655 -0.840256389218344
-0.06104560009294502 -0.26973390593023666 -0.840256389218344
-0.00991229142136766 -0.09915270334705317 -0.9203278465982586
-0.08356693130995571 -0.0727803079471146 -0.9203278465982586
-0.06798310845176878 -0.14177801726131609 -0.9203278465982586
-0.1840335610663199 -0.6252220190991077 -0.2159962865796661
-0.24219859114787703 -0.6039228643182836 -0.2159962865796661
-0.22667164671080767 -0.662868689973526 -0.2159962865796661
-0.43238486675708215 -0.5273712854932238 -0.7405193826042334
-0.5070372535488866 -0.49295902911650197 -0.7405193826042334
-0.4934697601327391 -0.5807407214766813 -0.7405193826042334
-0.18768461085137456 -0.10914831205464023 0.588364260599329
-0.29339922432689847 -0.058010520112984826 0.588364260599329
-0.2737732915505863 -0.17294295887406222 0.588364260599329
-0.6488967729108561 0.3806081807213615 -0.579774997407785
-0.7535342091528489 0.41277401640072814 -0.579774997407785
-0.7381831198797069 0.3151836925692817 -0.579774997407785
0.6774657434088611 -0.2768957557490113 -0.4822500661656758
0.596322395056813 -0.24269176474330367 -0.4822500661656758
0.6041743610662439 -0.327973353930242 -0.4822500661656758
0.05661792553963481 -0.5028859616170895 -0.5103288209668219
-0.023464812157211502 -0.4778055986650649 -0.5103288209668219
-0.006306282627021476 -0.5553814993434082 -0.5103288209668219
-0.7603221345205382 0.5886880266565038 0.20117695334138347
-0.8326268442767456 0.6280387072065197 0.20117695334138347
-0.8225097330535328 0.5402807261457669 0.20117695334138347
-0.06322403303521862 -0.03084250573993126 -0.5635690366951793
-0.12142367693497391 -0.004957924212628622 -0.5635690366951793
-0.11128989016907787 -0.07154355326271314 -0.5635690366951793
-0.2202015189034587 -0.0007104096308135255 -0.7021214900787914
-0.29341504370596416 0.03267469345310743 -0.7021214900787914
-0.2862829303839176 -0.04368245394181072 -0.7021214900787914
0.37571474715958425 -0.4415774221554041 -0.6437692816063482
0.2799561763454765 -0.40152209003497075 -0.6437692816063482
0.3027453956469576 -0.49862755888353927 -0.6437692816063482
3 0 1 2 128 255 234 200
3 3 4 5 140 253 246 200
3 6 7 8 153 249 253 200
3 9 10 11 165 242 254 200
3 12 13 14 177 232 251 200
3 15 16 17 188 220 243 200
3 18 19 20 199 206 230 200
3 21 22 23 209 191 213 200
3 24 25 26 219 174 193 200
3 27 28 29 227 155 170 200
3 30 31 32 234 136 145 200
3 33 34 35 241 117 120 200
3 36 37 38 246 99 95 200
3 39 40 41 250 80 71 200
3 42 43 44 253 63 50 200
3 45 46 47 254 48 31 200
3 48 49 50 254 34 17 200
3 51 52 53 253 22 7 200
3 54 55 56 251 13 1 200
3 57 58 59 248 6 1 200
3 60 61 62 243 2 6 200
3 63 64 65 237 1 15 200
3 66 67 68 230 2 29 200
3 69 70 71 222 6 47 200
3 72 73 74 213 14 68 200
3 75 76 77 204 23 92 200
3 78 79 80 193 35 117 200
3 81 82 83 182 49 142 200
3 84 85 86 170 65 167 200
3 87 88 89 158 82 190 200
3 90 91 92 145 101 211 200
3 93 94 95 133 120 228 200
3 96 97 98 120 139 242 200
3 99 100 101 107 157 250 200
3 102 103 104 95 176 254 200
3 105 106 107 83 193 253 200
3 108 109 110 71 208 247 200
3 111 112 113 60 222 236 200
3 114 115 116 50 234 221 200
3 117 118 119 40 243 202 200
3 120 121 122 31 249 180 200
3 123 124 125 24 253 156 200
3 126 127 128 17 254 131 200
3 129 130 131 11 253 105 200
3 132 133 134 7 248 81 200
3 135 136 137 3 241 58 200
3 138 139 140 1 231 39 200
3 141 142 143 1 219 22 200
3 144 145 146 1 205 10 200
3 147 148 149 3 189 3 200
3 150 151 152 6 172 1 200
3 153 154 155 10 153 3 200
3 156 157 158 15 134 11 200
3 159 160 161 22 115 23 200
3 162 163 164 29 97 39 200
3 165 166 167 38 79 59 200
3 168 169 170 47 62 82 200
3 171 172 173 58 46 106 200
3 174 175 176 68 32 132 200
3 177 178 179 80 21 157 200
3 180 181 182 92 12 181 200
3 183 184 185 104 5 203 200
3 186 187 188 117 1 222 200
3 189 190 191 130 1 237 200
3 192 193 194 142 2 247 200
3 195 196 197 155 7 253 200
3 198 199 200 167 15 254 200
3 201 202 203 179 25 250 200
3 204 205 206 190 37 241 200
3 207 208 209 201 51 228 200
3 210 211 212 211 67 210 200
3 213 214 215 220 84 189 200
3 216 217 218 228 103 166 200
3 219 220 221 236 122 141 200
3 222 223 224 242 141 116 200
3 225 226 227 247 159 91 200
3 228 229 230 250 177 68 200
3 231 232 233 253 194 46 200
3 234 235 236 254 210 29 200
3 237 238 239 254 223 15 200
3 240 241 242 253 235 5 200
3 243 244 245 251 244 1 200
3 246 247 248 247 250 1 200
3 249 250 251 242 254 7 200
3 252 253 254 236 254 17 200
3 255 256 257 229 252 32 200
3 258 259 260 221 247 51 200
3 261 262 263 212 240 72 200
3 264 265 266 202 230 96 200
3 267 268 269 191 217 121 200
3 270 271 272 180 203 147 200
3 273 274 275 168 187 171 200
3 276 277 278 156 170 194 200
3 279 280 281 143 151 214 200
3 282 283 284 131 132 231 200
3 285 286 287 118 113 243 200
3 288 289 290 105 95 251 200
3 291 292 293 93 77 254 200
3 294 295 296 81 60 252 200
3 297 298 299 69 44 245 200
3 300 301 302 58 31 234 200
3 303 304 305 48 20 218 200
3 306 307 308 39 11 198 200
3 309 310 311 30 5 176 200
3 312 313 314 22 1 152 200
3 315 316 317 16 1 126 200
3 318 319 320 10 3 101 200
3 321 322 323 6 8 77 200
3 324 325 326 3 16 55 200
3 327 328 329 1 26 36 200
3 330 331 332 1 38 20 200
3 333 334 335 1 53 9 200
3 336 337 338 3 69 2 200
3 339 340 341 6 86 1 200
3 342 343 344 11 105 4 200
3 345 346 347 16 124 12 200
3 348 349 350 23 143 25 200
3 351 352 353 31 162 43 200
3 354 355 356 39 179 63 200
3 357 358 359 49 196 86 200
3 360 361 362 59 211 111 200
3 363 364 365 70 225 136 200
3 366 367 368 82 236 161 200
3 369 370 371 94 244 185 200
3 372 373 374 106 251 206 200
3 375 376 377 119 254 224 200
3 378 379 380 132 254 239 200
3 381 382 383 144 252 249 200
3 384 385 386 157 247 254 200
3 387 388 389 169 239 254 200
3 390 391 392 181 229 249 200
3 393 394 395 192 216 239 200
3 396 397 398 203 201 225 200
3 399 400 401 213 185 207 200
3 402 403 404 222 167 186 200
3 405 406 407 230 149 162 200
3 408 409 410 237 130 137 200
3 411 412 413 243 111 112 200
3 414 415 416 247 92 87 200
3 417 418 419 251 75 64 200
3 420 421 422 253 58 43 200
3 423 424 425 254 43 26 200
3 426 427 428 254 30 13 200
3 429 430 431 253 19 4 200
3 432 433 434 250 10 1 200
3 435 436 437 246 4 2 200
3 438 439 440 241 1 8 200
3 441 442 443 235 1 20 200
3 444 445 446 228 3 35 200
3 447 448 449 219 9 54 200
3 450 451 452 210 17 76 200
3 453 454 455 200 27 100 200
3 456 457 458 189 40 125 200
3 459 460 461 178 55 151 200
3 462 463 464 166 71 175 200
3 465 466 467 154 89 198 200
3 468 469 470 141 107 217 200
3 471 472 473 129 126 233 200
3 474 475 476 116 145 245 200
3 477 478 479 103 164 252 200
3 480 481 482 91 181 254 200
3 483 484 485 79 198 252 200
3 486 487 488 68 213 244 200
3 489 490 491 57 226 231 200
3 492 493 494 46 237 215 200
3 495 496 497 37 245 195 200
3 498 499 500 29 251 172 200
3 501 502 503 21 254 147 200
3 504 505 506 15 254 122 200
3 507 508 509 10 252 97 200
3 510 511 512 5 246 73 200
3 513 514 515 3 238 51 200
3 516 517 518 1 227 33 200
3 519 520 521 1 214 18 200
3 522 523 524 1 200 7 200
3 525 526 527 4 183 2 200
3 528 529 530 7 165 1 200
3 531 532 533 12 147 5 200
3 534 535 536 17 128 14 200
3 537 538 539 24 109 28 200
3 540 541 542 32 90 46 200
3 543 544 545 41 73 67 200
3 546 547 548 51 56 90 200
3 549 550 551 61 41 115 200
3 552 553 554 72 28 140 200
3 555 556 557 84 18 165 200
3 558 559 560 96 9 188 200
3 561 562 563 109 4 209 200
3 564 565 566 121 1 227 200
3 567 568 569 134 1 241 200
3 570 571 572 147 4 250 200
3 573 574 575 159 9 254 200
3 576 577 578 171 18 253 200
3 579 580 581 183 28 248 200
3 582 583 584 194 41 237 200
3 585 586 587 204 56 222 200
3 588 589 590 214 73 203 200
3 591 592 593 223 91 182 200
3 594 595 596 231 109 158 200
3 597 598 599 238 128 133 200
