ply
format ascii 1.0
element vertex 96
property float x
property float y
property float z
property float scale_x
property float scale_y
property float scale_z
property uchar red
property uchar green
property uchar blue
property float opacity
end_header
-0.07285486660519788 -0.05030190746067047 -0.024453964840017783 0.006439895925152389 0.006439895925152389 0.006439895925152389 110 121 138 0.5
-0.07283683901344372 -0.026078845261201602 -0.02426615815100168 0.005360242339437267 0.005360242339437267 0.005360242339437267 106 121 137 0.5
-0.05806763586696113 -0.038277295488707674 -0.024800680850094903 0.0065401030594216805 0.0065401030594216805 0.0065401030594216805 61 80 101 0.5
-0.043259347500481916 -0.05020554852794938 -0.024986713509864367 0.005619236397418877 0.005619236397418877 0.005619236397418877 111 121 134 0.5
-0.04324684384004771 -0.02617958839008253 -0.024679494321166492 0.005814300778785886 0.005814300778785886 0.005814300778785886 108 123 138 0.5
-0.04322926466079735 -0.007187992572770806 -0.02443648860820161 0.006358147101614309 0.006358147101614309 0.006358147101614309 107 121 138 0.5
-0.0311235417989412 -0.03806317771657521 -0.025231486365609884 0.008494695252844648 0.008494695252844648 0.008494695252844648 182 170 158 0.5
-0.01901993517471663 -0.007228303911372871 -0.025340130266927104 0.009138963815069583 0.009138963815069583 0.009138963815069583 107 120 138 0.5
-0.018978683492141334 -0.02595290224579053 -0.02558188773758039 0.005920465005974579 0.005920465005974579 0.005920465005974579 105 121 137 0.5
-0.01896040767464512 0.03579862203125566 -0.02478953088612326 0.00828517874478133 0.00828517874478133 0.00828517874478133 103 120 138 0.5
-0.018913157477964695 -0.05014896225236773 -0.02589412136562947 0.0038573795310685426 0.0038573795310685426 0.0038573795310685426 104 120 138 0.5
-0.013886118313173787 -0.045008340508223735 -0.026068634588955142 0.00549317020448233 0.00549317020448233 0.00549317020448233 56 79 97 0.5
-0.013913990574710728 0.04095708317559083 -0.024964305077316354 0.01029742819046047 0.01029742819046047 0.01029742819046047 56 79 97 0.5
0.010579860312483622 0.017203125263325018 -0.026696188695519478 0.015780977596459824 0.015780977596459824 0.015780977596459824 103 120 139 0.5
-0.09295441011290817 -0.06938054276862994 -0.03012213879508487 0.0010000000000000002 0.0010000000000000002 0.0010000000000000002 181 170 160 0.5
-0.0916657584523939 -0.06838742121844307 -0.029920708971041772 0.0010000000000000002 0.0010000000000000002 0.0010000000000000002 181 169 159 0.5
-0.09004434301305361 0.11690224188743406 -0.028566954872494905 0.005996402592202143 0.005996402592202143 0.005996402592202143 179 170 160 0.5
-0.09078524654683356 -0.08016437973739188 -0.03290059650240533 0.005746592612051577 0.005746592612051577 0.005746592612051577 169 154 136 0.5
-0.0812818038056535 0.10813502497132121 -0.025523072725325138 0.0028528558775128506 0.0028528558775128506 0.0028528558775128506 180 169 161 0.5
-0.08167785303415036 0.06957760256777795 -0.016817046330556702 0.006773714087024248 0.006773714087024248 0.006773714087024248 180 170 160 0.5
-0.08144542397684242 0.026576980634392042 -0.019103199886711775 0.002544748581754224 0.002544748581754224 0.002544748581754224 180 170 160 0.5
-0.07272041891424283 0.03557975918090408 -0.01866418364454657 0.0063258653319173165 0.0063258653319173165 0.0063258653319173165 110 121 138 0.5
-0.07253624543866015 -0.05005626475828921 -0.026386412226795292 0.006431713239841191 0.006431713239841191 0.006431713239841191 110 121 138 0.5
-0.05814868855203162 0.004524509304162222 -0.01926143584234156 0.010073419006902465 0.010073419006902465 0.010073419006902465 61 81 99 0.5
-0.043418933593955426 0.03562969243287967 -0.018204556344020816 0.01006644798393053 0.01006644798393053 0.01006644798393053 111 121 134 0.5
-0.04317595003972404 -0.049920256555451716 -0.02686988305598787 0.005568624362968486 0.005568624362968486 0.005568624362968486 111 121 134 0.5
-0.018986995415904727 -0.04989253701427443 -0.027272286094254614 0.0038508668063274272 0.0038508668063274272 0.0038508668063274272 104 120 138 0.5
0.0063955296708493765 0.12277838327107884 -0.017964085923919154 0.02815115104601233 0.02815115104601233 0.02815115104601233 64 79 52 0.5
0.010254753409941964 -0.04979912584020854 -0.027737157130631466 0.009359776622557719 0.009359776622557719 0.009359776622557719 109 121 134 0.5
0.010263417904786153 -0.026218011387400417 -0.02304207196320152 0.009986185776710147 0.009986185776710147 0.009986185776710147 106 122 139 0.5
0.010257514744890138 -0.007549076483192953 -0.02031451382696293 0.012356364819899721 0.012356364819899721 0.012356364819899721 104 120 137 0.5
0.022612284301179432 -0.05766381670863049 -0.030343958873054255 0.008289514526358916 0.008289514526358916 0.008289514526358916 180 169 160 0.5
0.03451723601041059 -0.0262169753278195 -0.02319983653838722 0.009110453888660388 0.009110453888660388 0.009110453888660388 104 119 134 0.5
0.03450552469262685 -0.04978837406939518 -0.028136644786880365 0.008535521390558637 0.008535521390558637 0.008535521390558637 108 122 134 0.5
0.058978301878734915 -0.031044399844665893 -0.024305119844218834 0.005541020439190675 0.005541020439190675 0.005541020439190675 59 81 99 0.5
0.05894984206329399 -0.04487566726568175 -0.027346983027040996 0.005534680546161614 0.005534680546161614 0.005534680546161614 57 80 98 0.5
0.06374992492752274 -0.049720461937949226 -0.02861122370072455 0.006054975315480855 0.006054975315480855 0.006054975315480855 107 122 137 0.5
0.06400353703184813 -0.026203750248499205 -0.023388912453324178 0.007015559480622428 0.007015559480622428 0.007015559480622428 105 120 138 0.5
0.07571664357061926 -0.0576272131857215 -0.03098876641854926 0.0035808909068464454 0.0035808909068464454 0.0035808909068464454 183 169 160 0.5
0.1521967614545017 0.11632984271018276 -0.036795885724668354 0.010594426288125965 0.010594426288125965 0.010594426288125965 180 170 161 0.5
0.1567567722461721 -0.07881416519532648 -0.04012881856780308 0.0063881796033016655 0.0063881796033016655 0.0063881796033016655 170 155 136 0.5
0.1580219931082867 -0.06746075582960262 -0.036053906334091904 0.002941544358990765 0.002941544358990765 0.002941544358990765 181 170 159 0.5
0.1581809529569742 0.11797522716536978 -0.015772410036578668 0.005520307649371227 0.005520307649371227 0.005520307649371227 180 170 161 0.5
-0.07264550826468064 -0.02641432079949515 -0.021659943429125306 0.005464935493122857 0.005464935493122857 0.005464935493122857 106 121 137 0.5
-0.043204239435975546 -0.02634003464897751 -0.022884390436738504 0.005728289226696436 0.005728289226696436 0.005728289226696436 108 123 138 0.5
-0.04312746601419925 -0.0073927141308407695 -0.020972975420249968 0.006132657458946046 0.006132657458946046 0.006132657458946046 107 121 138 0.5
-0.01903395901598503 -0.026045315123718656 -0.02377072896874501 0.005801349260822995 0.005801349260822995 0.005801349260822995 105 121 137 0.5
0.0052853739075074575 0.13078750309034215 -0.08052667323541762 0.037244336969382064 0.037244336969382064 0.037244336969382064 40 65 35 0.5
-0.09599885134477115 0.12085198582522388 -0.01989582682317231 0.008622284164718034 0.008622284164718034 0.008622284164718034 62 80 51 0.5
-0.09282418064956806 -0.06899868657689003 -0.03119459294742062 0.0010000000000000002 0.0010000000000000002 0.0010000000000000002 181 170 160 0.5
-0.08084800996144319 0.10793999468765647 -0.02360941433509878 0.003345953342713708 0.003345953342713708 0.003345953342713708 179 170 160 0.5
-0.08157036877391664 0.06896807647028314 -0.0131032736862864 0.007413916991867439 0.007413916991867439 0.007413916991867439 180 170 160 0.5
-0.08123356657150597 0.026331364894476034 -0.017938045855011374 0.0027527539151424776 0.0027527539151424776 0.0027527539151424776 180 170 160 0.5
-0.05802792495684225 -0.01689587536129199 -0.02141723094769362 0.008789860302785913 0.008789860302785913 0.008789860302785913 183 169 160 0.5
-0.05698430196906253 -0.061261214856277404 -0.03055927391492251 0.009391076649345895 0.009391076649345895 0.009391076649345895 180 171 157 0.5
-0.008190437185699834 0.08697217496873168 -0.3675144407615529 0.1385371935788366 0.1385371935788366 0.1385371935788366 102 121 139 0.5
0.022302330056822094 -0.03748341131756594 -0.027208545874355117 0.008556107363548365 0.008556107363548365 0.008556107363548365 180 171 158 0.5
0.03257232299809287 -0.09932661730510942 -0.046540994582694256 0.026027414318713787 0.026027414318713787 0.026027414318713787 120 80 61 0.5
0.07570440780776833 -0.05657272964504158 -0.034161706243909074 0.004181202769042202 0.004181202769042202 0.004181202769042202 182 170 160 0.5
0.1577680213018512 -0.0661317275358757 -0.039799502475048334 0.0029605009015668524 0.0029605009015668524 0.0029605009015668524 181 170 159 0.5
0.15780993898001205 0.117359558794509 -0.010735914897097125 0.007152050011490068 0.007152050011490068 0.007152050011490068 180 170 161 0.5
-0.21403861266804428 0.047538109042325014 -0.03237741256075492 0.0673032804447367 0.0673032804447367 0.0673032804447367 24 111 24 0.5
-0.09324650310338904 -0.06960807904258762 -0.02861355151069416 0.0010000000000000002 0.0010000000000000002 0.0010000000000000002 181 170 160 0.5
-0.09194814508582858 -0.06857858649147257 -0.028644165781889303 0.0010000000000000002 0.0010000000000000002 0.0010000000000000002 181 169 159 0.5
-0.0855511288762064 0.005970475205546644 -0.020988472432442503 0.010528845252955265 0.010528845252955265 0.010528845252955265 180 170 160 0.5
-0.08505412771362766 -0.037428223281645495 -0.024395833860100795 0.008537887610708755 0.008537887610708755 0.008537887610708755 180 170 160 0.5
-0.08201637315794175 0.10804583110186002 -0.027786783419996477 0.0031165684471712142 0.0031165684471712142 0.0031165684471712142 180 169 161 0.5
-0.08184734019293459 0.06954048223695963 -0.021485865696320654 0.007540943564854254 0.007540943564854254 0.007540943564854254 180 170 160 0.5
-0.08172035869647357 0.02665613327223046 -0.020590300542900095 0.002841655049619201 0.002841655049619201 0.002841655049619201 180 170 160 0.5
-0.08095571861695464 -0.016145955699739548 -0.02351428721177801 0.0079802284004039 0.0079802284004039 0.0079802284004039 180 170 160 0.5
-0.05815441109423958 -0.03843075727012275 -0.023310600318696383 0.006524144593352405 0.006524144593352405 0.006524144593352405 61 80 101 0.5
-0.058231128475030154 0.04774470456869922 -0.020096325716536696 0.01160564796481098 0.01160564796481098 0.01160564796481098 61 80 101 0.5
-0.05761352482551289 0.09060333552958137 -0.026170545160543034 0.014767172219689553 0.014767172219689553 0.014767172219689553 61 81 99 0.5
-0.031090859720119775 -0.05794059138190113 -0.027521371850305305 0.007267449056273298 0.007267449056273298 0.007267449056273298 181 170 160 0.5
-0.03103780810746379 0.10768779942317419 -0.026681673730611637 0.01854528702700748 0.01854528702700748 0.01854528702700748 180 170 160 0.5
-0.031259039612809514 -0.01731158200837191 -0.018614036730832492 0.00785022898669348 0.00785022898669348 0.00785022898669348 182 170 160 0.5
-0.030776513922626494 0.02617756236299849 -0.01689216400827584 0.009472285819173504 0.009472285819173504 0.009472285819173504 181 170 160 0.5
-0.02984280793370561 0.06956483517633902 -0.022386683946220003 0.017241244416150825 0.017241244416150825 0.017241244416150825 180 170 159 0.5
0.04951472920023406 -0.038434685801498496 -0.023328886589344393 0.007179255875701984 0.007179255875701984 0.007179255875701984 61 80 101 0.5
0.049727378986126294 -0.016531630770443954 -0.025838486086709123 0.008819985375905372 0.008819985375905372 0.008819985375905372 183 169 160 0.5
0.05187874507895768 0.005867833135208008 -0.19673600113557588 0.08604349841433273 0.08604349841433273 0.08604349841433273 105 122 137 0.5
0.07571684678815258 -0.01564005305195602 -0.03128410080184499 0.01133368909274681 0.01133368909274681 0.01133368909274681 182 170 160 0.5
0.07637012559455443 -0.05809458653220187 -0.0274763611541825 0.004280000176564131 0.004280000176564131 0.004280000176564131 183 169 160 0.5
0.07842433289349622 0.02320484147867553 -0.013558164056109212 0.015510282604904446 0.015510282604904446 0.015510282604904446 179 171 158 0.5
0.10338191551953503 0.09083809298798112 -0.01726735838218696 0.025183235722930405 0.025183235722930405 0.025183235722930405 61 81 99 0.5
0.10385584259615778 0.047685871167410084 -0.015495146623168523 0.014161772525886619 0.014161772525886619 0.014161772525886619 61 80 101 0.5
0.10396099722489474 0.0043818889813681166 -0.017244842675968413 0.012517980728778603 0.012517980728778603 0.012517980728778603 61 81 99 0.5
0.10394084376867163 0.02589967468426841 -0.015964440973256652 0.011519712648816545 0.011519712648816545 0.011519712648816545 181 169 161 0.5
0.10375203234306064 -0.017085915723402727 -0.019748658050841736 0.012268207551899005 0.012268207551899005 0.012268207551899005 183 169 160 0.5
0.10349035788314385 -0.03839759680916095 -0.023522470153147054 0.014998637517106445 0.014998637517106445 0.014998637517106445 61 80 101 0.5
0.11424320876257923 0.051072164582129216 0.01009653690809221 0.01916224642227115 0.01916224642227115 0.01916224642227115 61 80 101 0.5
0.149119808412562 0.11438426772273663 -0.06195295065069982 0.01898228411684555 0.01898228411684555 0.01898228411684555 180 170 161 0.5
0.15843677518638785 0.11752441850932291 -0.021864302092105846 0.005581365827146013 0.005581365827146013 0.005581365827146013 180 170 161 0.5
0.1584332415618377 -0.06818887933947827 -0.03125133444406074 0.004558343392098917 0.004558343392098917 0.004558343392098917 181 170 159 0.5
0.15662512908520057 -0.06611527907125991 -0.044629252787819394 0.004538085120269328 0.004538085120269328 0.004538085120269328 181 170 159 0.5
0.29479877937955873 0.048484797371617636 -0.02788959615695368 0.07683346893682662 0.07683346893682662 0.07683346893682662 24 112 25 0.5
