ply
format ascii 1.0
element vertex 300
property float x
property float y
property float z
property float scale_x
property float scale_y
property float scale_z
property uchar red
property uchar green
property uchar blue
property float opacity
end_header
0.0 0.0 0.5 0.01 0.01 0.01 128 255 128 0.7733087428203494
0.02516309779894418 0.0025247311663111867 0.5053672322677387 0.01 0.01 0.01 140 254 146 0.9936869430551266
0.05009550516989786 0.010154861631814881 0.5094389488637318 0.01 0.01 0.01 153 254 165 0.9467685244830342
0.07395005545368644 0.022875432812467032 0.5121727415652344 0.01 0.01 0.01 165 253 183 0.9668922879087369
0.09588028040376553 0.04053753236542553 0.5135298051118999 0.01 0.01 0.01 177 252 199 0.73456630006211
0.11506137176035859 0.0628583138775259 0.5134751621026001 0.01 0.01 0.01 188 251 214 0.9694751599679432
0.13071113831289705 0.0894243009800949 0.5119778765078649 0.01 0.01 0.01 199 249 227 0.7957676856780662
0.14211044111821028 0.11969797329635118 0.5090112546724482 0.01 0.01 0.01 209 247 238 0.8411592208356391
0.14862259047734988 0.15302754960418571 0.5045530327255049 0.01 0.01 0.01 219 244 246 0.7388643311740782
0.14971120230482474 0.18865980184376618 0.4985855493643542 0.01 0.01 0.01 227 242 251 0.8566679188652973
0.14495603858088746 0.22575565422124813 0.4910959030316391 0.01 0.01 0.01 234 239 254 0.9703386831501292
0.13406639625030645 0.26340824674531416 0.4820760925646261 0.01 0.01 0.01 241 236 254 0.7552334259111426
0.11689166047298137 0.30066307409861814 0.4715231404592045 0.01 0.01 0.01 246 232 251 0.7855685618439886
0.09342870047213588 0.3365397506811477 0.4594391979595463 0.01 0.01 0.01 250 229 245 0.7947797740506548
0.06382585799186893 0.37005490267778063 0.4458316312571043 0.01 0.01 0.01 253 225 237 0.8281490481369854
0.028383357922870663 0.40024564958128284 0.4307130881593284 0.01 0.01 0.01 254 220 226 0.7086172452188486
-0.012449943895466003 0.42619311195739185 0.41410154466883603 0.01 0.01 0.01 254 216 213 0.7542206219547398
-0.05808347140403891 0.4470453702755401 0.3960203309974299 0.01 0.01 0.01 253 211 198 0.955347034806796
-0.10779540237834266 0.4620393019154009 0.37649813662594256 0.01 0.01 0.01 251 206 182 0.715153827954623
-0.16074652034874712 0.4705207402059175 0.35556899411000303 0.01 0.01 0.01 248 201 164 0.7644450293509409
-0.2159971716469266 0.4719624304002753 0.33327224142308365 0.01 0.01 0.01 243 196 145 0.848402947983125
-0.27252697280899485 0.4659793023056905 0.3096524627211602 0.01 0.01 0.01 237 191 126 0.7844937753387138
-0.3292568389692644 0.45234063697478566 0.28475940750759543 0.01 0.01 0.01 230 185 107 0.8665754070586468
-0.38507283874284837 0.4309787741822833 0.258647888271992 0.01 0.01 0.01 222 179 89 0.7574437120900059
-0.4388513272388196 0.4019940867929004 0.23137765677232708 0.01 0.01 0.01 213 174 71 0.7835887120464686
-0.48948476782623745 0.36565603572488825 0.20301325922522476 0.01 0.01 0.01 204 168 55 0.8676492910595155
-0.5359076263458137 0.3224002129386134 0.17362387076430058 0.01 0.01 0.01 193 161 40 0.9021458949056899
-0.577121709530701 0.2728213774503401 0.14328310962069393 0.01 0.01 0.01 182 155 27 0.7716331596015913
-0.6122203230099715 0.2176625883731635 0.11206883157271672 0.01 0.01 0.01 170 149 17 0.8782474535815423
-0.6404106435660832 0.15780063693174096 0.08006290530259139 0.01 0.01 0.01 158 143 9 0.74702053255999
-0.661033735051061 0.09422807378700682 0.04735096938706001 0.01 0.01 0.01 145 136 3 0.9094251172718057
-0.6735816868836976 0.028032216398248797 0.014022171734820841 0.01 0.01 0.01 133 130 1 0.7735400575137299
-0.6777114173122188 -0.03962839878150945 -0.019831107633131163 0.01 0.01 0.01 120 124 1 0.8629217106285477
-0.6732547592273904 -0.10754958487845476 -0.054113549484524515 0.01 0.01 0.01 107 117 4 0.9092562305763459
-0.6602245325088494 -0.174508502309384 -0.08872720290662646 0.01 0.01 0.01 95 111 10 0.8920739251381803
-0.6388164016471534 -0.23929145075480887 -0.12357180634367301 0.01 0.01 0.01 83 105 18 0.9696449416773198
-0.609406418424814 -0.300721792531905 -0.1585451209506734 0.01 0.01 0.01 71 99 29 0.7167740612903604
-0.57254425429118 -0.35768733268548364 -0.19354327501117222 0.01 0.01 0.01 60 93 43 0.805806756424891
-0.5289422331301191 -0.40916648596212823 -0.22846111810958253 0.01 0.01 0.01 50 86 58 0.7528887154415952
-0.479460379735354 -0.4542525824288984 -0.263192583697201 0.01 0.01 0.01 40 80 74 0.9968167250925066
-0.42508779982076045 -0.49217570149963336 -0.29763105864526945 0.01 0.01 0.01 31 75 92 0.8961499474651884
-0.36692080122075255 -0.5223214777726374 -0.3316697583386685 0.01 0.01 0.01 24 69 111 0.8068758148016485
-0.30613825063922195 -0.5442463901899274 -0.3652021058302406 0.01 0.01 0.01 17 63 130 0.8444085380486761
-0.24397473365020483 -0.557689127045495 -0.39812211354851873 0.01 0.01 0.01 11 58 149 0.8061743375429873
-0.18169214567087305 -0.562577711398002 -0.43032476603092573 0.01 0.01 0.01 7 53 167 0.9083041549183812
-0.12055038666754453 -0.559032172281944 -0.46170640214044073 0.01 0.01 0.01 3 48 185 0.9619891099237945
-0.06177786113262801 -0.5473626543141462 -0.49216509521639595 0.01 0.01 0.01 1 43 201 0.8733441000333698
-0.006542496500089185 -0.5280629692272316 -0.5216010296095024 0.01 0.01 0.01 1 38 216 0.9976357179773312
0.04407601280821285 -0.5017997047762525 -0.5499168720574829 0.01 0.01 0.01 1 34 228 0.769407588818855
0.08911205210723494 -0.4693971165564509 -0.5770181363707603 0.01 0.01 0.01 3 30 239 0.9827849260572337
0.1277373811267717 -0.43181813375769107 -0.602813539917518 0.01 0.01 0.01 6 26 247 0.8068745607034719
0.15928129091825222 -0.3901419080758172 -0.6272153504240195 0.01 0.01 0.01 10 22 252 0.8825058121110386
0.18324710937751423 -0.34553842337668544 -0.65013972163927 0.01 0.01 0.01 15 19 254 0.8172004127896573
0.19932462721507468 -0.29924075996712496 -0.6715070164527894 0.01 0.01 0.01 22 16 254 0.7122540907699385
0.20739811294509541 -0.2525156694599185 -0.6912421161002739 0.01 0.01 0.01 29 13 251 0.855563977172684
0.20754969116028926 -0.20663316256110112 -0.7092747141440947 0.01 0.01 0.01 38 10 245 0.9587078130531153
0.20005797042928392 -0.1628358413795085 -0.7255395939736614 0.01 0.01 0.01 47 8 236 0.8310519526780434
0.1853919228327299 -0.12230871920577253 -0.7399768886344568 0.01 0.01 0.01 58 6 225 0.8147851015901454
0.1642001335717146 -0.08615026372423126 -0.752532321863738 0.01 0.01 0.01 68 4 212 0.7194947935781995
0.13729565332645557 -0.05534537436111001 -0.7631574292851979 0.01 0.01 0.01 80 3 197 0.9572070876795763
0.10563679524114007 -0.03074096145321477 -0.77180975879399 0.01 0.01 0.01 92 2 180 0.9542063347004532
0.07030431979894605 -0.013024735113035018 -0.778453049247071 0.01 0.01 0.01 104 1 162 0.7289035073818549
0.0324755418481095 -0.0027077364683282066 -0.7830573866614632 0.01 0.01 0.01 117 1 143 0.7192555832275919
-0.006604027687632672 -0.0001110551634953039 -0.785599337214398 0.01 0.01 0.01 130 1 124 0.8944461499099674
-0.045650829356404916 -0.005357076775699558 -0.7860620564339513 0.01 0.01 0.01 142 1 105 0.9667696409032596
-0.08337446881011767 -0.018365494569819018 -0.784435374066339 0.01 0.01 0.01 155 1 87 0.8485242171768321
-0.11850924389567705 -0.03885420448071738 -0.7807158542060407 0.01 0.01 0.01 167 2 69 0.981249670975558
-0.1498452216055654 -0.06634508322782152 -0.7749068303769463 0.01 0.01 0.01 179 3 53 0.7811637192780673
-0.1762581091415057 -0.10017452999343318 -0.7670184153562994 0.01 0.01 0.01 190 5 39 0.9614729166834826
-0.19673718990394046 -0.13950853511427264 -0.7570674856379044 0.01 0.01 0.01 201 6 26 0.8466779423059937
-0.21041063988924139 -0.18336192767521248 -0.7450776405363791 0.01 0.01 0.01 211 9 16 0.8533147585579514
-0.2165676017017847 -0.2306213505578488 -0.7310791360397383 0.01 0.01 0.01 220 11 8 0.9171922628914949
-0.21467647068185022 -0.2800714189887821 -0.7151087936227674 0.01 0.01 0.01 228 14 3 0.7707806573847658
-0.20439893862842753 -0.3304234392919313 -0.6972098843380706 0.01 0.01 0.01 236 17 1 0.7060044442753596
-0.18559944302434944 -0.3803460003887894 -0.6774319886048521 0.01 0.01 0.01 242 20 1 0.8336848973836031
-0.15834978102180478 -0.42849670324542277 -0.6558308322169574 0.01 0.01 0.01 247 23 5 0.8811301864554402
-0.12292876496120336 -0.47355426414999646 -0.6324680991910335 0.01 0.01 0.01 250 27 11 0.9780135954590473
-0.07981691695721276 -0.514250217182667 -0.6074112221723849 0.01 0.01 0.01 253 31 20 0.8202812351429155
-0.029686321087856318 -0.5493994498015909 -0.5807331512097873 0.01 0.01 0.01 254 35 31 0.8310744314353149
0.026614130048888882 -0.5779288329251836 -0.5525121018007796 0.01 0.01 0.01 254 40 44 0.7398210871357206
0.08807774513970713 -0.5989032525764476 -0.5228312831953268 0.01 0.01 0.01 253 44 59 0.8801268569358958
0.15356284707175913 -0.611548412945432 -0.4917786080279095 0.01 0.01 0.01 251 49 76 0.8962192455464881
0.2218188428525539 -0.6152698590650337 -0.45944638442563235 0.01 0.01 0.01 247 54 94 0.8678162800839133
0.29151492500542014 -0.6096677592358482 -0.4259309918125451 0.01 0.01 0.01 242 60 113 0.9186139588785251
0.36127071490302465 -0.5945470905879301 -0.39133254169768006 0.01 0.01 0.01 236 65 132 0.7393592702560758
0.4296881114925533 -0.5699229831572874 -0.35575452479607006 0.01 0.01 0.01 229 71 151 0.9150855570805274
0.49538358001754274 -0.5360210957903805 -0.3193034458879012 0.01 0.01 0.01 221 77 169 0.9083870989859377
0.5570201053549595 -0.4932730181309931 -0.28208844787076665 0.01 0.01 0.01 212 82 187 0.7233531974852281
0.6133380436892216 -0.44230681387813475 -0.24422092650348937 0.01 0.01 0.01 202 88 203 0.9865236764511816
0.6631841341842917 -0.3839329384225729 -0.20581413737696244 0.01 0.01 0.01 191 95 217 0.7921671438460748
0.7055379783643279 -0.31912587594510233 -0.16698279667781185 0.01 0.01 0.01 180 101 230 0.9530474810182126
0.7395353578924465 -0.2490019443181106 -0.12784267733420607 0.01 0.01 0.01 168 107 240 0.9444967027456086
0.7644878397422634 -0.17479380814473247 -0.08851020214980343 0.01 0.01 0.01 156 113 247 0.7962694030854521
0.7798982094030447 -0.09782231873709825 -0.04910203554152415 0.01 0.01 0.01 143 120 252 0.9879289658463126
0.7854713754311196 -0.01946636286286641 -0.009734675499522836 0.01 0.01 0.01 131 126 254 0.8242611895129475
0.7811204997717182 0.05886855184309073 0.029475952616526607 0.01 0.01 0.01 118 132 254 0.842211125300801
0.7669682250365303 0.13578221888711456 0.06841489884200679 0.01 0.01 0.01 105 139 250 0.9794207067166846
0.743342989410173 0.20991139709473028 0.1069685863481081 0.01 0.01 0.01 93 145 244 0.9943658971369502
0.7107705390926157 0.27996046121455476 0.14502520259906765 0.01 0.01 0.01 81 151 235 0.8643981055076244
0.6699608642015212 0.34473031124060133 0.18247508239784968 0.01 0.01 0.01 69 157 224 0.8414912402657431
0.6217908939884795 0.4031448585328958 0.2192110813304514 0.01 0.01 0.01 58 164 210 0.9061261291988262
0.5672833883619419 0.4542744691343904 0.25512893816356247 0.01 0.01 0.01 48 170 195 0.8355530010789403
0.5075825525864252 0.49735582190060323 0.2901276248010084 0.01 0.01 0.01 39 176 178 0.8090402026955013
0.4439269784665403 0.5318077291803724 0.32410968246102373 0.01 0.01 0.01 30 181 160 0.7002451743780591
0.37762057649896225 0.5572425685007322 0.35698154279862115 0.01 0.01 0.01 22 187 141 0.7198818610396057
0.31000220795234484 0.5734730824518257 0.38865383276492504 0.01 0.01 0.01 16 193 122 0.8938012264736792
0.24241475260924236 0.5805144179872249 0.41904166206794374 0.01 0.01 0.01 10 198 103 0.9052821723757614
0.17617435642096352 0.5785813927832184 0.44806489217655754 0.01 0.01 0.01 6 203 85 0.797582038417904
0.11254059349406946 0.5680810922270036 0.4756483858911462 0.01 0.01 0.01 3 208 68 0.9621111258863757
0.052688249016031204 0.5496010131492524 0.5017222365898554 0.01 0.01 0.01 1 213 51 0.7357823648853805
-0.0023186152432178504 0.5238930768066729 0.5262219763486673 0.01 0.01 0.01 1 218 37 0.8599395108710333
-0.0515497121020518 0.49185393125471644 0.5490887622257309 0.01 0.01 0.01 1 222 25 0.7360298022707282
-0.09422817122131873 0.4545020497683734 0.5702695400954283 0.01 0.01 0.01 3 226 15 0.873924997719816
-0.1297463343106351 0.4129522053064352 0.5897171855149771 0.01 0.01 0.01 6 230 7 0.7627284547332215
-0.1576773626311408 0.3683879594557661 0.6073906212055031 0.01 0.01 0.01 11 234 3 0.7739449010106895
-0.17778242112233952 0.32203284650972447 0.6232549108300848 0.01 0.01 0.01 16 237 1 0.8899203218924272
-0.19001331329328638 0.27512095842097045 0.6372813288527336 0.01 0.01 0.01 23 240 1 0.701526696828791
-0.19451055288385666 0.2288676438544996 0.6494474063642349 0.01 0.01 0.01 31 243 5 0.9901965216617232
-0.19159696941661167 0.18444102442997307 0.6597369528627363 0.01 0.01 0.01 39 245 12 0.9088601787541487
-0.1817670523650568 0.14293500390531785 0.6681400540784739 0.01 0.01 0.01 49 248 21 0.9897928905813611
-0.1656723401155402 0.10534440236706452 0.674653046032653 0.01 0.01 0.01 59 249 32 0.7113047708894294
-0.14410325273404448 0.07254278871151164 0.6792784656197323 0.01 0.01 0.01 70 251 46 0.9879916566336446
-0.11796784954380574 0.04526351244655999 0.682024978099821 0.01 0.01 0.01 82 252 61 0.972618238210456
-0.08826806174909455 0.02408435206171522 0.6829072819831143 0.01 0.01 0.01 94 253 78 0.8037992697676468
-0.05607400522070285 0.009416104118031215 0.6819459918808448 0.01 0.01 0.01 106 254 96 0.9301730034734741
-0.02249701788454136 0.0014953372259521004 0.6791674999867301 0.01 0.01 0.01 119 254 115 0.7354657879559541
0.011337910873297136 0.00038143077917483743 0.6746038169389326 0.01 0.01 0.01 132 254 134 0.7892538577609809
0.04431964513176462 0.0059579123482162745 0.6682923928947492 0.01 0.01 0.01 144 254 153 0.9525029500997335
0.07537767848103959 0.017938002670783243 0.6602759197282704 0.01 0.01 0.01 157 254 171 0.9244920208648928
0.10350754463942193 0.03587417581267158 0.6506021153347418 0.01 0.01 0.01 169 253 188 0.7763979036173019
0.12779426809308023 0.05917144679524749 0.6393234910940105 0.01 0.01 0.01 181 252 204 0.8673304062454658
0.14743331630810758 0.08710401209132239 0.6264971036089828 0.01 0.01 0.01 192 250 219 0.952659589676101
0.16174858366855008 0.11883479193698145 0.6121842918931469 0.01 0.01 0.01 203 248 231 0.7474425016753078
0.17020701652209294 0.1534373591586067 0.5964504012337354 0.01 0.01 0.01 213 246 241 0.843937782148932
0.1724295764407446 0.18991968860578945 0.5793644950037745 0.01 0.01 0.01 222 244 248 0.7792323789120543
0.1681983327154996 0.22724912538168793 0.5609990557369187 0.01 0.01 0.01 230 241 253 0.9141342566381868
0.15745957276588757 0.26437794955538746 0.5414296768134441 0.01 0.01 0.01 237 238 254 0.799961483921394
0.1403229180619632 0.30026891020986146 0.520734746133958 0.01 0.01 0.01 243 235 253 0.9342806647015933
0.11705653083677021 0.33392011240747344 0.4989951231791554 0.01 0.01 0.01 247 231 250 0.8432902412341649
0.08807859088921523 0.3643886664339147 0.4762938108692968 0.01 0.01 0.01 251 227 243 0.9530912051304345
0.053945309847617806 0.3908125486293362 0.45271562364590123 0.01 0.01 0.01 253 223 234 0.81450119314021
0.015335830276302946 0.4124301760053442 0.42834685320050747 0.01 0.01 0.01 254 219 222 0.9314014111330677
-0.02696557290778841 0.42859726114342583 0.4032749332712305 0.01 0.01 0.01 254 214 208 0.8900581668195672
-0.07208951267193695 0.43880058777498493 0.3775881049173175 0.01 0.01 0.01 253 210 193 0.9412805975458747
-0.11910320993642476 0.4426684289423174 0.3513750836650713 0.01 0.01 0.01 250 205 176 0.9441327912831035
-0.16703335957760143 0.43997741656177336 0.32472472989546514 0.01 0.01 0.01 246 200 158 0.7142141449891639
-0.21488957066084127 0.43065576128272265 0.29772572381468454 0.01 0.01 0.01 241 194 139 0.945087141819283
-0.2616878058505825 0.41478281244631615 0.27046624631386884 0.01 0.01 0.01 235 189 120 0.8882339382044683
-0.30647325587310326 0.3925850374036662 0.24303366698367254 0.01 0.01 0.01 228 183 101 0.840876582637315
-0.3483421095722969 0.36442858523971344 0.2155142405031948 0.01 0.01 0.01 219 177 83 0.784021674986999
-0.3864617176199514 0.3308086799864498 0.18799281257152697 0.01 0.01 0.01 210 172 66 0.8412999618338605
-0.42008869712999597 0.2923361608022436 0.16055253649397594 0.01 0.01 0.01 200 166 50 0.9936853215274501
-0.4485845838172761 0.2497215496782773 0.13327460147420303 0.01 0.01 0.01 189 159 36 0.8750488066533151
-0.47142870624097194 0.2037570796131828 0.10623797359838456 0.01 0.01 0.01 178 153 24 0.9303676408178323
-0.4882280312032027 0.1552971567776048 0.07951915042843613 0.01 0.01 0.01 166 147 14 0.8201687790595291
-0.49872380852627124 0.10523775819873331 0.053191930048630716 0.01 0.01 0.01 154 141 7 0.8860221114664866
-0.5027949251223928 0.054495281494134774 0.027327195334022267 0.01 0.01 0.01 141 134 2 0.8044238015330138
-0.5004579603917113 0.00398536507831195 0.0019927141303013726 0.01 0.01 0.01 129 128 1 0.7595367531080234
-0.4918640154657723 -0.04539781370569892 -0.022747044046540207 0.01 0.01 0.01 116 122 2 0.7476450485313327
-0.4772924656689679 -0.09280127835072213 -0.0468310742656382 0.01 0.01 0.01 103 115 6 0.9690454248018012
-0.4571418569507504 -0.1374315813780746 -0.07020198495162824 0.01 0.01 0.01 91 109 12 0.8021648790335175
-0.4319182312787657 -0.1785713165025955 -0.09280612881595732 0.01 0.01 0.01 79 103 22 0.900765846415647
-0.4022212216302619 -0.21559346425265738 -0.11459371568208035 0.01 0.01 0.01 68 97 34 0.9605387322478507
-0.3687283030821002 -0.24797328182222086 -0.1355189070248244 0.01 0.01 0.01 57 90 47 0.8989517549682274
-0.33217762166286674 -0.2752975148609967 -0.15553989213145186 0.01 0.01 0.01 46 84 63 0.729168127477027
-0.2933498464740917 -0.29727077964828236 -0.17461894587879273 0.01 0.01 0.01 37 79 80 0.8035592001812483
-0.2530495027967427 -0.31371903676875385 -0.1927224682067045 0.01 0.01 0.01 29 73 98 0.7937675399184999
-0.21208624446503238 -0.3245901501347613 -0.2098210054527398 0.01 0.01 0.01 21 67 117 0.9907934416203811
-0.17125651300192246 -0.3299515961459241 -0.22588925379584668 0.01 0.01 0.01 15 62 136 0.8698854642038484
-0.13132600944324754 -0.3299854552024342 -0.24090604513771785 0.01 0.01 0.01 10 56 155 0.7081879484855382
-0.09301337326504086 -0.32498088008911746 -0.254854315828807 0.01 0.01 0.01 5 51 173 0.9767715830627859
-0.05697542243996154 -0.31532429149291363 -0.26772105872153956 0.01 0.01 0.01 3 46 190 0.8829399753855649
-0.023794260650878155 -0.3014875988845226 -0.27949725910559686 0.01 0.01 0.01 1 41 206 0.7122468601795966
0.006033496489364853 -0.28401478419682125 -0.29017781514901897 0.01 0.01 0.01 1 37 220 0.8094889679342927
0.03210518317622728 -0.2635072154331159 -0.29976144353385775 0.01 0.01 0.01 1 32 232 0.9587087284218593
0.05411810189996346 -0.24060807706799167 -0.30825057103605485 0.01 0.01 0.01 4 28 242 0.940428712980626
0.07187303065678229 -0.215986313663847 -0.31565121285572784 0.01 0.01 0.01 7 24 249 0.8955932909168687
0.08527521376992302 -0.19032048258677514 -0.3219728385559513 0.01 0.01 0.01 12 21 253 0.939231058262823
0.0943328922558699 -0.16428290139449997 -0.327228226515193 0.01 0.01 0.01 17 18 254 0.7741953510978646
0.09915348737755693 -0.1385244559573344 -0.33143330784055186 0.01 0.01 0.01 24 15 253 0.9529557260468915
0.0999376040384514 -0.11366040745110495 -0.3346070007257698 0.01 0.01 0.01 32 12 249 0.8823523636539152
0.09697106780210543 -0.09025750101189584 -0.3367710362694189 0.01 0.01 0.01 41 9 242 0.7127647703558958
0.09061524957564907 -0.06882263720962495 -0.3379497767946428 0.01 0.01 0.01 51 7 233 0.8449599137673832
0.08129596458855338 -0.04979332084929606 -0.33817002773225896 0.01 0.01 0.01 61 5 221 0.7766418436069078
0.06949125667106802 -0.0335300513010194 -0.33746084414381444 0.01 0.01 0.01 72 4 207 0.8699366303180998
0.05571839466411229 -0.020310765996384816 -0.33585333297035885 0.01 0.01 0.01 84 2 191 0.9247478660576701
0.04052041498192115 -0.010327395322928333 -0.3333804520961973 0.01 0.01 0.01 96 1 174 0.8469867948850633
0.024452543036470497 -0.0036845342846652633 -0.33007680731477423 0.01 0.01 0.01 109 1 156 0.9710177761574565
0.008068816771304516 -0.00040018529473766863 -0.3259784482761667 0.01 0.01 0.01 121 1 137 0.7004763974697952
-0.008090781505844608 -0.0004084785480758328 -0.32112266448249793 0.01 0.01 0.01 134 1 118 0.7677435606477488
-0.023512402727723824 -0.0035642326823212066 -0.31554778237905323 0.01 0.01 0.01 147 1 99 0.916863345915355
-0.03771936575719379 -0.009649179817084316 -0.3092929645651092 0.01 0.01 0.01 159 1 81 0.9019613745284798
-0.05028193170445036 -0.018379646336188046 -0.30239801211964806 0.01 0.01 0.01 171 2 64 0.8580239574762756
-0.06082563919978015 -0.029415454530385785 -0.29490317100340147 0.01 0.01 0.01 183 4 48 0.9347913455082922
-0.06903806347557355 -0.04236979084016369 -0.28684894346026907 0.01 0.01 0.01 194 5 34 0.9136171749662612
-0.07467390520425889 -0.05681977412339004 -0.27827590529832247 0.01 0.01 0.01 204 7 22 0.9035980389403652
-0.0775583585350451 -0.07231745212003389 -0.26922452988357937 0.01 0.01 0.01 214 9 13 0.8878289620449973
-0.07758875054881666 -0.08840095590872268 -0.2597350196288157 0.01 0.01 0.01 223 12 6 0.7782347315231589
-0.07473448535414688 -0.1046055502871614 -0.24984714570513689 0.01 0.01 0.01 231 15 2 0.8228462456239867
-0.06903536432076796 -0.12047433214394129 -0.23960009664619825 0.01 0.01 0.01 238 18 1 0.8800106888833027
-0.06059838865056951 -0.135568348372006 -0.22903233645415683 0.01 0.01 0.01 243 21 2 0.9255686904624221
-0.04959318091660682 -0.14947592894238354 -0.21818147275299057 0.01 0.01 0.01 248 25 6 0.8672104091563243
-0.036246187803068514 -0.16182105856473314 -0.20708413546911686 0.01 0.01 0.01 251 28 13 0.7576205231698346
-0.020833846656395295 -0.1722706410063267 -0.19577586645159564 0.01 0.01 0.01 254 32 23 0.9843995240278984
-0.003674913373375703 -0.1805405426919558 -0.18429102037504363 0.01 0.01 0.01 254 37 35 0.9501632190982985
0.01487784147088823 -0.18640033573178214 -0.1726626771980428 0.01 0.01 0.01 254 41 49 0.839514593379806
0.03444635743723582 -0.18967669411554006 -0.16092256637870134 0.01 0.01 0.01 252 46 65 0.7462204530028276
0.054636220488155515 -0.1902554296127683 -0.1491010029775236 0.01 0.01 0.01 250 51 82 0.9372652740424271
0.07504560743450181 -0.18808218514473074 -0.13722683570619595 0.01 0.01 0.01 245 56 100 0.9021441068751768
0.09527404594496347 -0.18316183234939493 -0.1253274069097572 0.01 0.01 0.01 240 62 119 0.7755030617712674
0.11493081203053247 -0.1755566461567176 -0.11342852439920866 0.01 0.01 0.01 234 67 138 0.8142398350180403
0.13364280470056888 -0.16538335195433518 -0.10155444498233498 0.01 0.01 0.01 226 73 157 0.7250018130481343
0.15106175785233708 -0.15280916000374564 -0.08972786947273693 0.01 0.01 0.01 218 79 175 0.8350797262846531
0.1668706717040727 -0.13804691694050805 -0.07796994889112974 0.01 0.01 0.01 208 84 192 0.7920284448159892
0.18078936951146474 -0.12134951536006655 -0.06630030150923724 0.01 0.01 0.01 198 91 208 0.9089122721734707
0.19257910923637586 -0.10300370967446627 -0.05473704032541736 0.01 0.01 0.01 187 97 222 0.8828640978915155
0.2020462036200738 -0.08332348975643195 -0.04329681050279379 0.01 0.01 0.01 176 103 233 0.9642582520350023
0.20904462516194497 -0.06264316359747711 -0.03199483624550601 0.01 0.01 0.01 164 109 243 0.9886665816384296
0.213477594299344 -0.04131029661218517 -0.02084497653692427 0.01 0.01 0.01 152 115 249 0.8174014498100767
0.21529816918669434 -0.019678648706855567 -0.009859789115659774 0.01 0.01 0.01 139 122 253 0.912166486722913
0.21450887353334458 0.0018987587664063576 0.000949397978874057 0.01 0.01 0.01 126 128 254 0.7619113911125819
0.21116041472479807 0.023076325060173722 0.011572407999496354 0.01 0.01 0.01 114 134 253 0.8329727175804401
0.2053495577602134 0.04352219251804484 0.022000130966521654 0.01 0.01 0.01 101 141 248 0.9123201127300835
0.19721623132236862 0.062924114519198 0.032224433799845145 0.01 0.01 0.01 89 147 241 0.7463602738941351
0.18693995057307547 0.08099478808335557 0.04223806590865537 0.01 0.01 0.01 77 153 231 0.7276744690481111
0.17473564713434012 0.09747658468072286 0.05203456106095846 0.01 0.01 0.01 66 159 219 0.9835788931091993
0.160849000338 0.11214562691696343 0.061608136371540306 0.01 0.01 0.01 55 166 205 0.7948580554512905
0.14555136542391003 0.12481517234947252 0.07095358925838074 0.01 0.01 0.01 45 172 189 0.7467750826262392
0.12913439419975797 0.13533827848006216 0.08006619322388585 0.01 0.01 0.01 36 177 172 0.7336625380800286
0.11190444203154479 0.14360973477075156 0.08894159331853288 0.01 0.01 0.01 27 183 154 0.9022369882090037
0.09417685221128583 0.1495672582234379 0.09757570214067178 0.01 0.01 0.01 20 189 135 0.9602913120289388
0.07627020504321823 0.15319195859821327 0.10596459721733545 0.01 0.01 0.01 14 194 116 0.9630156573907123
0.05850061468089081 0.1545080877294684 0.11410442059698774 0.01 0.01 0.01 9 200 97 0.8715200368475657
0.04117615208533158 0.15358209470031445 0.12199128146634752 0.01 0.01 0.01 5 205 79 0.757936744374227
0.0245914676708377 0.1505210149675047 0.12962116257980302 0.01 0.01 0.01 2 210 62 0.8674373380527565
0.00902268242479791 0.14547022704016233 0.13698983126166303 0.01 0.01 0.01 1 214 46 0.9957866373772358
-0.005277388355620927 0.1386106151790115 0.14409275570873611 0.01 0.01 0.01 1 219 33 0.8244082189196131
-0.01808361901562365 0.13015518098214038 0.15092502728363494 0.01 0.01 0.01 2 223 21 0.7299407526245713
-0.02920250973917919 0.12034515084011724 0.15748128944804418 0.01 0.01 0.01 4 227 12 0.9351845340189943
-0.038475623643593984 0.10944563024441785 0.16375567394013474 0.01 0.01 0.01 8 231 5 0.747058284087673
-0.045782477467668545 0.09774085995924374 0.1697417447516475 0.01 0.01 0.01 12 235 2 0.72809009264294
-0.05104284266576991 0.08552913322217434 0.17543245040817304 0.01 0.01 0.01 18 238 1 0.9698274643862776
-0.054218418073887484 0.07311743748345706 0.18082008500108218 0.01 0.01 0.01 25 241 2 0.8590038542334281
-0.055313840083270185 0.06081588873612412 0.18589625836176626 0.01 0.01 0.01 34 244 7 0.7516091432109698
-0.0543770016266337 0.0489320311846619 0.19065187570860406 0.01 0.01 0.01 43 246 14 0.958806550910425
-0.05149865742765052 0.03776507974879988 0.195077127034746 0.01 0.01 0.01 52 248 24 0.880656634780912
-0.04681130004227188 0.02760018754846203 0.19916148644073467 0.01 0.01 0.01 63 250 36 0.7619785554514084
-0.04048729935320759 0.018702824865267954 0.20289372155050717 0.01 0.01 0.01 74 252 51 0.718841385504513
-0.03273630744514078 0.01131335988340816 0.20626191308283573 0.01 0.01 0.01 86 253 67 0.7154372545868914
-0.023801941212567092 0.0056419345054208436 0.20925348458310147 0.01 0.01 0.01 98 254 84 0.9252628690597606
-0.013957766597487774 0.0018637304238077505 0.21185524225285587 0.01 0.01 0.01 111 254 102 0.9789713873927313
-0.0035026209166750706 0.00011472110869593818 0.21405342474727174 0.01 0.01 0.01 123 254 121 0.8868088039306549
0.00724467685526802 0.00048800415398587624 0.21583376274369026 0.01 0.01 0.01 136 254 140 0.960311557062727
0.017951163972441644 0.0030308052414701136 0.21718154801842304 0.01 0.01 0.01 149 254 159 0.7286278536395959
0.028276041796315713 0.007742239603816922 0.2180817117041147 0.01 0.01 0.01 161 253 177 0.7330961781009409
0.03787736125825793 0.01457190911440173 0.21851891133670187 0.01 0.01 0.01 173 252 194 0.9830222151746888
0.04641897975496465 0.023419402890926016 0.2184776262396481 0.01 0.01 0.01 185 251 209 0.7155400179573896
0.053577670524955524 0.03413475653277291 0.217942260734067 0.01 0.01 0.01 196 249 223 0.8608726095462801
0.0590502541723867 0.04651990986635334 0.21689725460687215 0.01 0.01 0.01 206 247 234 0.9007377432698463
0.0625606125257717 0.060331185486710404 0.21532720021556295 0.01 0.01 0.01 216 245 243 0.9077603956066629
0.06386643791791513 0.07528279069023718 0.21321696555796485 0.01 0.01 0.01 224 243 250 0.7729135924213527
0.06276556669505913 0.09105132391963013 0.2105518225884697 0.01 0.01 0.01 232 240 254 0.8901139351596099
0.05910174470668653 0.1072812440057589 0.20731758001937883 0.01 0.01 0.01 239 237 254 0.7157963863818164
0.05276967502672777 0.12359123679318568 0.20350071980704054 0.01 0.01 0.01 244 233 252 0.945068066024719
0.043719204464826404 0.1395813897504838 0.19908853648787597 0.01 0.01 0.01 249 230 248 0.8317270526701512
0.03195851569945099 0.1548410615263799 0.1940692784992868 0.01 0.01 0.01 252 226 240 0.7664878742000202
0.01755620615101047 0.1689573107935171 0.18843229059502323 0.01 0.01 0.01 254 222 230 0.9795494658487004
0.0006421529428406865 0.18152372782198214 0.18216815644405013 0.01 0.01 0.01 254 217 218 0.9573075277885432
-0.018592914723030363 0.19214949374580453 0.17526884048638633 0.01 0.01 0.01 254 213 203 0.8599728265231221
-0.03989918904015456 0.2004684771083614 0.16772782810895007 0.01 0.01 0.01 252 208 187 0.7111025288965309
-0.06297092779387811 0.20614816563530347 0.159540263199205 0.01 0.01 0.01 249 203 170 0.8308276480656724
-0.08745096333690514 0.20889822385881926 0.15070308213439215 0.01 0.01 0.01 245 198 152 0.7555822439860359
-0.11293653783679457 0.2084784646899719 0.14121514326945897 0.01 0.01 0.01 239 192 133 0.9997802121440997
-0.1389863927385858 0.2047060256840257 0.13107735099736598 0.01 0.01 0.01 233 187 114 0.911339861610341
-0.16512900669371613 0.19746154881921044 0.12029277347133659 0.01 0.01 0.01 225 181 95 0.8546482864205965
-0.1908718432691903 0.18669417622403287 0.10886675309970241 0.01 0.01 0.01 216 175 77 0.939307628600567
-0.21571143849747482 0.17242519340240645 0.09680700895021833 0.01 0.01 0.01 207 170 60 0.9496373737441963
-0.23914412969199192 0.15475017592141985 0.08412373023201637 0.01 0.01 0.01 196 163 45 0.7921904202838667
-0.2606772018479146 0.13383952488437603 0.07082966005952733 0.01 0.01 0.01 186 157 31 0.9155993416463238
-0.2798402072353772 0.10993731029407272 0.056940168743643 0.01 0.01 0.01 174 151 20 0.8875946811211571
-0.2961961982569268 0.08335837894888562 0.0424733159008949 0.01 0.01 0.01 162 145 11 0.8381339532423626
-0.3093526039631157 0.0544837239983427 0.02744990072126148 0.01 0.01 0.01 150 139 5 0.9089532318951605
-0.31897147735044235 0.02375415578440571 0.011893499789232827 0.01 0.01 0.01 137 132 1 0.804812456118204
-0.32477884410421987 -0.00833764292331983 -0.004169508089409479 0.01 0.01 0.01 124 126 1 0.7334385373723646
-0.326572894025513 -0.04125655083467106 -0.020709930541160805 0.01 0.01 0.01 112 120 3 0.7853773938143304
-0.3242307740425696 -0.07443576265273845 -0.03769576418001087 0.01 0.01 0.01 99 113 8 0.8902047734305473
-0.3177137663065554 -0.10728865604513489 -0.05509221141787697 0.01 0.01 0.01 87 107 15 0.8658601830817035
-0.30707066606519084 -0.13922152692658513 -0.07286171181337452 0.01 0.01 0.01 75 101 26 0.7122041339021019
-0.29243921125662864 -0.16964691763681142 -0.09096398816934911 0.01 0.01 0.01 64 95 38 0.8844461387813642
-0.274045458341827 -0.19799723708226688 -0.10935610751489237 0.01 0.01 0.01 53 88 52 0.7089575285959405
-0.25220104589334014 -0.22373835306270196 -0.12799255703129384 0.01 0.01 0.01 43 82 69 0.8215148342083208
-0.22729833782142056 -0.2463828255925962 -0.14682533490393698 0.01 0.01 0.01 34 77 86 0.7809039273477967
-0.19980349065069863 -0.2655024466501778 -0.165804056003828 0.01 0.01 0.01 26 71 104 0.8937940632987831
-0.170247542663221 -0.28073975684583474 -0.18487607222378655 0.01 0.01 0.01 19 65 123 0.9877405612408823
-0.1392156756241818 -0.29181822318644574 -0.2039866072155846 0.01 0.01 0.01 13 60 142 0.842698861002702
-0.10733485079545484 -0.29855078438619653 -0.22307890519599927 0.01 0.01 0.01 8 54 161 0.92223724593964
-0.07526006860919908 -0.30084650076820363 -0.24209439341221664 0.01 0.01 0.01 4 49 179 0.9563907590313125
-0.04365954434874397 -0.2987150842115928 -0.2609728577806487 0.01 0.01 0.01 2 44 196 0.8005572035367247
-0.013199129173581342 -0.2922691290946452 -0.27965263113848665 0.01 0.01 0.01 1 40 211 0.8140484009563279
0.01547366434687239 -0.281723916819906 -0.29807079347451326 0.01 0.01 0.01 1 35 224 0.9180497286626043
