COFF
900 300 0
0.02 0.0 0.5
-0.009999999999999995 0.017320508075688773 0.5
-0.010000000000000009 -0.01732050807568877 0.5
0.04516309779894418 0.0025247311663111867 0.5053672322677387
0.015163097798944185 0.01984523924199996 0.5053672322677387
0.015163097798944172 -0.014795776909377584 0.5053672322677387
0.07009550516989786 0.010154861631814881 0.5094389488637318
0.04009550516989786 0.027475369707503652 0.5094389488637318
0.04009550516989785 -0.0071656464438738885 0.5094389488637318
0.09395005545368644 0.022875432812467032 0.5121727415652344
0.06395005545368644 0.040195940888155805 0.5121727415652344
0.06395005545368643 0.005554924736778263 0.5121727415652344
0.11588028040376554 0.04053753236542553 0.5135298051118999
0.08588028040376554 0.057858040441114304 0.5135298051118999
0.08588028040376552 0.02321702428973676 0.5135298051118999
0.1350613717603586 0.0628583138775259 0.5134751621026001
0.1050613717603586 0.08017882195321467 0.5134751621026001
0.10506137176035858 0.045537805801837125 0.5134751621026001
0.15071113831289704 0.0894243009800949 0.5119778765078649
0.12071113831289705 0.10674480905578368 0.5119778765078649
0.12071113831289704 0.07210379290440613 0.5119778765078649
0.16211044111821027 0.11969797329635118 0.5090112546724482
0.1321104411182103 0.13701848137203995 0.5090112546724482
0.13211044111821027 0.1023774652206624 0.5090112546724482
0.16862259047734987 0.15302754960418571 0.5045530327255049
0.13862259047734987 0.1703480576798745 0.5045530327255049
0.13862259047734987 0.13570704152849694 0.5045530327255049
0.16971120230482473 0.18865980184376618 0.4985855493643542
0.13971120230482476 0.20598030991945496 0.4985855493643542
0.13971120230482473 0.1713392937680774 0.4985855493643542
0.16495603858088745 0.22575565422124813 0.4910959030316391
0.13495603858088745 0.2430761622969369 0.4910959030316391
0.13495603858088745 0.20843514614555936 0.4910959030316391
0.15406639625030644 0.26340824674531416 0.4820760925646261
0.12406639625030645 0.2807287548210029 0.4820760925646261
0.12406639625030644 0.24608773866962538 0.4820760925646261
0.13689166047298137 0.30066307409861814 0.4715231404592045
0.10689166047298138 0.3179835821743069 0.4715231404592045
0.10689166047298136 0.2833425660229294 0.4715231404592045
0.11342870047213588 0.3365397506811477 0.4594391979595463
0.08342870047213588 0.35386025875683647 0.4594391979595463
0.08342870047213587 0.319219242605459 0.4594391979595463
0.08382585799186894 0.37005490267778063 0.4458316312571043
0.05382585799186894 0.3873754107534694 0.4458316312571043
0.053825857991868925 0.3527343946020919 0.4458316312571043
0.048383357922870664 0.40024564958128284 0.4307130881593284
0.018383357922870668 0.4175661576569716 0.4307130881593284
0.018383357922870654 0.3829251415055941 0.4307130881593284
0.007550056104533997 0.42619311195739185 0.41410154466883603
-0.022449943895466 0.4435136200330806 0.41410154466883603
-0.022449943895466014 0.4088726038817031 0.41410154466883603
-0.03808347140403891 0.4470453702755401 0.3960203309974299
-0.0680834714040389 0.4643658783512289 0.3960203309974299
-0.06808347140403892 0.42972486219985134 0.3960203309974299
-0.08779540237834266 0.4620393019154009 0.37649813662594256
-0.11779540237834266 0.4793598099910896 0.37649813662594256
-0.11779540237834267 0.44471879383971213 0.37649813662594256
-0.14074652034874713 0.4705207402059175 0.35556899411000303
-0.1707465203487471 0.48784124828160624 0.35556899411000303
-0.17074652034874713 0.45320023213022875 0.35556899411000303
-0.19599717164692662 0.4719624304002753 0.33327224142308365
-0.22599717164692662 0.48928293847596405 0.33327224142308365
-0.22599717164692662 0.45464192232458656 0.33327224142308365
-0.25252697280899483 0.4659793023056905 0.3096524627211602
-0.28252697280899486 0.48329981038137926 0.3096524627211602
-0.28252697280899486 0.44865879423000177 0.3096524627211602
-0.30925683896926437 0.45234063697478566 0.28475940750759543
-0.3392568389692644 0.4696611450504744 0.28475940750759543
-0.3392568389692644 0.4350201288990969 0.28475940750759543
-0.36507283874284835 0.4309787741822833 0.258647888271992
-0.3950728387428484 0.4482992822579721 0.258647888271992
-0.3950728387428484 0.41365826610659456 0.258647888271992
-0.41885132723881957 0.4019940867929004 0.23137765677232708
-0.4488513272388196 0.41931459486858913 0.23137765677232708
-0.4488513272388196 0.38467357871721164 0.23137765677232708
-0.46948476782623744 0.36565603572488825 0.20301325922522476
-0.49948476782623746 0.382976543800577 0.20301325922522476
-0.49948476782623746 0.3483355276491995 0.20301325922522476
-0.5159076263458137 0.3224002129386134 0.17362387076430058
-0.5459076263458137 0.3397207210143022 0.17362387076430058
-0.5459076263458137 0.3050797048629246 0.17362387076430058
-0.557121709530701 0.2728213774503401 0.14328310962069393
-0.587121709530701 0.2901418855260288 0.14328310962069393
-0.587121709530701 0.25550086937465133 0.14328310962069393
-0.5922203230099715 0.2176625883731635 0.11206883157271672
-0.6222203230099715 0.23498309644885226 0.11206883157271672
-0.6222203230099715 0.20034208029747472 0.11206883157271672
-0.6204106435660832 0.15780063693174096 0.08006290530259139
-0.6504106435660832 0.17512114500742973 0.08006290530259139
-0.6504106435660832 0.14048012885605218 0.08006290530259139
-0.641033735051061 0.09422807378700682 0.04735096938706001
-0.671033735051061 0.11154858186269559 0.04735096938706001
-0.671033735051061 0.07690756571131804 0.04735096938706001
-0.6535816868836976 0.028032216398248797 0.014022171734820841
-0.6835816868836976 0.04535272447393757 0.014022171734820841
-0.6835816868836976 0.010711708322560028 0.014022171734820841
-0.6577114173122188 -0.03962839878150945 -0.019831107633131163
-0.6877114173122189 -0.022307890705820677 -0.019831107633131163
-0.6877114173122189 -0.05694890685719822 -0.019831107633131163
-0.6532547592273904 -0.10754958487845476 -0.054113549484524515
-0.6832547592273904 -0.09022907680276598 -0.054113549484524515
-0.6832547592273904 -0.12487009295414353 -0.054113549484524515
-0.6402245325088494 -0.174508502309384 -0.08872720290662646
-0.6702245325088494 -0.15718799423369523 -0.08872720290662646
-0.6702245325088494 -0.19182901038507277 -0.08872720290662646
-0.6188164016471533 -0.23929145075480887 -0.12357180634367301
-0.6488164016471534 -0.2219709426791201 -0.12357180634367301
-0.6488164016471534 -0.25661195883049764 -0.12357180634367301
-0.589406418424814 -0.300721792531905 -0.1585451209506734
-0.619406418424814 -0.28340128445621626 -0.1585451209506734
-0.619406418424814 -0.31804230060759375 -0.1585451209506734
-0.55254425429118 -0.35768733268548364 -0.19354327501117222
-0.5825442542911801 -0.34036682460979484 -0.19354327501117222
-0.5825442542911801 -0.3750078407611724 -0.19354327501117222
-0.5089422331301191 -0.40916648596212823 -0.22846111810958253
-0.5389422331301191 -0.3918459778864395 -0.22846111810958253
-0.5389422331301191 -0.426486994037817 -0.22846111810958253
-0.459460379735354 -0.4542525824288984 -0.263192583697201
-0.489460379735354 -0.4369320743532096 -0.263192583697201
-0.489460379735354 -0.4715730905045871 -0.263192583697201
-0.40508779982076043 -0.49217570149963336 -0.29763105864526945
-0.43508779982076046 -0.47485519342394455 -0.29763105864526945
-0.43508779982076046 -0.5094962095753222 -0.29763105864526945
-0.34692080122075253 -0.5223214777726374 -0.3316697583386685
-0.37692080122075255 -0.5050009696969486 -0.3316697583386685
-0.37692080122075255 -0.5396419858483261 -0.3316697583386685
-0.28613825063922194 -0.5442463901899274 -0.3652021058302406
-0.31613825063922196 -0.5269258821142386 -0.3652021058302406
-0.31613825063922196 -0.5615668982656161 -0.3652021058302406
-0.22397473365020484 -0.557689127045495 -0.39812211354851873
-0.25397473365020484 -0.5403686189698063 -0.39812211354851873
-0.25397473365020484 -0.5750096351211837 -0.39812211354851873
-0.16169214567087306 -0.562577711398002 -0.43032476603092573
-0.19169214567087306 -0.5452572033223132 -0.43032476603092573
-0.19169214567087306 -0.5798982194736907 -0.43032476603092573
-0.10055038666754453 -0.559032172281944 -0.46170640214044073
-0.13055038666754454 -0.5417116642062553 -0.46170640214044073
-0.13055038666754454 -0.5763526803576328 -0.46170640214044073
-0.041777861132628005 -0.5473626543141462 -0.49216509521639595
-0.071777861132628 -0.5300421462384575 -0.49216509521639595
-0.07177786113262802 -0.564683162389835 -0.49216509521639595
0.013457503499910815 -0.5280629692272316 -0.5216010296095024
-0.016542496500089182 -0.5107424611515429 -0.5216010296095024
-0.016542496500089196 -0.5453834773029204 -0.5216010296095024
0.06407601280821285 -0.5017997047762525 -0.5499168720574829
0.034076012808212854 -0.4844791967005637 -0.5499168720574829
0.03407601280821284 -0.5191202128519412 -0.5499168720574829
0.10911205210723494 -0.4693971165564509 -0.5770181363707603
0.07911205210723495 -0.45207660848076214 -0.5770181363707603
0.07911205210723493 -0.48671762463213963 -0.5770181363707603
0.14773738112677168 -0.43181813375769107 -0.602813539917518
0.11773738112677169 -0.4144976256820023 -0.602813539917518
0.11773738112677168 -0.4491386418333798 -0.602813539917518
0.1792812909182522 -0.3901419080758172 -0.6272153504240195
0.1492812909182522 -0.3728214000001284 -0.6272153504240195
0.1492812909182522 -0.40746241615150597 -0.6272153504240195
0.20324710937751422 -0.34553842337668544 -0.65013972163927
0.17324710937751425 -0.32821791530099664 -0.65013972163927
0.17324710937751422 -0.3628589314523742 -0.65013972163927
0.21932462721507467 -0.29924075996712496 -0.6715070164527894
0.1893246272150747 -0.2819202518914362 -0.6715070164527894
0.18932462721507468 -0.3165612680428137 -0.6715070164527894
0.2273981129450954 -0.2525156694599185 -0.6912421161002739
0.1973981129450954 -0.23519516138422972 -0.6912421161002739
0.1973981129450954 -0.26983617753560724 -0.6912421161002739
0.22754969116028925 -0.20663316256110112 -0.7092747141440947
0.19754969116028925 -0.18931265448541235 -0.7092747141440947
0.19754969116028925 -0.2239536706367899 -0.7092747141440947
0.2200579704292839 -0.1628358413795085 -0.7255395939736614
0.1900579704292839 -0.14551533330381972 -0.7255395939736614
0.1900579704292839 -0.18015634945519726 -0.7255395939736614
0.2053919228327299 -0.12230871920577253 -0.7399768886344568
0.17539192283272992 -0.10498821113008376 -0.7399768886344568
0.1753919228327299 -0.1396292272814613 -0.7399768886344568
0.18420013357171458 -0.08615026372423126 -0.752532321863738
0.15420013357171458 -0.06882975564854249 -0.752532321863738
0.15420013357171458 -0.10347077179992004 -0.752532321863738
0.15729565332645556 -0.05534537436111001 -0.7631574292851979
0.1272956533264556 -0.03802486628542124 -0.7631574292851979
0.12729565332645557 -0.07266588243679878 -0.7631574292851979
0.12563679524114008 -0.03074096145321477 -0.77180975879399
0.09563679524114008 -0.013420453377525995 -0.77180975879399
0.09563679524114006 -0.04806146952890354 -0.77180975879399
0.09030431979894606 -0.013024735113035018 -0.778453049247071
0.06030431979894606 0.004295772962653755 -0.778453049247071
0.06030431979894604 -0.030345243188723788 -0.778453049247071
0.0524755418481095 -0.0027077364683282066 -0.7830573866614632
0.022475541848109508 0.014612771607360566 -0.7830573866614632
0.022475541848109494 -0.020028244544016978 -0.7830573866614632
0.013395972312367329 -0.0001110551634953039 -0.785599337214398
-0.016604027687632666 0.01720945291219347 -0.785599337214398
-0.01660402768763268 -0.017431563239184072 -0.785599337214398
-0.025650829356404916 -0.005357076775699558 -0.7860620564339513
-0.05565082935640491 0.011963431299989214 -0.7860620564339513
-0.055650829356404925 -0.02267758485138833 -0.7860620564339513
-0.06337446881011767 -0.018365494569819018 -0.784435374066339
-0.09337446881011767 -0.0010449864941302449 -0.784435374066339
-0.09337446881011768 -0.03568600264550779 -0.784435374066339
-0.09850924389567704 -0.03885420448071738 -0.7807158542060407
-0.12850924389567703 -0.021533696405028606 -0.7807158542060407
-0.12850924389567706 -0.056174712556406145 -0.7807158542060407
-0.12984522160556541 -0.06634508322782152 -0.7749068303769463
-0.1598452216055654 -0.04902457515213275 -0.7749068303769463
-0.1598452216055654 -0.0836655913035103 -0.7749068303769463
-0.1562581091415057 -0.10017452999343318 -0.7670184153562994
-0.1862581091415057 -0.08285402191774441 -0.7670184153562994
-0.1862581091415057 -0.11749503806912195 -0.7670184153562994
-0.17673718990394047 -0.13950853511427264 -0.7570674856379044
-0.20673718990394047 -0.12218802703858386 -0.7570674856379044
-0.20673718990394047 -0.1568290431899614 -0.7570674856379044
-0.1904106398892414 -0.18336192767521248 -0.7450776405363791
-0.22041063988924137 -0.1660414195995237 -0.7450776405363791
-0.2204106398892414 -0.20068243575090125 -0.7450776405363791
-0.19656760170178472 -0.2306213505578488 -0.7310791360397383
-0.2265676017017847 -0.21330084248216002 -0.7310791360397383
-0.22656760170178472 -0.24794185863353757 -0.7310791360397383
-0.19467647068185023 -0.2800714189887821 -0.7151087936227674
-0.2246764706818502 -0.2627509109130933 -0.7151087936227674
-0.22467647068185023 -0.2973919270644708 -0.7151087936227674
-0.18439893862842754 -0.3304234392919313 -0.6972098843380706
-0.21439893862842752 -0.31310293121624255 -0.6972098843380706
-0.21439893862842754 -0.34774394736762004 -0.6972098843380706
-0.16559944302434945 -0.3803460003887894 -0.6774319886048521
-0.19559944302434945 -0.36302549231310066 -0.6774319886048521
-0.19559944302434945 -0.39766650846447815 -0.6774319886048521
-0.13834978102180479 -0.42849670324542277 -0.6558308322169574
-0.16834978102180476 -0.411176195169734 -0.6558308322169574
-0.16834978102180478 -0.4458172113211115 -0.6558308322169574
-0.10292876496120336 -0.47355426414999646 -0.6324680991910335
-0.13292876496120337 -0.4562337560743077 -0.6324680991910335
-0.13292876496120337 -0.4908747722256852 -0.6324680991910335
-0.05981691695721275 -0.514250217182667 -0.6074112221723849
-0.08981691695721275 -0.4969297091069782 -0.6074112221723849
-0.08981691695721276 -0.5315707252583557 -0.6074112221723849
-0.009686321087856317 -0.5493994498015909 -0.5807331512097873
-0.039686321087856316 -0.5320789417259022 -0.5807331512097873
-0.03968632108785633 -0.5667199578772797 -0.5807331512097873
0.04661413004888888 -0.5779288329251836 -0.5525121018007796
0.016614130048888887 -0.5606083248494949 -0.5525121018007796
0.016614130048888873 -0.5952493410008723 -0.5525121018007796
0.10807774513970714 -0.5989032525764476 -0.5228312831953268
0.07807774513970714 -0.5815827445007589 -0.5228312831953268
0.07807774513970712 -0.6162237606521364 -0.5228312831953268
0.17356284707175912 -0.611548412945432 -0.4917786080279095
0.14356284707175915 -0.5942279048697433 -0.4917786080279095
0.14356284707175912 -0.6288689210211208 -0.4917786080279095
0.2418188428525539 -0.6152698590650337 -0.45944638442563235
0.21181884285255392 -0.597949350989345 -0.45944638442563235
0.2118188428525539 -0.6325903671407225 -0.45944638442563235
0.31151492500542016 -0.6096677592358482 -0.4259309918125451
0.28151492500542014 -0.5923472511601594 -0.4259309918125451
0.28151492500542014 -0.6269882673115369 -0.4259309918125451
0.38127071490302467 -0.5945470905879301 -0.39133254169768006
0.35127071490302464 -0.5772265825122413 -0.39133254169768006
0.35127071490302464 -0.6118675986636188 -0.39133254169768006
0.44968811149255333 -0.5699229831572874 -0.35575452479607006
0.4196881114925533 -0.5526024750815987 -0.35575452479607006
0.4196881114925533 -0.5872434912329761 -0.35575452479607006
0.5153835800175427 -0.5360210957903805 -0.3193034458879012
0.4853835800175427 -0.5187005877146917 -0.3193034458879012
0.4853835800175427 -0.5533416038660692 -0.3193034458879012
0.5770201053549595 -0.4932730181309931 -0.28208844787076665
0.5470201053549595 -0.47595251005530437 -0.28208844787076665
0.5470201053549595 -0.5105935262066819 -0.28208844787076665
0.6333380436892216 -0.44230681387813475 -0.24422092650348937
0.6033380436892216 -0.424986305802446 -0.24422092650348937
0.6033380436892216 -0.4596273219538235 -0.24422092650348937
0.6831841341842917 -0.3839329384225729 -0.20581413737696244
0.6531841341842917 -0.3666124303468842 -0.20581413737696244
0.6531841341842917 -0.40125344649826167 -0.20581413737696244
0.7255379783643279 -0.31912587594510233 -0.16698279667781185
0.6955379783643278 -0.3018053678694136 -0.16698279667781185
0.6955379783643278 -0.3364463840207911 -0.16698279667781185
0.7595353578924465 -0.2490019443181106 -0.12784267733420607
0.7295353578924465 -0.23168143624242182 -0.12784267733420607
0.7295353578924465 -0.26632245239379937 -0.12784267733420607
0.7844878397422634 -0.17479380814473247 -0.08851020214980343
0.7544878397422634 -0.1574733000690437 -0.08851020214980343
0.7544878397422634 -0.19211431622042124 -0.08851020214980343
0.7998982094030447 -0.09782231873709825 -0.04910203554152415
0.7698982094030447 -0.08050181066140948 -0.04910203554152415
0.7698982094030447 -0.11514282681278702 -0.04910203554152415
0.8054713754311196 -0.01946636286286641 -0.009734675499522836
0.7754713754311195 -0.002145854787177638 -0.009734675499522836
0.7754713754311195 -0.03678687093855518 -0.009734675499522836
0.8011204997717182 0.05886855184309073 0.029475952616526607
0.7711204997717181 0.0761890599187795 0.029475952616526607
0.7711204997717181 0.041548043767401954 0.029475952616526607
0.7869682250365303 0.13578221888711456 0.06841489884200679
0.7569682250365303 0.15310272696280333 0.06841489884200679
0.7569682250365303 0.11846171081142579 0.06841489884200679
0.763342989410173 0.20991139709473028 0.1069685863481081
0.733342989410173 0.22723190517041905 0.1069685863481081
0.733342989410173 0.1925908890190415 0.1069685863481081
0.7307705390926157 0.27996046121455476 0.14502520259906765
0.7007705390926157 0.2972809692902435 0.14502520259906765
0.7007705390926157 0.262639953138866 0.14502520259906765
0.6899608642015213 0.34473031124060133 0.18247508239784968
0.6599608642015212 0.36205081931629013 0.18247508239784968
0.6599608642015212 0.3274098031649126 0.18247508239784968
0.6417908939884795 0.4031448585328958 0.2192110813304514
0.6117908939884795 0.4204653666085846 0.2192110813304514
0.6117908939884795 0.38582435045720703 0.2192110813304514
0.5872833883619419 0.4542744691343904 0.25512893816356247
0.5572833883619419 0.47159497721007915 0.25512893816356247
0.5572833883619419 0.43695396105870166 0.25512893816356247
0.5275825525864252 0.49735582190060323 0.2901276248010084
0.49758255258642514 0.514676329976292 0.2901276248010084
0.49758255258642514 0.4800353138249145 0.2901276248010084
0.4639269784665403 0.5318077291803724 0.32410968246102373
0.43392697846654027 0.5491282372560612 0.32410968246102373
0.43392697846654027 0.5144872211046837 0.32410968246102373
0.39762057649896226 0.5572425685007322 0.35698154279862115
0.36762057649896224 0.5745630765764209 0.35698154279862115
0.36762057649896224 0.5399220604250434 0.35698154279862115
0.33000220795234486 0.5734730824518257 0.38865383276492504
0.30000220795234483 0.5907935905275145 0.38865383276492504
0.30000220795234483 0.556152574376137 0.38865383276492504
0.26241475260924235 0.5805144179872249 0.41904166206794374
0.23241475260924238 0.5978349260629137 0.41904166206794374
0.23241475260924235 0.5631939099115362 0.41904166206794374
0.1961743564209635 0.5785813927832184 0.44806489217655754
0.1661743564209635 0.5959019008589072 0.44806489217655754
0.1661743564209635 0.5612608847075297 0.44806489217655754
0.13254059349406946 0.5680810922270036 0.4756483858911462
0.10254059349406947 0.5854016003026924 0.4756483858911462
0.10254059349406945 0.5507605841513149 0.4756483858911462
0.0726882490160312 0.5496010131492524 0.5017222365898554
0.04268824901603121 0.5669215212249411 0.5017222365898554
0.042688249016031195 0.5322805050735636 0.5017222365898554
0.01768138475678215 0.5238930768066729 0.5262219763486673
-0.012318615243217845 0.5412135848823616 0.5262219763486673
-0.012318615243217859 0.5065725687309841 0.5262219763486673
-0.031549712102051805 0.49185393125471644 0.5490887622257309
-0.0615497121020518 0.5091744393304052 0.5490887622257309
-0.06154971210205181 0.4745334231790277 0.5490887622257309
-0.07422817122131872 0.4545020497683734 0.5702695400954283
-0.10422817122131872 0.47182255784406213 0.5702695400954283
-0.10422817122131874 0.43718154169268464 0.5702695400954283
-0.10974633431063509 0.4129522053064352 0.5897171855149771
-0.1397463343106351 0.43027271338212403 0.5897171855149771
-0.1397463343106351 0.3956316972307465 0.5897171855149771
-0.1376773626311408 0.3683879594557661 0.6073906212055031
-0.1676773626311408 0.3857084675314548 0.6073906212055031
-0.1676773626311408 0.35106745138007733 0.6073906212055031
-0.15778242112233953 0.32203284650972447 0.6232549108300848
-0.1877824211223395 0.33935335458541327 0.6232549108300848
-0.18778242112233953 0.3047123384340357 0.6232549108300848
-0.1700133132932864 0.27512095842097045 0.6372813288527336
-0.20001331329328637 0.29244146649665925 0.6372813288527336
-0.2000133132932864 0.2578004503452817 0.6372813288527336
-0.17451055288385667 0.2288676438544996 0.6494474063642349
-0.20451055288385667 0.24618815193018836 0.6494474063642349
-0.20451055288385667 0.21154713577881082 0.6494474063642349
-0.17159696941661168 0.18444102442997307 0.6597369528627363
-0.20159696941661165 0.20176153250566184 0.6597369528627363
-0.20159696941661168 0.1671205163542843 0.6597369528627363
-0.1617670523650568 0.14293500390531785 0.6681400540784739
-0.1917670523650568 0.16025551198100663 0.6681400540784739
-0.1917670523650568 0.12561449582962908 0.6681400540784739
-0.1456723401155402 0.10534440236706452 0.674653046032653
-0.17567234011554017 0.1226649104427533 0.674653046032653
-0.1756723401155402 0.08802389429137575 0.674653046032653
-0.12410325273404448 0.07254278871151164 0.6792784656197323
-0.15410325273404446 0.08986329678720041 0.6792784656197323
-0.1541032527340445 0.055222280635822865 0.6792784656197323
-0.09796784954380573 0.04526351244655999 0.682024978099821
-0.12796784954380575 0.06258402052224876 0.682024978099821
-0.12796784954380575 0.02794300437087122 0.682024978099821
-0.06826806174909454 0.02408435206171522 0.6829072819831143
-0.09826806174909454 0.04140486013740399 0.6829072819831143
-0.09826806174909455 0.00676384398602645 0.6829072819831143
-0.03607400522070285 0.009416104118031215 0.6819459918808448
-0.06607400522070284 0.026736612193719988 0.6819459918808448
-0.06607400522070286 -0.007904403957657555 0.6819459918808448
-0.002497017884541361 0.0014953372259521004 0.6791674999867301
-0.03249701788454136 0.018815845301640873 0.6791674999867301
-0.032497017884541374 -0.01582517084973667 0.6791674999867301
0.03133791087329714 0.00038143077917483743 0.6746038169389326
0.0013379108732971406 0.01770193885486361 0.6746038169389326
0.0013379108732971268 -0.016939077296513932 0.6746038169389326
0.06431964513176462 0.0059579123482162745 0.6682923928947492
0.03431964513176462 0.023278420423905048 0.6682923928947492
0.03431964513176461 -0.011362595727472495 0.6682923928947492
0.09537767848103959 0.017938002670783243 0.6602759197282704
0.06537767848103959 0.035258510746472016 0.6602759197282704
0.06537767848103958 0.0006174945950944734 0.6602759197282704
0.12350754463942193 0.03587417581267158 0.6506021153347418
0.09350754463942193 0.05319468388836035 0.6506021153347418
0.09350754463942192 0.018553667736982807 0.6506021153347418
0.14779426809308022 0.05917144679524749 0.6393234910940105
0.11779426809308023 0.07649195487093627 0.6393234910940105
0.11779426809308022 0.04185093871955872 0.6393234910940105
0.16743331630810757 0.08710401209132239 0.6264971036089828
0.13743331630810757 0.10442452016701116 0.6264971036089828
0.13743331630810757 0.06978350401563362 0.6264971036089828
0.18174858366855007 0.11883479193698145 0.6121842918931469
0.1517485836685501 0.13615530001267023 0.6121842918931469
0.15174858366855007 0.10151428386129267 0.6121842918931469
0.19020701652209293 0.1534373591586067 0.5964504012337354
0.16020701652209296 0.17075786723429548 0.5964504012337354
0.16020701652209293 0.13611685108291793 0.5964504012337354
0.1924295764407446 0.18991968860578945 0.5793644950037745
0.16242957644074463 0.20724019668147822 0.5793644950037745
0.1624295764407446 0.17259918053010068 0.5793644950037745
0.1881983327154996 0.22724912538168793 0.5609990557369187
0.1581983327154996 0.2445696334573767 0.5609990557369187
0.1581983327154996 0.20992861730599915 0.5609990557369187
0.17745957276588756 0.26437794955538746 0.5414296768134441
0.14745957276588756 0.28169845763107626 0.5414296768134441
0.14745957276588756 0.2470574414796987 0.5414296768134441
0.1603229180619632 0.30026891020986146 0.520734746133958
0.13032291806196322 0.3175894182855502 0.520734746133958
0.1303229180619632 0.2829484021341727 0.520734746133958
0.13705653083677022 0.33392011240747344 0.4989951231791554
0.10705653083677022 0.3512406204831622 0.4989951231791554
0.1070565308367702 0.3165996043317847 0.4989951231791554
0.10807859088921523 0.3643886664339147 0.4762938108692968
0.07807859088921523 0.3817091745096035 0.4762938108692968
0.07807859088921522 0.34706815835822596 0.4762938108692968
0.07394530984761781 0.3908125486293362 0.45271562364590123
0.04394530984761781 0.408133056705025 0.45271562364590123
0.0439453098476178 0.37349204055364743 0.45271562364590123
0.035335830276302944 0.4124301760053442 0.42834685320050747
0.005335830276302951 0.429750684081033 0.42834685320050747
0.005335830276302937 0.39510966792965546 0.42834685320050747
-0.00696557290778841 0.42859726114342583 0.4032749332712305
-0.0369655729077884 0.44591776921911463 0.4032749332712305
-0.036965572907788416 0.4112767530677371 0.4032749332712305
-0.05208951267193694 0.43880058777498493 0.3775881049173175
-0.08208951267193694 0.45612109585067373 0.3775881049173175
-0.08208951267193695 0.4214800796992962 0.3775881049173175
-0.09910320993642475 0.4426684289423174 0.3513750836650713
-0.12910320993642477 0.45998893701800614 0.3513750836650713
-0.12910320993642477 0.42534792086662865 0.3513750836650713
-0.14703335957760144 0.43997741656177336 0.32472472989546514
-0.1770333595776014 0.4572979246374621 0.32472472989546514
-0.17703335957760144 0.4226569084860846 0.32472472989546514
-0.19488957066084128 0.43065576128272265 0.29772572381468454
-0.22488957066084125 0.4479762693584114 0.29772572381468454
-0.22488957066084128 0.4133352532070339 0.29772572381468454
-0.2416878058505825 0.41478281244631615 0.27046624631386884
-0.2716878058505825 0.43210332052200495 0.27046624631386884
-0.2716878058505825 0.3974623043706274 0.27046624631386884
-0.28647325587310324 0.3925850374036662 0.24303366698367254
-0.31647325587310327 0.409905545479355 0.24303366698367254
-0.31647325587310327 0.37526452932797744 0.24303366698367254
-0.32834210957229687 0.36442858523971344 0.2155142405031948
-0.3583421095722969 0.3817490933154022 0.2155142405031948
-0.3583421095722969 0.3471080771640247 0.2155142405031948
-0.3664617176199514 0.3308086799864498 0.18799281257152697
-0.3964617176199514 0.34812918806213855 0.18799281257152697
-0.3964617176199514 0.31348817191076106 0.18799281257152697
-0.40008869712999595 0.2923361608022436 0.16055253649397594
-0.430088697129996 0.3096566688779324 0.16055253649397594
-0.430088697129996 0.27501565272655487 0.16055253649397594
-0.4285845838172761 0.2497215496782773 0.13327460147420303
-0.4585845838172761 0.26704205775396606 0.13327460147420303
-0.4585845838172761 0.23240104160258854 0.13327460147420303
-0.4514287062409719 0.2037570796131828 0.10623797359838456
-0.48142870624097195 0.22107758768887156 0.10623797359838456
-0.48142870624097195 0.18643657153749402 0.10623797359838456
-0.46822803120320267 0.1552971567776048 0.07951915042843613
-0.4982280312032027 0.17261766485329358 0.07951915042843613
-0.4982280312032027 0.13797664870191603 0.07951915042843613
-0.4787238085262712 0.10523775819873331 0.053191930048630716
-0.5087238085262712 0.12255826627442208 0.053191930048630716
-0.5087238085262713 0.08791725012304454 0.053191930048630716
-0.48279492512239275 0.054495281494134774 0.027327195334022267
-0.5127949251223928 0.07181578956982354 0.027327195334022267
-0.5127949251223928 0.03717477341844601 0.027327195334022267
-0.4804579603917113 0.00398536507831195 0.0019927141303013726
-0.5104579603917113 0.021305873154000725 0.0019927141303013726
-0.5104579603917113 -0.01333514299737682 0.0019927141303013726
-0.4718640154657723 -0.04539781370569892 -0.022747044046540207
-0.5018640154657723 -0.028077305630010145 -0.022747044046540207
-0.5018640154657723 -0.06271832178138768 -0.022747044046540207
-0.45729246566896786 -0.09280127835072213 -0.0468310742656382
-0.4872924656689679 -0.07548077027503336 -0.0468310742656382
-0.4872924656689679 -0.1101217864264109 -0.0468310742656382
-0.43714185695075036 -0.1374315813780746 -0.07020198495162824
-0.4671418569507504 -0.12011107330238582 -0.07020198495162824
-0.4671418569507504 -0.15475208945376337 -0.07020198495162824
-0.4119182312787657 -0.1785713165025955 -0.09280612881595732
-0.4419182312787657 -0.16125080842690673 -0.09280612881595732
-0.4419182312787657 -0.19589182457828427 -0.09280612881595732
-0.3822212216302619 -0.21559346425265738 -0.11459371568208035
-0.4122212216302619 -0.1982729561769686 -0.11459371568208035
-0.4122212216302619 -0.23291397232834615 -0.11459371568208035
-0.3487283030821002 -0.24797328182222086 -0.1355189070248244
-0.3787283030821002 -0.2306527737465321 -0.1355189070248244
-0.3787283030821002 -0.26529378989790964 -0.1355189070248244
-0.3121776216628667 -0.2752975148609967 -0.15553989213145186
-0.34217762166286675 -0.2579770067853079 -0.15553989213145186
-0.34217762166286675 -0.29261802293668543 -0.15553989213145186
-0.27334984647409166 -0.29727077964828236 -0.17461894587879273
-0.3033498464740917 -0.27995027157259356 -0.17461894587879273
-0.3033498464740917 -0.3145912877239711 -0.17461894587879273
-0.23304950279674272 -0.31371903676875385 -0.1927224682067045
-0.2630495027967427 -0.29639852869306504 -0.1927224682067045
-0.2630495027967427 -0.3310395448444426 -0.1927224682067045
-0.1920862444650324 -0.3245901501347613 -0.2098210054527398
-0.2220862444650324 -0.3072696420590725 -0.2098210054527398
-0.2220862444650324 -0.34191065821045 -0.2098210054527398
-0.15125651300192247 -0.3299515961459241 -0.22588925379584668
-0.18125651300192247 -0.3126310880702353 -0.22588925379584668
-0.18125651300192247 -0.34727210422161287 -0.22588925379584668
-0.11132600944324754 -0.3299854552024342 -0.24090604513771785
-0.14132600944324752 -0.3126649471267454 -0.24090604513771785
-0.14132600944324755 -0.34730596327812296 -0.24090604513771785
-0.07301337326504086 -0.32498088008911746 -0.254854315828807
-0.10301337326504086 -0.30766037201342866 -0.254854315828807
-0.10301337326504087 -0.3423013881648062 -0.254854315828807
-0.03697542243996153 -0.31532429149291363 -0.26772105872153956
-0.06697542243996153 -0.2980037834172249 -0.26772105872153956
-0.06697542243996155 -0.3326447995686024 -0.26772105872153956
-0.003794260650878154 -0.3014875988845226 -0.27949725910559686
-0.03379426065087815 -0.28416709080883384 -0.27949725910559686
-0.03379426065087816 -0.31880810696021133 -0.27949725910559686
0.026033496489364854 -0.28401478419682125 -0.29017781514901897
-0.003966503510635142 -0.2666942761211325 -0.29017781514901897
-0.003966503510635156 -0.30133529227251 -0.29017781514901897
0.05210518317622728 -0.2635072154331159 -0.29976144353385775
0.022105183176227283 -0.24618670735742712 -0.29976144353385775
0.02210518317622727 -0.28082772350880464 -0.29976144353385775
0.07411810189996346 -0.24060807706799167 -0.30825057103605485
0.044118101899963465 -0.2232875689923029 -0.30825057103605485
0.04411810189996345 -0.25792858514368044 -0.30825057103605485
0.09187303065678229 -0.215986313663847 -0.31565121285572784
0.06187303065678229 -0.19866580558815822 -0.31565121285572784
0.06187303065678228 -0.23330682173953576 -0.31565121285572784
0.10527521376992302 -0.19032048258677514 -0.3219728385559513
0.07527521376992302 -0.17299997451108637 -0.3219728385559513
0.07527521376992301 -0.20764099066246391 -0.3219728385559513
0.1143328922558699 -0.16428290139449997 -0.327228226515193
0.0843328922558699 -0.1469623933188112 -0.327228226515193
0.08433289225586989 -0.18160340947018874 -0.327228226515193
0.11915348737755693 -0.1385244559573344 -0.33143330784055186
0.08915348737755693 -0.12120394788164562 -0.33143330784055186
0.08915348737755692 -0.15584496403302317 -0.33143330784055186
0.1199376040384514 -0.11366040745110495 -0.3346070007257698
0.0899376040384514 -0.09633989937541618 -0.3346070007257698
0.08993760403845139 -0.13098091552679372 -0.3346070007257698
0.11697106780210544 -0.09025750101189584 -0.3367710362694189
0.08697106780210544 -0.07293699293620706 -0.3367710362694189
0.08697106780210542 -0.10757800908758461 -0.3367710362694189
0.11061524957564907 -0.06882263720962495 -0.3379497767946428
0.08061524957564907 -0.051502129133936175 -0.3379497767946428
0.08061524957564906 -0.08614314528531372 -0.3379497767946428
0.10129596458855339 -0.04979332084929606 -0.33817002773225896
0.07129596458855339 -0.032472812773607286 -0.33817002773225896
0.07129596458855338 -0.06711382892498483 -0.33817002773225896
0.08949125667106803 -0.0335300513010194 -0.33746084414381444
0.05949125667106803 -0.01620954322533063 -0.33746084414381444
0.05949125667106801 -0.05085055937670817 -0.33746084414381444
0.07571839466411229 -0.020310765996384816 -0.33585333297035885
0.045718394664112295 -0.0029902579206960433 -0.33585333297035885
0.04571839466411228 -0.03763127407207359 -0.33585333297035885
0.06052041498192115 -0.010327395322928333 -0.3333804520961973
0.030520414981921158 0.00699311275276044 -0.3333804520961973
0.030520414981921144 -0.027647903398617103 -0.3333804520961973
0.0444525430364705 -0.0036845342846652633 -0.33007680731477423
0.014452543036470502 0.01363597379102351 -0.33007680731477423
0.014452543036470488 -0.021005042360354033 -0.33007680731477423
0.028068816771304517 -0.00040018529473766863 -0.3259784482761667
-0.0019311832286954787 0.016920322780951104 -0.3259784482761667
-0.0019311832286954926 -0.01772069337042644 -0.3259784482761667
0.011909218494155393 -0.0004084785480758328 -0.32112266448249793
-0.018090781505844603 0.01691202952761294 -0.32112266448249793
-0.018090781505844616 -0.0177289866237646 -0.32112266448249793
-0.0035124027277238234 -0.0035642326823212066 -0.31554778237905323
-0.03351240272772382 0.013756275393367566 -0.31554778237905323
-0.033512402727723836 -0.020884740758009977 -0.31554778237905323
-0.01771936575719379 -0.009649179817084316 -0.3092929645651092
-0.04771936575719379 0.007671328258604457 -0.3092929645651092
-0.0477193657571938 -0.026969687892773084 -0.3092929645651092
-0.03028193170445036 -0.018379646336188046 -0.30239801211964806
-0.060281931704450356 -0.0010591382604992726 -0.30239801211964806
-0.06028193170445037 -0.035700154411876815 -0.30239801211964806
-0.04082563919978015 -0.029415454530385785 -0.29490317100340147
-0.07082563919978015 -0.012094946454697011 -0.29490317100340147
-0.07082563919978016 -0.04673596260607456 -0.29490317100340147
-0.049038063475573546 -0.04236979084016369 -0.28684894346026907
-0.07903806347557354 -0.02504928276447492 -0.28684894346026907
-0.07903806347557356 -0.059690298915852466 -0.28684894346026907
-0.05467390520425888 -0.05681977412339004 -0.27827590529832247
-0.08467390520425888 -0.039499266047701265 -0.27827590529832247
-0.0846739052042589 -0.07414028219907881 -0.27827590529832247
-0.057558358535045095 -0.07231745212003389 -0.26922452988357937
-0.0875583585350451 -0.05499694404434512 -0.26922452988357937
-0.08755835853504511 -0.08963796019572266 -0.26922452988357937
-0.05758875054881665 -0.08840095590872268 -0.2597350196288157
-0.08758875054881665 -0.07108044783303391 -0.2597350196288157
-0.08758875054881667 -0.10572146398441146 -0.2597350196288157
-0.05473448535414688 -0.1046055502871614 -0.24984714570513689
-0.08473448535414688 -0.08728504221147262 -0.24984714570513689
-0.08473448535414689 -0.12192605836285017 -0.24984714570513689
-0.04903536432076795 -0.12047433214394129 -0.23960009664619825
-0.07903536432076795 -0.10315382406825252 -0.23960009664619825
-0.07903536432076796 -0.13779484021963007 -0.23960009664619825
-0.040598388650569514 -0.135568348372006 -0.22903233645415683
-0.0705983886505695 -0.11824784029631721 -0.22903233645415683
-0.07059838865056953 -0.15288885644769476 -0.22903233645415683
-0.02959318091660682 -0.14947592894238354 -0.21818147275299057
-0.059593180916606814 -0.13215542086669477 -0.21818147275299057
-0.05959318091660683 -0.1667964370180723 -0.21818147275299057
-0.016246187803068513 -0.16182105856473314 -0.20708413546911686
-0.04624618780306851 -0.14450055048904437 -0.20708413546911686
-0.04624618780306852 -0.1791415666404219 -0.20708413546911686
-0.000833846656395295 -0.1722706410063267 -0.19577586645159564
-0.03083384665639529 -0.15495013293063792 -0.19577586645159564
-0.030833846656395304 -0.18959114908201546 -0.19577586645159564
0.016325086626624297 -0.1805405426919558 -0.18429102037504363
-0.013674913373375699 -0.16322003461626702 -0.18429102037504363
-0.013674913373375713 -0.19786105076764457 -0.18429102037504363
0.03487784147088823 -0.18640033573178214 -0.1726626771980428
0.0048778414708882355 -0.16907982765609336 -0.1726626771980428
0.004877841470888222 -0.2037208438074709 -0.1726626771980428
0.05444635743723582 -0.18967669411554006 -0.16092256637870134
0.024446357437235826 -0.17235618603985128 -0.16092256637870134
0.024446357437235812 -0.20699720219122883 -0.16092256637870134
0.07463622048815552 -0.1902554296127683 -0.1491010029775236
0.04463622048815552 -0.17293492153707954 -0.1491010029775236
0.044636220488155506 -0.20757593768845709 -0.1491010029775236
0.09504560743450181 -0.18808218514473074 -0.13722683570619595
0.06504560743450181 -0.17076167706904197 -0.13722683570619595
0.0650456074345018 -0.2054026932204195 -0.13722683570619595
0.11527404594496347 -0.18316183234939493 -0.1253274069097572
0.08527404594496348 -0.16584132427370615 -0.1253274069097572
0.08527404594496346 -0.2004823404250837 -0.1253274069097572
0.13493081203053248 -0.1755566461567176 -0.11342852439920866
0.10493081203053248 -0.15823613808102882 -0.11342852439920866
0.10493081203053246 -0.19287715423240637 -0.11342852439920866
0.15364280470056887 -0.16538335195433518 -0.10155444498233498
0.12364280470056889 -0.1480628438786464 -0.10155444498233498
0.12364280470056888 -0.18270386003002395 -0.10155444498233498
0.17106175785233707 -0.15280916000374564 -0.08972786947273693
0.1410617578523371 -0.13548865192805687 -0.08972786947273693
0.14106175785233707 -0.17012966807943442 -0.08972786947273693
0.18687067170407268 -0.13804691694050805 -0.07796994889112974
0.1568706717040727 -0.12072640886481928 -0.07796994889112974
0.15687067170407268 -0.15536742501619683 -0.07796994889112974
0.20078936951146473 -0.12134951536006655 -0.06630030150923724
0.17078936951146473 -0.10402900728437778 -0.06630030150923724
0.17078936951146473 -0.13867002343575532 -0.06630030150923724
0.21257910923637585 -0.10300370967446627 -0.05473704032541736
0.18257910923637588 -0.0856832015987775 -0.05473704032541736
0.18257910923637585 -0.12032421775015505 -0.05473704032541736
0.2220462036200738 -0.08332348975643195 -0.04329681050279379
0.1920462036200738 -0.06600298168074317 -0.04329681050279379
0.1920462036200738 -0.10064399783212072 -0.04329681050279379
0.22904462516194496 -0.06264316359747711 -0.03199483624550601
0.199044625161945 -0.04532265552178834 -0.03199483624550601
0.19904462516194496 -0.07996367167316588 -0.03199483624550601
0.23347759429934398 -0.04131029661218517 -0.02084497653692427
0.20347759429934398 -0.023989788536496394 -0.02084497653692427
0.20347759429934398 -0.05863080468787393 -0.02084497653692427
0.23529816918669433 -0.019678648706855567 -0.009859789115659774
0.20529816918669436 -0.002358140631166794 -0.009859789115659774
0.20529816918669433 -0.03699915678254434 -0.009859789115659774
0.23450887353334457 0.0018987587664063576 0.000949397978874057
0.20450887353334457 0.019219266842095132 0.000949397978874057
0.20450887353334457 -0.015421749309282412 0.000949397978874057
0.23116041472479806 0.023076325060173722 0.011572407999496354
0.20116041472479806 0.040396833135862495 0.011572407999496354
0.20116041472479806 0.005755816984484952 0.011572407999496354
0.2253495577602134 0.04352219251804484 0.022000130966521654
0.1953495577602134 0.06084270059373361 0.022000130966521654
0.1953495577602134 0.026201684442356068 0.022000130966521654
0.2172162313223686 0.062924114519198 0.032224433799845145
0.18721623132236864 0.08024462259488677 0.032224433799845145
0.18721623132236861 0.04560360644350922 0.032224433799845145
0.20693995057307546 0.08099478808335557 0.04223806590865537
0.1769399505730755 0.09831529615904434 0.04223806590865537
0.17693995057307546 0.0636742800076668 0.04223806590865537
0.1947356471343401 0.09747658468072286 0.05203456106095846
0.16473564713434014 0.11479709275641163 0.05203456106095846
0.1647356471343401 0.08015607660503409 0.05203456106095846
0.180849000338 0.11214562691696343 0.061608136371540306
0.15084900033800003 0.1294661349926522 0.061608136371540306
0.150849000338 0.09482511884127466 0.061608136371540306
0.16555136542391002 0.12481517234947252 0.07095358925838074
0.13555136542391005 0.14213568042516128 0.07095358925838074
0.13555136542391003 0.10749466427378375 0.07095358925838074
0.14913439419975796 0.13533827848006216 0.08006619322388585
0.11913439419975798 0.15265878655575094 0.08006619322388585
0.11913439419975796 0.11801777040437339 0.08006619322388585
0.13190444203154478 0.14360973477075156 0.08894159331853288
0.10190444203154479 0.16093024284644034 0.08894159331853288
0.10190444203154478 0.1262892266950628 0.08894159331853288
0.11417685221128583 0.1495672582234379 0.09757570214067178
0.08417685221128583 0.16688776629912666 0.09757570214067178
0.08417685221128582 0.13224675014774911 0.09757570214067178
0.09627020504321823 0.15319195859821327 0.10596459721733545
0.06627020504321823 0.17051246667390205 0.10596459721733545
0.06627020504321822 0.1358714505225245 0.10596459721733545
0.07850061468089081 0.1545080877294684 0.11410442059698774
0.04850061468089081 0.17182859580515716 0.11410442059698774
0.0485006146808908 0.13718757965377962 0.11410442059698774
0.06117615208533159 0.15358209470031445 0.12199128146634752
0.031176152085331588 0.17090260277600322 0.12199128146634752
0.031176152085331574 0.13626158662462567 0.12199128146634752
0.0445914676708377 0.1505210149675047 0.12962116257980302
0.014591467670837705 0.16784152304319347 0.12962116257980302
0.014591467670837691 0.13320050689181592 0.12962116257980302
0.02902268242479791 0.14547022704016233 0.13698983126166303
-0.0009773175752020857 0.1627907351158511 0.13698983126166303
-0.0009773175752020996 0.12814971896447355 0.13698983126166303
0.014722611644379074 0.1386106151790115 0.14409275570873611
-0.015277388355620921 0.15593112325470027 0.14409275570873611
-0.015277388355620935 0.12129010710332272 0.14409275570873611
0.00191638098437635 0.13015518098214038 0.15092502728363494
-0.028083619015623645 0.14747568905782915 0.15092502728363494
-0.02808361901562366 0.1128346729064516 0.15092502728363494
-0.009202509739179191 0.12034515084011724 0.15748128944804418
-0.03920250973917919 0.137665658915806 0.15748128944804418
-0.0392025097391792 0.10302464276442846 0.15748128944804418
-0.018475623643593984 0.10944563024441785 0.16375567394013474
-0.04847562364359398 0.12676613832010664 0.16375567394013474
-0.04847562364359399 0.09212512216872908 0.16375567394013474
-0.025782477467668544 0.09774085995924374 0.1697417447516475
-0.05578247746766854 0.11506136803493251 0.1697417447516475
-0.055782477467668554 0.08042035188355497 0.1697417447516475
-0.03104284266576991 0.08552913322217434 0.17543245040817304
-0.061042842665769904 0.10284964129786311 0.17543245040817304
-0.06104284266576992 0.06820862514648557 0.17543245040817304
-0.03421841807388748 0.07311743748345706 0.18082008500108218
-0.06421841807388748 0.09043794555914583 0.18082008500108218
-0.06421841807388749 0.055796929407768286 0.18082008500108218
-0.03531384008327018 0.06081588873612412 0.18589625836176626
-0.06531384008327018 0.07813639681181289 0.18589625836176626
-0.0653138400832702 0.043495380660435345 0.18589625836176626
-0.034377001626633694 0.0489320311846619 0.19065187570860406
-0.06437700162663369 0.06625253926035067 0.19065187570860406
-0.0643770016266337 0.031611523108973125 0.19065187570860406
-0.031498657427650525 0.03776507974879988 0.195077127034746
-0.06149865742765052 0.055085587824488656 0.195077127034746
-0.06149865742765053 0.020444571673111114 0.195077127034746
-0.02681130004227188 0.02760018754846203 0.19916148644073467
-0.056811300042271876 0.044920695624150804 0.19916148644073467
-0.05681130004227189 0.010279679472773261 0.19916148644073467
-0.020487299353207592 0.018702824865267954 0.20289372155050717
-0.05048729935320759 0.03602333294095673 0.20289372155050717
-0.0504872993532076 0.0013823167895791848 0.20289372155050717
-0.012736307445140777 0.01131335988340816 0.20626191308283573
-0.04273630744514077 0.028633867959096934 0.20626191308283573
-0.042736307445140786 -0.00600714819228061 0.20626191308283573
-0.003801941212567092 0.0056419345054208436 0.20925348458310147
-0.03380194121256709 0.02296244258110962 0.20925348458310147
-0.033801941212567105 -0.011678573570267926 0.20925348458310147
0.006042233402512226 0.0018637304238077505 0.21185524225285587
-0.02395776659748777 0.019184238499496523 0.21185524225285587
-0.023957766597487783 -0.01545677765188102 0.21185524225285587
0.01649737908332493 0.00011472110869593818 0.21405342474727174
-0.013502620916675066 0.017435229184384712 0.21405342474727174
-0.01350262091667508 -0.01720578696699283 0.21405342474727174
0.02724467685526802 0.00048800415398587624 0.21583376274369026
-0.002755323144731975 0.01780851222967465 0.21583376274369026
-0.002755323144731989 -0.016832503921702893 0.21583376274369026
0.037951163972441644 0.0030308052414701136 0.21718154801842304
0.007951163972441649 0.020351313317158885 0.21718154801842304
0.007951163972441635 -0.014289702834218656 0.21718154801842304
0.04827604179631571 0.007742239603816922 0.2180817117041147
0.018276041796315718 0.025062747679505695 0.2180817117041147
0.018276041796315704 -0.009578268471871848 0.2180817117041147
0.05787736125825793 0.01457190911440173 0.21851891133670187
0.027877361258257932 0.031892417190090505 0.21851891133670187
0.02787736125825792 -0.0027485989612870392 0.21851891133670187
0.06641897975496465 0.023419402890926016 0.2184776262396481
0.03641897975496466 0.04073991096661479 0.2184776262396481
0.036418979754964644 0.006098894815237246 0.2184776262396481
0.07357767052495552 0.03413475653277291 0.217942260734067
0.04357767052495553 0.051455264608461684 0.217942260734067
0.043577670524955515 0.016814248457084142 0.217942260734067
0.0790502541723867 0.04651990986635334 0.21689725460687215
0.049050254172386704 0.06384041794204212 0.21689725460687215
0.04905025417238669 0.029199401790664572 0.21689725460687215
0.08256061252577171 0.060331185486710404 0.21532720021556295
0.05256061252577171 0.07765169356239918 0.21532720021556295
0.0525606125257717 0.04301067741102163 0.21532720021556295
0.08386643791791513 0.07528279069023718 0.21321696555796485
0.053866437917915136 0.09260329876592595 0.21321696555796485
0.05386643791791512 0.0579622826145484 0.21321696555796485
0.08276556669505913 0.09105132391963013 0.2105518225884697
0.052765566695059135 0.1083718319953189 0.2105518225884697
0.05276556669505912 0.07373081584394135 0.2105518225884697
0.07910174470668653 0.1072812440057589 0.20731758001937883
0.04910174470668654 0.12460175208144768 0.20731758001937883
0.049101744706686525 0.08996073593007013 0.20731758001937883
0.07276967502672776 0.12359123679318568 0.20350071980704054
0.04276967502672777 0.14091174486887445 0.20350071980704054
0.04276967502672776 0.1062707287174969 0.20350071980704054
0.0637192044648264 0.1395813897504838 0.19908853648787597
0.03371920446482641 0.15690189782617256 0.19908853648787597
0.033719204464826395 0.12226088167479501 0.19908853648787597
0.051958515699450994 0.1548410615263799 0.1940692784992868
0.021958515699450995 0.17216156960206866 0.1940692784992868
0.02195851569945098 0.1375205534506911 0.1940692784992868
0.03755620615101047 0.1689573107935171 0.18843229059502323
0.007556206151010474 0.18627781886920589 0.18843229059502323
0.00755620615101046 0.15163680271782834 0.18843229059502323
0.020642152942840688 0.18152372782198214 0.18216815644405013
-0.00935784705715931 0.19884423589767092 0.18216815644405013
-0.009357847057159323 0.16420321974629337 0.18216815644405013
0.001407085276969637 0.19214949374580453 0.17526884048638633
-0.02859291472303036 0.2094700018214933 0.17526884048638633
-0.028592914723030372 0.17482898567011576 0.17526884048638633
-0.01989918904015456 0.2004684771083614 0.16772782810895007
-0.04989918904015456 0.21778898518405018 0.16772782810895007
-0.04989918904015457 0.18314796903267264 0.16772782810895007
-0.04297092779387811 0.20614816563530347 0.159540263199205
-0.07297092779387811 0.22346867371099224 0.159540263199205
-0.07297092779387812 0.1888276575596147 0.159540263199205
-0.06745096333690513 0.20889822385881926 0.15070308213439215
-0.09745096333690513 0.22621873193450803 0.15070308213439215
-0.09745096333690514 0.1915777157831305 0.15070308213439215
-0.09293653783679456 0.2084784646899719 0.14121514326945897
-0.12293653783679456 0.22579897276566066 0.14121514326945897
-0.12293653783679458 0.19115795661428311 0.14121514326945897
-0.11898639273858579 0.2047060256840257 0.13107735099736598
-0.14898639273858577 0.22202653375971448 0.13107735099736598
-0.1489863927385858 0.18738551760833694 0.13107735099736598
-0.14512900669371614 0.19746154881921044 0.12029277347133659
-0.17512900669371612 0.2147820568948992 0.12029277347133659
-0.17512900669371614 0.18014104074352166 0.12029277347133659
-0.1708718432691903 0.18669417622403287 0.10886675309970241
-0.20087184326919028 0.20401468429972164 0.10886675309970241
-0.2008718432691903 0.1693736681483441 0.10886675309970241
-0.19571143849747483 0.17242519340240645 0.09680700895021833
-0.22571143849747483 0.18974570147809522 0.09680700895021833
-0.22571143849747483 0.15510468532671767 0.09680700895021833
-0.21914412969199193 0.15475017592141985 0.08412373023201637
-0.2491441296919919 0.17207068399710862 0.08412373023201637
-0.24914412969199193 0.13742966784573107 0.08412373023201637
-0.2406772018479146 0.13383952488437603 0.07082966005952733
-0.2706772018479146 0.1511600329600648 0.07082966005952733
-0.2706772018479146 0.11651901680868726 0.07082966005952733
-0.2598402072353772 0.10993731029407272 0.056940168743643
-0.28984020723537723 0.1272578183697615 0.056940168743643
-0.28984020723537723 0.09261680221838395 0.056940168743643
-0.27619619825692676 0.08335837894888562 0.0424733159008949
-0.3061961982569268 0.10067888702457439 0.0424733159008949
-0.3061961982569268 0.06603787087319685 0.0424733159008949
-0.2893526039631157 0.0544837239983427 0.02744990072126148
-0.3193526039631157 0.07180423207403147 0.02744990072126148
-0.3193526039631157 0.037163215922653925 0.02744990072126148
-0.2989714773504423 0.02375415578440571 0.011893499789232827
-0.32897147735044235 0.04107466386009448 0.011893499789232827
-0.32897147735044235 0.00643364770871694 0.011893499789232827
-0.30477884410421985 -0.00833764292331983 -0.004169508089409479
-0.3347788441042199 0.008982865152368943 -0.004169508089409479
-0.3347788441042199 -0.0256581509990086 -0.004169508089409479
-0.30657289402551297 -0.04125655083467106 -0.020709930541160805
-0.336572894025513 -0.023936042758982284 -0.020709930541160805
-0.336572894025513 -0.05857705891035983 -0.020709930541160805
-0.3042307740425696 -0.07443576265273845 -0.03769576418001087
-0.3342307740425696 -0.057115254577049676 -0.03769576418001087
-0.3342307740425696 -0.09175627072842722 -0.03769576418001087
-0.2977137663065554 -0.10728865604513489 -0.05509221141787697
-0.3277137663065554 -0.08996814796944612 -0.05509221141787697
-0.3277137663065554 -0.12460916412082367 -0.05509221141787697
-0.2870706660651908 -0.13922152692658513 -0.07286171181337452
-0.31707066606519085 -0.12190101885089635 -0.07286171181337452
-0.31707066606519085 -0.1565420350022739 -0.07286171181337452
-0.2724392112566286 -0.16964691763681142 -0.09096398816934911
-0.30243921125662865 -0.15232640956112264 -0.09096398816934911
-0.30243921125662865 -0.1869674257125002 -0.09096398816934911
-0.25404545834182696 -0.19799723708226688 -0.10935610751489237
-0.284045458341827 -0.1806767290065781 -0.10935610751489237
-0.284045458341827 -0.21531774515795565 -0.10935610751489237
-0.23220104589334015 -0.22373835306270196 -0.12799255703129384
-0.26220104589334015 -0.20641784498701318 -0.12799255703129384
-0.26220104589334015 -0.24105886113839073 -0.12799255703129384
-0.20729833782142057 -0.2463828255925962 -0.14682533490393698
-0.23729833782142057 -0.22906231751690742 -0.14682533490393698
-0.23729833782142057 -0.26370333366828497 -0.14682533490393698
-0.17980349065069864 -0.2655024466501778 -0.165804056003828
-0.20980349065069864 -0.24818193857448903 -0.165804056003828
-0.20980349065069864 -0.28282295472586655 -0.165804056003828
-0.15024754266322102 -0.28073975684583474 -0.18487607222378655
-0.18024754266322102 -0.263419248770146 -0.18487607222378655
-0.18024754266322102 -0.2980602649215235 -0.18487607222378655
-0.1192156756241818 -0.29181822318644574 -0.2039866072155846
-0.1492156756241818 -0.27449771511075693 -0.2039866072155846
-0.1492156756241818 -0.3091387312621345 -0.2039866072155846
-0.08733485079545483 -0.29855078438619653 -0.22307890519599927
-0.11733485079545483 -0.2812302763105078 -0.22307890519599927
-0.11733485079545485 -0.3158712924618853 -0.22307890519599927
-0.055260068609199076 -0.30084650076820363 -0.24209439341221664
-0.08526006860919907 -0.2835259926925149 -0.24209439341221664
-0.08526006860919909 -0.3181670088438924 -0.24209439341221664
-0.023659544348743972 -0.2987150842115928 -0.2609728577806487
-0.05365954434874397 -0.281394576135904 -0.2609728577806487
-0.05365954434874398 -0.31603559228728156 -0.2609728577806487
0.006800870826418658 -0.2922691290946452 -0.27965263113848665
-0.023199129173581336 -0.27494862101895645 -0.27965263113848665
-0.02319912917358135 -0.30958963717033394 -0.27965263113848665
0.035473664346872394 -0.281723916819906 -0.29807079347451326
0.005473664346872395 -0.2644034087442172 -0.29807079347451326
0.005473664346872381 -0.29904442489559474 -0.29807079347451326
3 0 1 2 128 255 128 183
3 3 4 5 140 254 146 205
3 6 7 8 153 254 165 200
3 9 10 11 165 253 183 216
3 12 13 14 177 252 199 201
3 15 16 17 188 251 214 216
3 18 19 20 199 249 227 214
3 21 22 23 209 247 238 214
3 24 25 26 219 244 246 221
3 27 28 29 227 242 251 215
3 30 31 32 234 239 254 249
3 33 34 35 241 236 254 184
3 36 37 38 246 232 251 182
3 39 40 41 250 229 245 237
3 42 43 44 253 225 237 203
3 45 46 47 254 220 226 249
3 48 49 50 254 216 213 215
3 51 52 53 253 211 198 198
3 54 55 56 251 206 182 179
3 57 58 59 248 201 164 238
3 60 61 62 243 196 145 184
3 63 64 65 237 191 126 183
3 66 67 68 230 185 107 180
3 69 70 71 222 179 89 209
3 72 73 74 213 174 71 233
3 75 76 77 204 168 55 252
3 78 79 80 193 161 40 236
3 81 82 83 182 155 27 251
3 84 85 86 170 149 17 215
3 87 88 89 158 143 9 243
3 90 91 92 145 136 3 208
3 93 94 95 133 130 1 213
3 96 97 98 120 124 1 212
3 99 100 101 107 117 4 217
3 102 103 104 95 111 10 185
3 105 106 107 83 105 18 189
3 108 109 110 71 99 29 200
3 111 112 113 60 93 43 183
3 114 115 116 50 86 58 227
3 117 118 119 40 80 74 225
3 120 121 122 31 75 92 181
3 123 124 125 24 69 111 215
3 126 127 128 17 63 130 232
3 129 130 131 11 58 149 234
3 132 133 134 7 53 167 220
3 135 136 137 3 48 185 180
3 138 139 140 1 43 201 245
3 141 142 143 1 38 216 186
3 144 145 146 1 34 228 252
3 147 148 149 3 30 239 213
3 150 151 152 6 26 247 184
3 153 154 155 10 22 252 240
3 156 157 158 15 19 254 192
3 159 160 161 22 16 254 242
3 162 163 164 29 13 251 227
3 165 166 167 38 10 245 243
3 168 169 170 47 8 236 205
3 171 172 173 58 6 225 216
3 174 175 176 68 4 212 219
3 177 178 179 80 3 197 208
3 180 181 182 92 2 180 234
3 183 184 185 104 1 162 198
3 186 187 188 117 1 143 189
3 189 190 191 130 1 124 183
3 192 193 194 142 1 105 185
3 195 196 197 155 1 87 233
3 198 199 200 167 2 69 194
3 201 202 203 179 3 53 181
3 204 205 206 190 5 39 249
3 207 208 209 201 6 26 211
3 210 211 212 211 9 16 239
3 213 214 215 220 11 8 238
3 216 217 218 228 14 3 242
3 219 220 221 236 17 1 233
3 222 223 224 242 20 1 227
3 225 226 227 247 23 5 227
3 228 229 230 250 27 11 250
3 231 232 233 253 31 20 218
3 234 235 236 254 35 31 198
3 237 238 239 254 40 44 218
3 240 241 242 253 44 59 225
3 243 244 245 251 49 76 219
3 246 247 248 247 54 94 243
3 249 250 251 242 60 113 230
3 252 253 254 236 65 132 199
3 255 256 257 229 71 151 220
3 258 259 260 221 77 169 208
3 261 262 263 212 82 187 189
3 264 265 266 202 88 203 219
3 267 268 269 191 95 217 180
3 270 271 272 180 101 230 250
3 273 274 275 168 107 240 207
3 276 277 278 156 113 247 203
3 279 280 281 143 120 252 205
3 282 283 284 131 126 254 202
3 285 286 287 118 132 254 196
3 288 289 290 105 139 250 252
3 291 292 293 93 145 244 187
3 294 295 296 81 151 235 183
3 297 298 299 69 157 224 226
3 300 301 302 58 164 210 208
3 303 304 305 48 170 195 247
3 306 307 308 39 176 178 233
3 309 310 311 30 181 160 197
3 312 313 314 22 187 141 188
3 315 316 317 16 193 122 214
3 318 319 320 10 198 103 225
3 321 322 323 6 203 85 249
3 324 325 326 3 208 68 227
3 327 328 329 1 213 51 194
3 330 331 332 1 218 37 240
3 333 334 335 1 222 25 217
3 336 337 338 3 226 15 201
3 339 340 341 6 230 7 218
3 342 343 344 11 234 3 205
3 345 346 347 16 237 1 249
3 348 349 350 23 240 1 225
3 351 352 353 31 243 5 216
3 354 355 356 39 245 12 217
3 357 358 359 49 248 21 193
3 360 361 362 59 249 32 215
3 363 364 365 70 251 46 226
3 366 367 368 82 252 61 225
3 369 370 371 94 253 78 208
3 372 373 374 106 254 96 219
3 375 376 377 119 254 115 238
3 378 379 380 132 254 134 210
3 381 382 383 144 254 153 233
3 384 385 386 157 254 171 220
3 387 388 389 169 253 188 198
3 390 391 392 181 252 204 242
3 393 394 395 192 250 219 213
3 396 397 398 203 248 231 231
3 399 400 401 213 246 241 219
3 402 403 404 222 244 248 191
3 405 406 407 230 241 253 204
3 408 409 410 237 238 254 232
3 411 412 413 243 235 253 208
3 414 415 416 247 231 250 201
3 417 418 419 251 227 243 224
3 420 421 422 253 223 234 229
3 423 424 425 254 219 222 250
3 426 427 428 254 214 208 210
3 429 430 431 253 210 193 251
3 432 433 434 250 205 176 191
3 435 436 437 246 200 158 186
3 438 439 440 241 194 139 239
3 441 442 443 235 189 120 184
3 444 445 446 228 183 101 182
3 447 448 449 219 177 83 248
3 450 451 452 210 172 66 237
3 453 454 455 200 166 50 212
3 456 457 458 189 159 36 252
3 459 460 461 178 153 24 182
3 462 463 464 166 147 14 181
3 465 466 467 154 141 7 181
3 468 469 470 141 134 2 243
3 471 472 473 129 128 1 196
3 474 475 476 116 122 2 254
3 477 478 479 103 115 6 197
3 480 481 482 91 109 12 195
3 483 484 485 79 103 22 223
3 486 487 488 68 97 34 218
3 489 490 491 57 90 47 203
3 492 493 494 46 84 63 247
3 495 496 497 37 79 80 201
3 498 499 500 29 73 98 208
3 501 502 503 21 67 117 253
3 504 505 506 15 62 136 250
3 507 508 509 10 56 155 180
3 510 511 512 5 51 173 213
3 513 514 515 3 46 190 245
3 516 517 518 1 41 206 198
3 519 520 521 1 37 220 216
3 522 523 524 1 32 232 210
3 525 526 527 4 28 242 248
3 528 529 530 7 24 249 220
3 531 532 533 12 21 253 213
3 534 535 536 17 18 254 199
3 537 538 539 24 15 253 205
3 540 541 542 32 12 249 227
3 543 544 545 41 9 242 242
3 546 547 548 51 7 233 180
3 549 550 551 61 5 221 250
3 552 553 554 72 4 207 238
3 555 556 557 84 2 191 194
3 558 559 560 96 1 174 226
3 561 562 563 109 1 156 232
3 564 565 566 121 1 137 235
3 567 568 569 134 1 118 253
3 570 571 572 147 1 99 192
3 573 574 575 159 1 81 185
3 576 577 578 171 2 64 228
3 579 580 581 183 4 48 254
3 582 583 584 194 5 34 237
3 585 586 587 204 7 22 191
3 588 589 590 214 9 13 218
3 591 592 593 223 12 6 196
3 594 595 596 231 15 2 219
3 597 598 599 238 18 1 182
3 600 601 602 243 21 2 190
3 603 604 605 248 25 6 212
3 606 607 608 251 28 13 228
3 609 610 611 254 32 23 193
3 612 613 614 254 37 35 241
3 615 616 617 254 41 49 235
3 618 619 620 252 46 65 180
3 621 622 623 250 51 82 183
3 624 625 626 245 56 100 181
3 627 628 629 240 62 119 222
3 630 631 632 234 67 138 220
3 633 634 635 226 73 157 202
3 636 637 638 218 79 175 254
3 639 640 641 208 84 192 252
3 642 643 644 198 91 208 252
3 645 646 647 187 97 222 216
3 648 649 650 176 103 233 252
3 651 652 653 164 109 243 216
3 654 655 656 152 115 249 215
3 657 658 659 139 122 253 216
3 660 661 662 126 128 254 251
3 663 664 665 114 134 253 228
3 666 667 668 101 141 248 222
3 669 670 671 89 147 241 181
3 672 673 674 77 153 231 225
3 675 676 677 66 159 219 225
3 678 679 680 55 166 205 179
3 681 682 683 45 172 189 191
3 684 685 686 36 177 172 229
3 687 688 689 27 183 154 204
3 690 691 692 20 189 135 206
3 693 694 695 14 194 116 247
3 696 697 698 9 200 97 237
3 699 700 701 5 205 79 230
3 702 703 704 2 210 62 195
3 705 706 707 1 214 46 248
3 708 709 710 1 219 33 250
3 711 712 713 2 223 21 212
3 714 715 716 4 227 12 246
3 717 718 719 8 231 5 251
3 720 721 722 12 235 2 250
3 723 724 725 18 238 1 216
3 726 727 728 25 241 2 245
3 729 730 731 34 244 7 254
3 732 733 734 43 246 14 206
3 735 736 737 52 248 24 238
3 738 739 740 63 250 36 207
3 741 742 743 74 252 51 187
3 744 745 746 86 253 67 190
3 747 748 749 98 254 84 231
3 750 751 752 111 254 102 215
3 753 754 755 123 254 121 214
3 756 757 758 136 254 140 214
3 759 760 761 149 254 159 197
3 762 763 764 161 253 177 221
3 765 766 767 173 252 194 198
3 768 769 770 185 251 209 188
3 771 772 773 196 249 223 251
3 774 775 776 206 247 234 231
3 777 778 779 216 245 243 230
3 780 781 782 224 243 250 228
3 783 784 785 232 240 254 234
3 786 787 788 239 237 254 198
3 789 790 791 244 233 252 227
3 792 793 794 249 230 248 237
3 795 796 797 252 226 240 227
3 798 799 800 254 222 230 223
3 801 802 803 254 217 218 225
3 804 805 806 254 213 203 241
3 807 808 809 252 208 187 178
3 810 811 812 249 203 170 216
3 813 814 815 245 198 152 224
3 816 817 818 239 192 133 215
3 819 820 821 233 187 114 253
3 822 823 824 225 181 95 188
3 825 826 827 216 175 77 243
3 828 829 830 207 170 60 246
3 831 832 833 196 163 45 209
3 834 835 836 186 157 31 199
3 837 838 839 174 151 20 186
3 840 841 842 162 145 11 238
3 843 844 845 150 139 5 234
3 846 847 848 137 132 1 241
3 849 850 851 124 126 1 252
3 852 853 854 112 120 3 253
3 855 856 857 99 113 8 233
3 858 859 860 87 107 15 229
3 861 862 863 75 101 26 214
3 864 865 866 64 95 38 210
3 867 868 869 53 88 52 250
3 870 871 872 43 82 69 181
3 873 874 875 34 77 86 224
3 876 877 878 26 71 104 194
3 879 880 881 19 65 123 191
3 882 883 884 13 60 142 189
3 885 886 887 8 54 161 222
3 888 889 890 4 49 179 197
3 891 892 893 2 44 196 193
3 894 895 896 1 40 211 180
3 897 898 899 1 35 224 244
