COFF
600 200 0
-0.028830822215278176 -0.6571484598446057 0.2245305957494077
-0.11789899603143147 -0.6315239141327231 0.2245305957494077
-0.09916296388891079 -0.7198941790766022 0.2245305957494077
0.026267679884261104 0.04070664012593099 -1.0226264041606057
-0.06955658810022643 0.08112367917886286 -1.0226264041606057
-0.05483697490277312 -0.03354111326768121 -1.0226264041606057
-0.2049934906238378 -0.2777309978030107 0.7852977138901789
-0.3095162778548561 -0.23042448733205995 0.7852977138901789
-0.30239696541042077 -0.3458704176696136 0.7852977138901789
1.034127465957242 0.32882567417198405 -0.18372007892912307
0.9515056484578398 0.3681115368433215 -0.18372007892912307
0.9704187070272946 0.2786375092405268 -0.18372007892912307
0.6188922132899405 0.15433143115846365 -0.49079632239880144
0.5594602297168314 0.17631966300085505 -0.49079632239880144
0.5677519764461249 0.12252136460714522 -0.49079632239880144
0.4767326173513543 -0.322878225646903 -0.5014598880035182
0.4026095873191242 -0.2982042438627606 -0.5014598880035182
0.4150152138578671 -0.37778034374248626 -0.5014598880035182
0.17481856605618612 0.12114684281677474 0.6165296887942602
0.0751490428172483 0.1637579394177747 0.6165296887942602
0.07998585978163245 0.05312705317001484 0.6165296887942602
-0.305161933608425 0.18797233056031154 0.618829731064236
-0.39557477445559486 0.2373039050260452 0.618829731064236
-0.3914313272538025 0.13587101021362688 0.618829731064236
-0.05120927778728586 0.1295783035376845 -0.9253986349766231
-0.11493136435697388 0.15479308944857118 -0.9253986349766231
-0.10605957521981921 0.09119438278137096 -0.9253986349766231
0.13658176513157427 0.1354376159154635 -0.7637296397639768
0.025784668462503713 0.1829539199952276 -0.7637296397639768
0.03684649919499678 0.06959265351045348 -0.7637296397639768
0.6883794248283179 -0.27040473311509877 0.5892956466560065
0.6319729975037875 -0.2457522489716505 0.5892956466560065
0.6359312197901278 -0.3089635171893729 0.5892956466560065
0.890762422517012 0.46310022275244506 0.5409017823454799
0.8007890533932982 0.4914701188614361 0.5409017823454799
0.8258613962930913 0.40551293291179386 0.5409017823454799
-0.0034269798124768047 -0.8656053513106903 0.02713462208134496
-0.08140937904687287 -0.8457804116790488 0.02713462208134496
-0.062343217021215314 -0.9218923805620571 0.02713462208134496
0.2993793792221987 0.07650906320663162 -0.4692263289020184
0.22446531028512282 0.09538032284289658 -0.4692263289020184
0.24363295975170765 0.023011441355141687 -0.4692263289020184
-0.01635916508138651 0.02494135672297128 0.8511874968572379
-0.09104558729884094 0.05266422247768514 0.8511874968572379
-0.0808447191411232 -0.030886083373185932 0.8511874968572379
-0.5426974834950761 -0.46569694441736686 -0.37266197470851564
-0.593754398367989 -0.4422391090986063 -0.37266197470851564
-0.5883883834194535 -0.4952464840503251 -0.37266197470851564
0.04705506111713632 -0.3291791658099181 -0.7916236489525469
-0.020718842896869157 -0.30267025207770615 -0.7916236489525469
-0.006722297386834701 -0.37426243136485576 -0.7916236489525469
0.7006556928273151 0.16086626258512055 0.530787160265958
0.6032327076026097 0.1845371486989698 0.530787160265958
0.6305014811945264 0.08958008243444687 0.530787160265958
-0.3055197976452631 -0.18517739970113617 0.6931196845010118
-0.35395789027682123 -0.1635573030883466 0.6931196845010118
-0.34950099174120886 -0.21402871378560062 0.6931196845010118
-0.1508429348014919 -0.3949340850525462 -0.5365160559423691
-0.21317489164216677 -0.3716499687301187 -0.5365160559423691
-0.2089771261900776 -0.44151800860120594 -0.5365160559423691
0.030953035294621338 0.31101249761906874 0.9801453738889535
-0.04852109974821368 0.3409143581338387 0.9801453738889535
-0.036778651391106254 0.25366943990217733 0.9801453738889535
-0.45842510299349454 0.01695090440408815 -0.5269076228234513
-0.531013425879115 0.0530363489502305 -0.5269076228234513
-0.5174532612100947 -0.03518085589831809 -0.5269076228234513
0.7799582692829683 0.33381980328380056 -0.2545289381430145
0.6737052593531573 0.36352946707566985 -0.2545289381430145
0.6902563004278548 0.26136780249983044 -0.2545289381430145
0.8999244703964103 0.2855598302976292 -0.3120395634680199
0.7887997390696069 0.3245932383613561 -0.3120395634680199
0.8013216505847481 0.20642170591266218 -0.3120395634680199
0.6893895982815501 -0.1296467857020348 0.2509186471401027
0.6056332616810388 -0.08613445488456463 0.2509186471401027
0.6104352684700948 -0.18085229369140193 0.2509186471401027
0.28199303473693244 -0.1453626596498436 0.9926529457269689
0.18880130259722505 -0.10375728687617182 0.9926529457269689
0.20116924027718808 -0.20143486408669548 0.9926529457269689
-0.46110981719900296 0.6483721680306919 -0.007803429521312256
-0.5312522188663804 0.6787018693226212 -0.007803429521312256
-0.5202567788010738 0.6014785906304252 -0.007803429521312256
0.0903071544723894 -0.6680293792431672 0.29023380541249616
0.01719522817562283 -0.633843734571642 0.29023380541249616
0.027086423584685406 -0.7180164298775563 0.29023380541249616
0.025367546030837327 0.15403548846013862 0.7753664236350548
-0.030778563406765477 0.17731909870491844 0.7753664236350548
-0.02055411499192939 0.12081434274310769 0.7753664236350548
-0.12179796255061465 0.25835692752150086 0.5657671768149836
-0.19604402270089957 0.2874922864218919 0.5657671768149836
-0.1875312079866835 0.20427301993205932 0.5657671768149836
0.30939762770535073 -0.3592646100847023 -0.8222301770915758
0.20424488349943354 -0.31055638072873115 -0.8222301770915758
0.22587021615611527 -0.42642646253838057 -0.8222301770915758
0.5992593201968198 0.5809961523339581 -0.5581383768021688
0.5226820973655892 0.6009560590586351 -0.5581383768021688
0.5379566349681497 0.5256672782947828 -0.5581383768021688
0.5830417144691649 0.24597160101383173 -0.6471578681184952
0.536081164333857 0.2690364023517768 -0.6471578681184952
0.5379097802862535 0.2152379188840957 -0.6471578681184952
0.2596541991308666 0.2328544607410537 0.7097610150335765
0.17209940360303203 0.27112188602434995 0.7097610150335765
0.19341112324110632 0.1793878110310338 0.7097610150335765
-0.9316381470970001 0.5839916795285481 0.0640581359631344
-0.9873738130019685 0.6015683881293207 0.0640581359631344
-0.9768448838172117 0.5490675295885198 0.0640581359631344
-0.5249014831639607 -0.32871505238074783 -0.3300337834338788
-0.6256963328935375 -0.2950155426591637 -0.3300337834338788
-0.6175532189665238 -0.39933425464117445 -0.3300337834338788
0.23634861779966088 0.05391312409068819 -0.9620596584552912
0.12945902678616228 0.09729890754099293 -0.9620596584552912
0.15006853982450774 -0.02478041159606144 -0.9620596584552912
0.04422244052075963 -0.06410067192230949 -0.8625038579266614
-0.008339220524029703 -0.04500235402167169 -0.8625038579266614
-0.0019625024540227513 -0.10655348710489665 -0.8625038579266614
0.20620383771223189 -0.585730547784734 -0.6114397331477202
0.14528777206192367 -0.5626004136462344 -0.6114397331477202
0.15599251628050237 -0.6192532995982167 -0.6114397331477202
-0.7936182995436553 0.1588040671723526 0.014471406331704623
-0.8766930169855273 0.19541017774158298 0.014471406331704623
-0.8591491801814846 0.10137584410104991 0.014471406331704623
-0.22633424805724356 0.4225783599102483 -0.6421941603752996
-0.3206241544560039 0.4617595276019818 -0.6421941603752996
-0.3010178364304222 0.35190307611969024 -0.6421941603752996
-0.8164134450841024 -0.18231327889944263 -0.25268717451732264
-0.893655819138133 -0.15791636796201444 -0.25268717451732264
-0.8746716598492914 -0.24466542118175527 -0.25268717451732264
0.41678097817368454 0.6905064229402316 -0.04677977864022122
0.35391617829107286 0.7163680123412843 -0.04677977864022122
0.36555235179019374 0.6396907570755742 -0.04677977864022122
-0.22728681185933197 -0.5116402178936721 0.1973769876476011
-0.2893384749404028 -0.4905296835612156 0.1973769876476011
-0.27968063683293953 -0.5550765762600303 0.1973769876476011
0.4416890269477175 -0.6318147302737387 -0.40370023038562924
0.360309642295422 -0.6023521437113727 -0.40370023038562924
0.3652608651456622 -0.6909006135497043 -0.40370023038562924
-0.2719889388403435 0.11941575020440508 0.527318750856083
-0.333978501346811 0.1415989453060375 0.527318750856083
-0.3256084557142943 0.06978549890883001 0.527318750856083
-0.07005616410685467 -0.14227497290886504 -0.6831398543384412
-0.13599956547944503 -0.11486227240985133 -0.6831398543384412
-0.1245879331053854 -0.17922064622882392 -0.6831398543384412
0.19732675479557352 -0.11999711043614658 0.6079553493541037
0.13224051560862204 -0.10206442167277176 0.6079553493541037
0.14667088931532307 -0.1691122574635913 0.6079553493541037
-0.24273253454078453 -0.6480641248540585 0.06521250308681968
-0.2927475998202138 -0.6271448942957188 0.06521250308681968
-0.2832303672172761 -0.6832972033176982 0.06521250308681968
0.31163159446862415 0.5264189483856768 -0.4991877338248466
0.24702703627066122 0.554199674588446 -0.4991877338248466
0.25426544957673497 0.4850638278460543 -0.4991877338248466
0.41619209576752025 -0.8331333706209186 -0.3975493032508606
0.33586555373299376 -0.8099522646995896 -0.3975493032508606
0.35652151616880623 -0.8912113192338641 -0.3975493032508606
0.24731315196269943 0.21147979236011577 0.5301276776403906
0.1663784336124215 0.2419561364751141 0.5301276776403906
0.18320254814105708 0.16120272433793253 0.5301276776403906
0.1726219523123812 0.26204201575485747 -0.8083668294031823
0.11867279250850929 0.2785151594424346 -0.8083668294031823
0.1272302345154389 0.22885360661417273 -0.8083668294031823
0.6076105066216965 0.12856044479841117 -0.15376064831928762
0.5497258578729736 0.1527932265580752 -0.15376064831928762
0.5563183378293657 0.08699267495172447 -0.15376064831928762
0.6230061643489299 -0.0754232922722985 -0.17328753113017648
0.5387543933272773 -0.042468284364060874 -0.17328753113017648
0.5410202413824141 -0.13814582267697875 -0.17328753113017648
-0.23856958220456348 0.06448608868318191 0.8244481743108414
-0.33240540181394973 0.10199624820803355 0.8244481743108414
-0.31872976514470647 -0.014383863942609133 0.8244481743108414
0.20435804659244672 0.3404659307061287 0.6119948242973574
0.09662603609649897 0.36528658625212873 0.6119948242973574
0.1134814866575548 0.26538462245795186 0.6119948242973574
0.8491400090614221 -0.10320310770102119 -0.025996591136591703
0.7704891527245828 -0.08054597070691484 -0.025996591136591703
0.7842700961741942 -0.15358164147888154 -0.025996591136591703
0.27482971620027125 0.08292855092878353 0.8844702611589207
0.17988149704792894 0.11884969689672734 0.8844702611589207
0.20700604887765034 0.02704253645421137 0.8844702611589207
0.0200505254754972 0.3259785218126173 -0.2660990594768685
-0.027832516634271498 0.34254020123272827 -0.2660990594768685
-0.01960542854523418 0.2880754721383005 -0.2660990594768685
0.11606215962081516 -1.0358290786111453 0.019349440761698943
0.057543909583535835 -1.0099207776712225 0.019349440761698943
0.06880401943026912 -1.0812670856900894 0.019349440761698943
-0.03318564623145107 0.48100749276676735 0.5385551332285111
-0.09486972435091168 0.5056066422699015 0.5385551332285111
-0.08581427682703548 0.4463880803578998 0.5385551332285111
0.1577084639441395 -0.12035849326965871 -0.7713796169866477
0.08157491218140722 -0.09084293988354564 -0.7713796169866477
0.08717678201448217 -0.1714042701163002 -0.7713796169866477
-0.34333289732730077 0.6274061245022198 -0.04104221415610081
-0.4362793296587568 0.6598546879015041 -0.04104221415610081
-0.42471630560069934 0.5704875694331911 -0.04104221415610081
0.16880087100789043 -0.19033022336076744 0.6853314981196574
0.07298935467072981 -0.15769701211412315 0.6853314981196574
0.08757151029502291 -0.26012825299871173 0.6853314981196574
0.37462842587900363 -0.3909818928189023 -0.788334881081271
0.30878351565586165 -0.372596876510955 -0.788334881081271
0.32359565931667567 -0.43575491722096965 -0.788334881081271
0.42321585657021765 -0.3889639837957943 0.4082965983250401
0.3093653014459898 -0.3484509783229995 0.4082965983250401
0.32452125876197235 -0.4508494282758033 0.4082965983250401
0.4346395588579357 0.6516623185985239 0.189094271214799
0.38281758205276767 0.6731509501758932 0.189094271214799
0.38963590560972644 0.6187515912838837 0.189094271214799
0.7384672561589817 -0.26085353651844606 0.506362897316573
0.6540876476265463 -0.22661096219680626 0.506362897316573
0.6628976667015152 -0.3084701303394937 0.506362897316573
0.559816702316905 0.5111792411817945 -0.4602526583700391
0.4889672025963588 0.5392288332093146 -0.4602526583700391
0.5022959066059977 0.45355721560808415 -0.4602526583700391
-0.12506126069727772 -0.11604794063079867 -0.7449372092819324
-0.2087799515239738 -0.07777527681800714 -0.7449372092819324
-0.20154699280313934 -0.17131680125212548 -0.7449372092819324
-0.6832391007795174 0.6537041229248681 -0.21364584261985914
-0.7922742625685235 0.6946455516428256 -0.21364584261985914
-0.7698286437039978 0.5810211514289166 -0.21364584261985914
0.43672581922397163 -0.3920710769614277 0.4898133572394533
0.33422204010992335 -0.35847892391407976 0.4898133572394533
0.3589959761912461 -0.4728053036593153 0.4898133572394533
-0.11094606492702899 -0.0006172702413889137 -0.7696391681296416
-0.18077871107836724 0.01597137473393886 -0.7696391681296416
-0.17057190393515917 -0.049417667512956426 -0.7696391681296416
0.03977604344894366 -0.341646320376915 0.5614756301183211
-0.04763376192048608 -0.3001026598349397 0.5614756301183211
-0.040498758873890046 -0.3944902398096949 0.5614756301183211
-0.6445447003307729 0.6665046944755326 -0.07846370793657623
-0.7308912041024912 0.6987623470477589 -0.07846370793657623
-0.7158411505556476 0.6070339407593566 -0.07846370793657623
-0.4802915013384313 0.4440211137334349 -0.3249854699427188
-0.5699279188704292 0.485290887543088 -0.3249854699427188
-0.5582055398835266 0.39094718791553273 -0.3249854699427188
-0.2491942132761061 -0.9571066667114778 0.39285160613900183
-0.3036908671198092 -0.9347790924276467 0.39285160613900183
-0.3011324094351747 -0.995688672527065 0.39285160613900183
-0.1939026975898855 0.4517853481267365 -0.7063042025993244
-0.2414707252382719 0.47005328929224904 -0.7063042025993244
-0.2392630668336453 0.41736226646750063 -0.7063042025993244
0.10967065531593605 0.07280044566124597 0.7350011896632924
0.05622603714776619 0.09050004430106569 0.7350011896632924
0.06635452362567575 0.0335863403503986 0.7350011896632924
-0.42963219768913335 0.27843561400872474 0.15180816384901744
-0.5066159239825783 0.30401550120302445 0.15180816384901744
-0.49237133161467117 0.21742737529861078 0.15180816384901744
-0.6773353092975808 -0.12348811298489526 -0.26235663038692614
-0.7683362570303531 -0.09537510954448211 -0.26235663038692614
-0.75127159361952 -0.18955369742178116 -0.26235663038692614
-0.327641978815254 0.3523055316703736 -0.6687360311571867
-0.38833273523106726 0.37667710410126787 -0.6687360311571867
-0.38480917461953423 0.30356771314573616 -0.6687360311571867
0.125602162223089 0.9095207733660522 -0.45823232648052564
0.05552195609076771 0.9451760378389502 -0.45823232648052564
0.05842358873291115 0.8651891271701313 -0.45823232648052564
0.4133014162157654 -0.23483010567873444 0.5934752560831585
0.32273038051277014 -0.19643130290875233 0.5934752560831585
0.33888669490497686 -0.28430959335145184 0.5934752560831585
0.63201622174404 -0.045071885100738354 0.5181932399074627
0.5552233950337601 -0.024850074678676923 0.5181932399074627
0.5718423740954978 -0.09793125115008161 0.5181932399074627
0.36278188998124916 0.10368205179667493 -0.8021222860160405
0.26862257580051874 0.1456090474242154 -0.8021222860160405
0.282030108138595 0.044364720385461326 -0.8021222860160405
0.110522000497909 -0.7539353295467734 0.05745660259346196
0.012152590578190757 -0.712698080789183 0.05745660259346196
0.03194314527834931 -0.8103126527477474 0.05745660259346196
0.43169402271309254 -0.26538331026091705 -0.27929104751098854
0.3566993318454774 -0.24012898144157505 -0.27929104751098854
0.36306878840464907 -0.3173489205806758 -0.27929104751098854
0.2666476192896705 0.5070955480724392 0.7874929625270681
0.18578412801012115 0.5389692310696472 0.7874929625270681
0.19742008158579183 0.45132706696808617 0.7874929625270681
0.40472323344895833 0.6564713007524534 -0.18367092527790152
0.2986229437956199 0.6914308393160995 -0.18367092527790152
0.3262785427602641 0.5842380259789773 -0.18367092527790152
-0.10033504581200675 -0.6765575060694584 0.2986004268555938
-0.15391537420333237 -0.6584790346677781 0.2986004268555938
-0.14380644196005749 -0.7158264591543734 0.2986004268555938
0.031101252130144457 0.09973628977637114 -0.6577688077739327
-0.039138628624386815 0.11735401621484262 -0.6577688077739327
-0.021681508760986543 0.04802181867233104 -0.6577688077739327
0.012121198418852824 -0.6433215123992392 -0.1339792101517661
-0.055485556468012204 -0.6173662538490184 -0.1339792101517661
-0.049229808303908384 -0.6912854040857125 -0.1339792101517661
0.27588410765380467 -0.11381155502114251 0.6448089375738876
0.1983050589333641 -0.08240095818762652 0.6448089375738876
0.2152103082469113 -0.16557116989395693 0.6448089375738876
0.03155190571548104 -0.11066951667743924 -0.5440610301707858
-0.06623758887332132 -0.07260828583895668 -0.5440610301707858
-0.05713382261424567 -0.18571975602594884 -0.5440610301707858
0.18066079773092356 -0.08473763173414296 0.8464062422886436
0.1112440503536527 -0.06344513902101484 0.8464062422886436
0.12490908844203855 -0.12864644097458017 0.8464062422886436
0.052050373160326846 0.026112376893121257 1.0685585175760197
-0.025921474319919834 0.055981570297747835 1.0685585175760197
-0.013510919570445744 -0.03652386613555808 1.0685585175760197
0.4228140840184771 -0.4579181071152068 -0.31333526241865983
0.37558893377353286 -0.4331077569413266 -0.31333526241865983
0.37843525721311977 -0.48818090062342473 -0.31333526241865983
0.05067309245540182 -0.13298076273515994 0.797447985889313
-0.01597385598312775 -0.10169529891169304 0.797447985889313
-0.007559733745946853 -0.18165408485547963 0.797447985889313
-0.005404680229687486 0.211230774913647 0.32038668709882084
-0.10696726672190587 0.26091994522193346 0.32038668709882084
-0.08998713209398616 0.14196961424825313 0.32038668709882084
-0.5559805397560533 -0.31294296697093377 -0.3779910249168514
-0.6518255542311346 -0.2768883903946776 -0.3779910249168514
-0.6337790649371209 -0.38369674794461284 -0.3779910249168514
0.21627228544943158 0.5356033241505281 0.8024410027753911
0.16456701515124714 0.5548630173446923 0.8024410027753911
0.1765062529706264 0.5028470089041378 0.8024410027753911
0.45881576711558775 0.28893496573519506 -0.418608928935559
0.358292007598654 0.3341444481903407 -0.418608928935559
0.37722648915155327 0.21318872981388187 -0.418608928935559
-0.09743162896322363 0.24121473875039937 0.6294513253965554
-0.16119752830350742 0.2653327469247634 0.6294513253965554
-0.15077988100541903 0.18716942603618106 0.6294513253965554
0.013320136412154175 -0.008984886272597928 0.8835665583472558
-0.0423287575894169 0.008894382717021719 0.8835665583472558
-0.033272164606130236 -0.049323933270997475 0.8835665583472558
0.028123266084176906 -0.0470758950661031 -0.5392704260330912
-0.05480221755615462 -0.010715369936690831 -0.5392704260330912
-0.04730582242688623 -0.09977708729864164 -0.5392704260330912
0.8063214916595327 0.17595862288038336 -0.38758427419593666
0.7007144612666799 0.21441504673770317 -0.38758427419593666
0.7216165947509849 0.09478555163315865 -0.38758427419593666
0.08042041759888918 0.2572028799111192 -0.6714352254004573
0.0005317826163358658 0.28378773020282655 -0.6714352254004573
0.019714679065828182 0.19342684353947512 -0.6714352254004573
0.39081627000222086 -0.47942198024751054 -0.21177343959303246
0.29410912913327536 -0.4304880638408454 -0.21177343959303246
0.30669844459997 -0.5358328085613333 -0.21177343959303246
0.3330464228570961 -0.8656634080797939 0.19403957031785699
0.27686645932848547 -0.8391597705408089 0.19403957031785699
0.28931604733873656 -0.900743180115503 0.19403957031785699
-0.5100784258578618 -0.5192785552518968 -0.12576705626148266
-0.5933650153974798 -0.4949757177238458 -0.12576705626148266
-0.5781226708743779 -0.5765329417670279 -0.12576705626148266
-0.1083320058700757 0.5141247598195973 -0.7142387066802496
-0.21867851772833785 0.5566800756522685 -0.7142387066802496
-0.20061565132036502 0.43908776926660564 -0.7142387066802496
0.50468724138996 0.22184703293614907 -0.7444727522570266
0.41264503010822046 0.26793840007787023 -0.7444727522570266
0.43233719613022836 0.1614805081970543 -0.7444727522570266
0.15336775115501608 -0.5019818610204124 0.3930237916765445
0.07081400292088763 -0.4633521559491984 0.3930237916765445
0.08539708231513651 -0.5578433652808465 0.3930237916765445
0.4782741509341055 0.3469809379436761 0.33860985272462246
0.3839336657662826 0.39287919156164813 0.33860985272462246
0.3914956291582351 0.28579028362757863 0.33860985272462246
-0.5916052256980453 1.0282613161649794 0.23231531700370056
-0.6941740753527933 1.0695166372211729 0.23231531700370056
-0.6767025877863165 0.9686708899585532 0.23231531700370056
0.042664538018278936 0.2564538581278585 -0.7484488886383492
-0.026391815335595016 0.2902733580460472 -0.7484488886383492
-0.020154392842126445 0.2095494866099764 -0.7484488886383492
0.32498705393561367 -0.8553753090187318 -0.364124612235909
0.22436424017807566 -0.8129073846821379 -0.364124612235909
0.23360322352177243 -0.9348902888786017 -0.364124612235909
0.8305171653682198 0.05731125385630914 0.8239381410938467
0.7238808641956943 0.0912754132311866 0.8239381410938467
0.7461562510202737 -0.009463249564019477 0.8239381410938467
0.3401332484266605 -0.49240684663135564 0.21960724943774504
0.2263078000301732 -0.4474458532281773 0.21960724943774504
0.24261208748795016 -0.56560877820044 0.21960724943774504
0.3944710906688373 -0.12436246523357085 -0.5504258868643649
0.30488932544294733 -0.09269605694001815 -0.5504258868643649
0.31415803289744226 -0.18941167845907764 -0.5504258868643649
0.00041037799541888964 0.8680933964538012 -0.11773856506699673
-0.07293273008762421 0.9060647267515813 -0.11773856506699673
-0.06474650705493921 0.8218061545358307 -0.11773856506699673
-0.19901082049204755 -0.13096366555042332 0.8668447235877121
-0.2659785850343786 -0.10828300670501553 0.8668447235877121
-0.24937614683161258 -0.17376834178377779 0.8668447235877121
0.04239513315543087 0.026127499765301803 0.5812954146704893
-0.021740200024475444 0.05524049084413788 0.5812954146704893
-0.012669740467408257 -0.014299801699033804 0.5812954146704893
-0.47696185323515405 -0.36895238923597073 0.3591013669605851
-0.553548282073725 -0.33533733647620967 0.3591013669605851
-0.5414198811101104 -0.4107314386974074 0.3591013669605851
0.6625356220536314 -0.058614757663633305 0.19052518740950106
0.5644553098679724 -0.014316448112551568 0.19052518740950106
0.5786104066764308 -0.11796742650465182 0.19052518740950106
0.06769058119075529 0.05446457097223234 0.5075764407230506
0.022226655237652986 0.07740114584961774 0.5075764407230506
0.027551555631035077 0.022548041563761778 0.5075764407230506
0.16315041538879582 0.1967488514710489 0.6839793535845706
0.10603391262227466 0.22485042578999984 0.6839793535845706
0.11355654642940186 0.15793158354636092 0.6839793535845706
-0.39990745617990486 0.04266002839780078 -0.616720460453004
-0.4519663553347749 0.056739566951342066 -0.616720460453004
-0.4412511411521384 0.006563365011224322 -0.616720460453004
-0.27904803089367036 0.4322763116765905 -0.06392125628724905
-0.3319784452676211 0.4528995671157405 -0.06392125628724905
-0.3198986761371019 0.3923077570833291 -0.06392125628724905
-0.3870771066120907 -0.18711938743696058 -0.18267411776413758
-0.4751262493868888 -0.14158784598622615 -0.18267411776413758
-0.4602372743079219 -0.24445917378092302 -0.18267411776413758
-0.12311945900268315 0.1372099531172338 0.40861678513819255
-0.21710106989254516 0.17639968750880308 0.40861678513819255
-0.21258442230390523 0.07047003893147824 0.40861678513819255
0.019056505995047695 0.7024454492852199 0.04980823556882161
-0.060327555932588386 0.7314404102230976 0.04980823556882161
-0.0458658918963501 0.657700863876626 0.04980823556882161
0.3859007553776476 -0.15070139738052132 0.3901033657622137
0.29893366157711265 -0.11325399170468606 0.3901033657622137
0.3142185985361165 -0.21775022427382384 0.3901033657622137
0.3235834825788717 0.02927541619465853 -0.7546591318846787
0.20759330654810113 0.07556180198354671 -0.7546591318846787
0.23130580674186144 -0.0344561238728746 -0.7546591318846787
-0.029445646018709595 0.5291883558498074 -0.5822028469802345
-0.13224244538038066 0.5823919947304367 -0.5822028469802345
-0.12416437034978489 0.4674733145773633 -0.5822028469802345
0.6779535050016362 -0.18957267680648276 0.7911893690562943
0.6066805812304894 -0.15382478883041847 0.7911893690562943
0.6199051379974413 -0.23972207847718674 0.7911893690562943
-0.6041865173868878 -0.03187193002013287 0.5121557356139987
-0.7061042799872849 0.008488035894762845 0.5121557356139987
-0.6782918570866464 -0.08922785222478143 0.5121557356139987
-0.060845813676073675 0.056422727401575785 -0.7556524740659128
-0.15599179938564864 0.08745546010486652 -0.7556524740659128
-0.1394720653801547 -0.004609581270129774 -0.7556524740659128
0.5574629614827613 0.6089959326492317 0.438648019455516
0.4811386096205309 0.637077180108962 0.438648019455516
0.49066596244651906 0.5539116342251054 0.438648019455516
0.11814674784140741 -0.4609446349747383 -0.4689705961756489
0.04944846184144065 -0.43012660682554843 -0.4689705961756489
0.0630153944754772 -0.508587725776178 -0.4689705961756489
-0.03686368411504362 0.5700683126721438 0.36253479322624127
-0.15251049760032398 0.609064110809938 0.36253479322624127
-0.1247336958136742 0.49513117995690387 0.36253479322624127
-0.5251711681848567 0.12705707492517057 0.39645659189199034
-0.575761751442018 0.14873929110077486 0.39645659189199034
-0.5646301204034598 0.09519146836705632 0.39645659189199034
0.6043932377215482 -0.3323335810376209 -0.019536087042510447
0.48766565527623135 -0.2873129300383708 -0.019536087042510447
0.5156525367726397 -0.40212992106676015 -0.019536087042510447
-0.4421388211179189 -0.3211817910084838 -0.4443010284477471
-0.50250371270827 -0.2921089671205019 -0.4443010284477471
-0.4954089989558024 -0.3633639930059293 -0.4443010284477471
1.0635381587032628 0.11602792298811129 -0.2107309511839879
1.0003833676982166 0.13607547671555853 -0.2107309511839879
1.0139538399571517 0.07670449760329623 -0.2107309511839879
0.11950303018259462 -0.07320107794001188 0.8378334144588122
0.031847596378164776 -0.04494765868980904 0.8378334144588122
0.047188184250562065 -0.13640764665031196 0.8378334144588122
0.028377853922228094 -0.33326244723811727 0.5924882606287104
-0.0644125289808227 -0.290265159281604 0.5924882606287104
-0.058533552696854285 -0.40123945390997057 0.5924882606287104
0.08724974737278657 -0.192893908979999 0.7161694267283448
-0.0006310461037280987 -0.15593242655973277 0.7161694267283448
0.019676488117051597 -0.2541818489415597 0.7161694267283448
0.03609478787856178 0.09625872325941538 0.6552383915455973
-0.03018132748527938 0.12548282185358142 0.6552383915455973
-0.024142020545086885 0.05963196114062207 0.6552383915455973
0.6738756379224902 -0.2131820226427265 -0.6062710981288155
0.5589336118514839 -0.1642067431054081 -0.6062710981288155
0.5865412867172578 -0.28461715498354273 -0.6062710981288155
0.12836476945031983 0.2724486037763645 0.764518295904514
0.04083660450822188 0.3171562633707671 0.764518295904514
0.0544963232505315 0.21128972690481249 0.764518295904514
0.12806844828360922 0.2808252017589805 0.8565067505408167
0.03393121410006201 0.3208834508258187 0.8565067505408167
0.046648834696738306 0.22777535198886045 0.8565067505408167
0.19202254649546455 0.011664890173435371 -0.6053343179031379
0.10623868114758402 0.05664325701183362 -0.6053343179031379
0.12204512429567124 -0.0477105771757943 -0.6053343179031379
0.652223092503225 -0.27984139982479067 -0.20851787728232543
0.5745922972343953 -0.24709764584627772 -0.20851787728232543
0.5908452621128422 -0.32397124148636414 -0.20851787728232543
0.3073615693261202 -0.5380845261801998 -0.6332337088762017
0.24487590162354964 -0.510779132523585 -0.6332337088762017
0.24656896524934002 -0.5825044610436283 -0.6332337088762017
0.25199620674808715 -0.48995314409448787 -0.6153012082682606
0.2016916213435916 -0.4695025172798186 -0.6153012082682606
0.211782948521836 -0.5292905438712051 -0.6153012082682606
-0.0020329395587884713 -0.650739775155064 0.29327752450069977
-0.0845356333269061 -0.6106023370413813 0.29327752450069977
-0.06657815843448292 -0.7013988920901213 0.29327752450069977
0.10419952972023919 -0.21041164632360854 -0.9707616709352117
0.028467017196528988 -0.18500259718726775 -0.9707616709352117
0.04417668549969668 -0.26214771209526183 -0.9707616709352117
-0.7843308865845084 -0.020112839039221626 -0.10174182308949102
-0.8620676632069315 0.017364867471022505 -0.10174182308949102
-0.8467795939093739 -0.07616483181482957 -0.10174182308949102
0.021235317929109987 0.5709084460107873 -0.9427426678183837
-0.06833326075759455 0.6111731953804573 -0.9427426678183837
-0.06283208481660724 0.5091477594155412 -0.9427426678183837
0.27452285444756314 0.2020296251782615 -0.8407286570690279
0.1719292797376289 0.24804372083845588 -0.8407286570690279
0.1814053261853627 0.12374350269893192 -0.8407286570690279
0.17881473497676886 0.276318578219163 -0.42454547835725515
0.10429688191135539 0.2992639212816616 -0.42454547835725515
0.12414465228600292 0.22110486721046022 -0.42454547835725515
0.1082973091419443 0.2798477722231141 0.5812500721047372
0.004623356495325068 0.31726410444945524 0.5812500721047372
0.0197919415086186 0.21474998622610636 0.5812500721047372
0.03437240003784603 0.04700910501775728 -0.8026892687372857
-0.012482174737078213 0.06871379564115762 -0.8026892687372857
-0.00935650888720473 0.012887754770805629 -0.8026892687372857
0.14391549322614572 0.5005181123915708 -0.2363703859730498
0.054286153510722815 0.5370969751920878 -0.2363703859730498
0.06320437104961722 0.44381249665108347 -0.2363703859730498
0.24386017029261767 0.24872079907598474 -0.8250187862384057
0.1718191985694423 0.2769774742052707 -0.8250187862384057
0.18276183109097002 0.20589826387544025 -0.8250187862384057
-0.3585067236103495 0.49308795486975276 0.3731234899612064
-0.4100633597999549 0.5110870896438992 0.3731234899612064
-0.40291032426494966 0.46340116168068096 0.3731234899612064
0.16651022891376477 0.5956191015935187 -0.4863615338918126
0.09429871239871301 0.6162239871975916 -0.4863615338918126
0.10546301983839064 0.5490895419714356 -0.4863615338918126
-0.16274932954908616 -0.514652744497772 0.3236508873867415
-0.24501919764249322 -0.4759250721757492 0.3236508873867415
-0.23532600228156653 -0.5690481771950642 0.3236508873867415
0.5367561589593788 0.40724066686907207 -0.10562315940177537
0.4646096588999818 0.4315651819617616 -0.10562315940177537
0.4807787710859247 0.3479251434229314 -0.10562315940177537
-0.08496431460300007 0.22321808704280063 0.9722323010843894
-0.15631808582315704 0.2588969436755262 0.9722323010843894
-0.1447263777476849 0.17432276826031798 0.9722323010843894
0.2549275672513124 -0.7629917055350004 0.09331325912132214
0.16174212615308012 -0.7213028330280462 0.09331325912132214
0.18510943884037698 -0.819060850384545 0.09331325912132214
0.07110579281220673 0.0363635697271339 -0.8430820067865819
-0.020265857734965576 0.07092839082260476 -0.8430820067865819
0.0008106295252810029 -0.019614827808178276 -0.8430820067865819
0.4039124537415121 0.20803815594256175 0.678786899708816
0.33092211573745084 0.23322544047378607 0.678786899708816
0.3411834102723112 0.1618771105852329 0.678786899708816
0.7613395837105511 -0.44409857108873596 0.6707503949804323
0.6954525213923901 -0.42101248224025806 0.6707503949804323
0.711804586783951 -0.49402468348295053 0.6707503949804323
-0.425927334364135 0.2174225118040165 0.5356074070833322
-0.5074530304157978 0.2552305417628708 0.5356074070833322
-0.49325342371994924 0.16459391650245092 0.5356074070833322
0.26513217347076673 0.40470708636301783 -0.9227808755501609
0.1909440171529027 0.4310396724164048 -0.9227808755501609
0.20617173469154335 0.35890957531743506 -0.9227808755501609
-0.07670181072880106 0.42267588382924115 0.6523310133799479
-0.12372145586853758 0.44387269552830283 0.6523310133799479
-0.11473346609200502 0.3862224736499545 0.6523310133799479
-0.263320512097414 0.5557497586776545 0.40656480678405227
-0.37302627929868865 0.5984486781278171 0.40656480678405227
-0.35688480072148265 0.488650981790987 0.40656480678405227
-0.3677979946689281 0.06185812138084815 -0.6322810725753696
-0.4238417719439525 0.08221323039794676 -0.6322810725753696
-0.4135811933548963 0.028321819003307665 -0.6322810725753696
0.25966034178321445 0.23592496468354654 -0.7551344667449302
0.15596903456212685 0.27456540051459544 -0.7551344667449302
0.17653979347036153 0.16595254130332446 -0.7551344667449302
-0.0988367331100001 0.6923764896003659 -0.38222092637708177
-0.17445946938207216 0.7162869152191942 -0.38222092637708177
-0.16600945786796087 0.6424142173076578 -0.38222092637708177
-0.003203748710331536 0.19689266462577978 0.7611247416126022
-0.07873295843684454 0.22074566233625229 0.7611247416126022
-0.0722984455350997 0.14164784894838542 0.7611247416126022
0.619296458626939 -0.0957550938372891 -0.21734034189282891
0.5528577130871455 -0.07256141736938727 -0.21734034189282891
0.5595001418943477 -0.14594399076480594 -0.21734034189282891
-0.45399870227274175 -0.6661994056065617 -0.3741331194974013
-0.5156070081467685 -0.6412158062138619 -0.3741331194974013
-0.5082430831336608 -0.7098564024097871 -0.3741331194974013
0.1295639841890948 -0.08622394162460695 0.7741340521411242
0.04425107748102035 -0.04663228452584663 0.7741340521411242
0.051610757998150084 -0.1345130770105949 0.7741340521411242
-0.367454163265895 0.834087821267006 -0.03256798312993223
-0.4430005653681061 0.8623826217286893 -0.03256798312993223
-0.4275956998329237 0.7914615437573266 -0.03256798312993223
-0.30702454351782665 0.6558487346940917 0.571377131777429
-0.3734635970238657 0.6811496865203704 0.571377131777429
-0.3593324377354335 0.6129931435481764 0.571377131777429
-0.0138848550322907 0.11763478501149097 0.5714847924210809
-0.0795175459157399 0.15139159282816894 0.5714847924210809
-0.07569420127080603 0.07538092331812399 0.5714847924210809
-0.13749599696806533 0.6268887742735861 0.03002711992007353
-0.23167711151241172 0.6605010527339199 0.03002711992007353
-0.20913755000739068 0.5615202501983846 0.03002711992007353
-0.47444180675360503 -0.08032469211467172 -0.7173944176668587
-0.5718889297949066 -0.04443171258143748 -0.7173944176668587
-0.5632149333867045 -0.14708429294514455 -0.7173944176668587
0.7588626042451073 -0.290319085951793 0.3239298360462737
0.6952429351432737 -0.26613157864884307 0.3239298360462737
0.7101446644519528 -0.3317290077468709 0.3239298360462737
0.31531274733052533 0.7911376850029708 0.28039713385066084
0.21757691510393673 0.8223489319800928 0.28039713385066084
0.23969955285829378 0.7220615001874593 0.28039713385066084
-0.5843894964794265 -0.586682878455383 -0.5276610810420026
-0.6778044459914742 -0.5547835213274477 -0.5276610810420026
-0.656556409588967 -0.6569531553469778 -0.5276610810420026
0.4785074457546949 0.553851715038058 0.13743848131305508
0.39241589210603517 0.5822698319927151 0.13743848131305508
0.4136310548245276 0.5004019689311691 0.13743848131305508
-0.5788705430239464 0.33396836638535515 0.46317022054758833
-0.6535948889221334 0.36956544689634985 0.46317022054758833
-0.6368270102481899 0.28899807434472863 0.46317022054758833
-0.22778638066132273 0.7898260025849876 -0.013735710011742636
-0.2896683123167065 0.8142420769138663 -0.013735710011742636
-0.27675368074340617 0.7434020928412911 -0.013735710011742636
0.3120654198033622 -0.2932682678806246 -0.5997021251078238
0.26198334103383036 -0.27114601221332396 -0.5997021251078238
0.2687415576461828 -0.32375736878331024 -0.5997021251078238
3 0 1 2 128 255 234 200
3 3 4 5 140 253 246 200
3 6 7 8 153 249 253 200
3 9 10 11 165 242 254 200
3 12 13 14 177 232 251 200
3 15 16 17 188 220 243 200
3 18 19 20 199 206 230 200
3 21 22 23 209 191 213 200
3 24 25 26 219 174 193 200
3 27 28 29 227 155 170 200
3 30 31 32 234 136 145 200
3 33 34 35 241 117 120 200
3 36 37 38 246 99 95 200
3 39 40 41 250 80 71 200
3 42 43 44 253 63 50 200
3 45 46 47 254 48 31 200
3 48 49 50 254 34 17 200
3 51 52 53 253 22 7 200
3 54 55 56 251 13 1 200
3 57 58 59 248 6 1 200
3 60 61 62 243 2 6 200
3 63 64 65 237 1 15 200
3 66 67 68 230 2 29 200
3 69 70 71 222 6 47 200
3 72 73 74 213 14 68 200
3 75 76 77 204 23 92 200
3 78 79 80 193 35 117 200
3 81 82 83 182 49 142 200
3 84 85 86 170 65 167 200
3 87 88 89 158 82 190 200
3 90 91 92 145 101 211 200
3 93 94 95 133 120 228 200
3 96 97 98 120 139 242 200
3 99 100 101 107 157 250 200
3 102 103 104 95 176 254 200
3 105 106 107 83 193 253 200
3 108 109 110 71 208 247 200
3 111 112 113 60 222 236 200
3 114 115 116 50 234 221 200
3 117 118 119 40 243 202 200
3 120 121 122 31 249 180 200
3 123 124 125 24 253 156 200
3 126 127 128 17 254 131 200
3 129 130 131 11 253 105 200
3 132 133 134 7 248 81 200
3 135 136 137 3 241 58 200
3 138 139 140 1 231 39 200
3 141 142 143 1 219 22 200
3 144 145 146 1 205 10 200
3 147 148 149 3 189 3 200
3 150 151 152 6 172 1 200
3 153 154 155 10 153 3 200
3 156 157 158 15 134 11 200
3 159 160 161 22 115 23 200
3 162 163 164 29 97 39 200
3 165 166 167 38 79 59 200
3 168 169 170 47 62 82 200
3 171 172 173 58 46 106 200
3 174 175 176 68 32 132 200
3 177 178 179 80 21 157 200
3 180 181 182 92 12 181 200
3 183 184 185 104 5 203 200
3 186 187 188 117 1 222 200
3 189 190 191 130 1 237 200
3 192 193 194 142 2 247 200
3 195 196 197 155 7 253 200
3 198 199 200 167 15 254 200
3 201 202 203 179 25 250 200
3 204 205 206 190 37 241 200
3 207 208 209 201 51 228 200
3 210 211 212 211 67 210 200
3 213 214 215 220 84 189 200
3 216 217 218 228 103 166 200
3 219 220 221 236 122 141 200
3 222 223 224 242 141 116 200
3 225 226 227 247 159 91 200
3 228 229 230 250 177 68 200
3 231 232 233 253 194 46 200
3 234 235 236 254 210 29 200
3 237 238 239 254 223 15 200
3 240 241 242 253 235 5 200
3 243 244 245 251 244 1 200
3 246 247 248 247 250 1 200
3 249 250 251 242 254 7 200
3 252 253 254 236 254 17 200
3 255 256 257 229 252 32 200
3 258 259 260 221 247 51 200
3 261 262 263 212 240 72 200
3 264 265 266 202 230 96 200
3 267 268 269 191 217 121 200
3 270 271 272 180 203 147 200
3 273 274 275 168 187 171 200
3 276 277 278 156 170 194 200
3 279 280 281 143 151 214 200
3 282 283 284 131 132 231 200
3 285 286 287 118 113 243 200
3 288 289 290 105 95 251 200
3 291 292 293 93 77 254 200
3 294 295 296 81 60 252 200
3 297 298 299 69 44 245 200
3 300 301 302 58 31 234 200
3 303 304 305 48 20 218 200
3 306 307 308 39 11 198 200
3 309 310 311 30 5 176 200
3 312 313 314 22 1 152 200
3 315 316 317 16 1 126 200
3 318 319 320 10 3 101 200
3 321 322 323 6 8 77 200
3 324 325 326 3 16 55 200
3 327 328 329 1 26 36 200
3 330 331 332 1 38 20 200
3 333 334 335 1 53 9 200
3 336 337 338 3 69 2 200
3 339 340 341 6 86 1 200
3 342 343 344 11 105 4 200
3 345 346 347 16 124 12 200
3 348 349 350 23 143 25 200
3 351 352 353 31 162 43 200
3 354 355 356 39 179 63 200
3 357 358 359 49 196 86 200
3 360 361 362 59 211 111 200
3 363 364 365 70 225 136 200
3 366 367 368 82 236 161 200
3 369 370 371 94 244 185 200
3 372 373 374 106 251 206 200
3 375 376 377 119 254 224 200
3 378 379 380 132 254 239 200
3 381 382 383 144 252 249 200
3 384 385 386 157 247 254 200
3 387 388 389 169 239 254 200
3 390 391 392 181 229 249 200
3 393 394 395 192 216 239 200
3 396 397 398 203 201 225 200
3 399 400 401 213 185 207 200
3 402 403 404 222 167 186 200
3 405 406 407 230 149 162 200
3 408 409 410 237 130 137 200
3 411 412 413 243 111 112 200
3 414 415 416 247 92 87 200
3 417 418 419 251 75 64 200
3 420 421 422 253 58 43 200
3 423 424 425 254 43 26 200
3 426 427 428 254 30 13 200
3 429 430 431 253 19 4 200
3 432 433 434 250 10 1 200
3 435 436 437 246 4 2 200
3 438 439 440 241 1 8 200
3 441 442 443 235 1 20 200
3 444 445 446 228 3 35 200
3 447 448 449 219 9 54 200
3 450 451 452 210 17 76 200
3 453 454 455 200 27 100 200
3 456 457 458 189 40 125 200
3 459 460 461 178 55 151 200
3 462 463 464 166 71 175 200
3 465 466 467 154 89 198 200
3 468 469 470 141 107 217 200
3 471 472 473 129 126 233 200
3 474 475 476 116 145 245 200
3 477 478 479 103 164 252 200
3 480 481 482 91 181 254 200
3 483 484 485 79 198 252 200
3 486 487 488 68 213 244 200
3 489 490 491 57 226 231 200
3 492 493 494 46 237 215 200
3 495 496 497 37 245 195 200
3 498 499 500 29 251 172 200
3 501 502 503 21 254 147 200
3 504 505 506 15 254 122 200
3 507 508 509 10 252 97 200
3 510 511 512 5 246 73 200
3 513 514 515 3 238 51 200
3 516 517 518 1 227 33 200
3 519 520 521 1 214 18 200
3 522 523 524 1 200 7 200
3 525 526 527 4 183 2 200
3 528 529 530 7 165 1 200
3 531 532 533 12 147 5 200
3 534 535 536 17 128 14 200
3 537 538 539 24 109 28 200
3 540 541 542 32 90 46 200
3 543 544 545 41 73 67 200
3 546 547 548 51 56 90 200
3 549 550 551 61 41 115 200
3 552 553 554 72 28 140 200
3 555 556 557 84 18 165 200
3 558 559 560 96 9 188 200
3 561 562 563 109 4 209 200
3 564 565 566 121 1 227 200
3 567 568 569 134 1 241 200
3 570 571 572 147 4 250 200
3 573 574 575 159 9 254 200
3 576 577 578 171 18 253 200
3 579 580 581 183 28 248 200
3 582 583 584 194 41 237 200
3 585 586 587 204 56 222 200
3 588 589 590 214 73 203 200
3 591 592 593 223 91 182 200
3 594 595 596 231 109 158 200
3 597 598 599 238 128 133 200
