# Gaussian Splat Export
# Generated by Instant3D — 300 splats
v 0.0 0.0 0.5 0.5020 1.0000 0.5020
v 0.02516309779894418 0.0025247311663111867 0.5053672322677387 0.5490 0.9961 0.5725
v 0.05009550516989786 0.010154861631814881 0.5094389488637318 0.6000 0.9961 0.6471
v 0.07395005545368644 0.022875432812467032 0.5121727415652344 0.6471 0.9922 0.7176
v 0.09588028040376553 0.04053753236542553 0.5135298051118999 0.6941 0.9882 0.7804
v 0.11506137176035859 0.0628583138775259 0.5134751621026001 0.7373 0.9843 0.8392
v 0.13071113831289705 0.0894243009800949 0.5119778765078649 0.7804 0.9765 0.8902
v 0.14211044111821028 0.11969797329635118 0.5090112546724482 0.8196 0.9686 0.9333
v 0.14862259047734988 0.15302754960418571 0.5045530327255049 0.8588 0.9569 0.9647
v 0.14971120230482474 0.18865980184376618 0.4985855493643542 0.8902 0.9490 0.9843
v 0.14495603858088746 0.22575565422124813 0.4910959030316391 0.9176 0.9373 0.9961
v 0.13406639625030645 0.26340824674531416 0.4820760925646261 0.9451 0.9255 0.9961
v 0.11689166047298137 0.30066307409861814 0.4715231404592045 0.9647 0.9098 0.9843
v 0.09342870047213588 0.3365397506811477 0.4594391979595463 0.9804 0.8980 0.9608
v 0.06382585799186893 0.37005490267778063 0.4458316312571043 0.9922 0.8824 0.9294
v 0.028383357922870663 0.40024564958128284 0.4307130881593284 0.9961 0.8627 0.8863
v -0.012449943895466003 0.42619311195739185 0.41410154466883603 0.9961 0.8471 0.8353
v -0.05808347140403891 0.4470453702755401 0.3960203309974299 0.9922 0.8275 0.7765
v -0.10779540237834266 0.4620393019154009 0.37649813662594256 0.9843 0.8078 0.7137
v -0.16074652034874712 0.4705207402059175 0.35556899411000303 0.9725 0.7882 0.6431
v -0.2159971716469266 0.4719624304002753 0.33327224142308365 0.9529 0.7686 0.5686
v -0.27252697280899485 0.4659793023056905 0.3096524627211602 0.9294 0.7490 0.4941
v -0.3292568389692644 0.45234063697478566 0.28475940750759543 0.9020 0.7255 0.4196
v -0.38507283874284837 0.4309787741822833 0.258647888271992 0.8706 0.7020 0.3490
v -0.4388513272388196 0.4019940867929004 0.23137765677232708 0.8353 0.6824 0.2784
v -0.48948476782623745 0.36565603572488825 0.20301325922522476 0.8000 0.6588 0.2157
v -0.5359076263458137 0.3224002129386134 0.17362387076430058 0.7569 0.6314 0.1569
v -0.577121709530701 0.2728213774503401 0.14328310962069393 0.7137 0.6078 0.1059
v -0.6122203230099715 0.2176625883731635 0.11206883157271672 0.6667 0.5843 0.0667
v -0.6404106435660832 0.15780063693174096 0.08006290530259139 0.6196 0.5608 0.0353
v -0.661033735051061 0.09422807378700682 0.04735096938706001 0.5686 0.5333 0.0118
v -0.6735816868836976 0.028032216398248797 0.014022171734820841 0.5216 0.5098 0.0039
v -0.6777114173122188 -0.03962839878150945 -0.019831107633131163 0.4706 0.4863 0.0039
v -0.6732547592273904 -0.10754958487845476 -0.054113549484524515 0.4196 0.4588 0.0157
v -0.6602245325088494 -0.174508502309384 -0.08872720290662646 0.3725 0.4353 0.0392
v -0.6388164016471534 -0.23929145075480887 -0.12357180634367301 0.3255 0.4118 0.0706
v -0.609406418424814 -0.300721792531905 -0.1585451209506734 0.2784 0.3882 0.1137
v -0.57254425429118 -0.35768733268548364 -0.19354327501117222 0.2353 0.3647 0.1686
v -0.5289422331301191 -0.40916648596212823 -0.22846111810958253 0.1961 0.3373 0.2275
v -0.479460379735354 -0.4542525824288984 -0.263192583697201 0.1569 0.3137 0.2902
v -0.42508779982076045 -0.49217570149963336 -0.29763105864526945 0.1216 0.2941 0.3608
v -0.36692080122075255 -0.5223214777726374 -0.3316697583386685 0.0941 0.2706 0.4353
v -0.30613825063922195 -0.5442463901899274 -0.3652021058302406 0.0667 0.2471 0.5098
v -0.24397473365020483 -0.557689127045495 -0.39812211354851873 0.0431 0.2275 0.5843
v -0.18169214567087305 -0.562577711398002 -0.43032476603092573 0.0275 0.2078 0.6549
v -0.12055038666754453 -0.559032172281944 -0.46170640214044073 0.0118 0.1882 0.7255
v -0.06177786113262801 -0.5473626543141462 -0.49216509521639595 0.0039 0.1686 0.7882
v -0.006542496500089185 -0.5280629692272316 -0.5216010296095024 0.0039 0.1490 0.8471
v 0.04407601280821285 -0.5017997047762525 -0.5499168720574829 0.0039 0.1333 0.8941
v 0.08911205210723494 -0.4693971165564509 -0.5770181363707603 0.0118 0.1176 0.9373
v 0.1277373811267717 -0.43181813375769107 -0.602813539917518 0.0235 0.1020 0.9686
v 0.15928129091825222 -0.3901419080758172 -0.6272153504240195 0.0392 0.0863 0.9882
v 0.18324710937751423 -0.34553842337668544 -0.65013972163927 0.0588 0.0745 0.9961
v 0.19932462721507468 -0.29924075996712496 -0.6715070164527894 0.0863 0.0627 0.9961
v 0.20739811294509541 -0.2525156694599185 -0.6912421161002739 0.1137 0.0510 0.9843
v 0.20754969116028926 -0.20663316256110112 -0.7092747141440947 0.1490 0.0392 0.9608
v 0.20005797042928392 -0.1628358413795085 -0.7255395939736614 0.1843 0.0314 0.9255
v 0.1853919228327299 -0.12230871920577253 -0.7399768886344568 0.2275 0.0235 0.8824
v 0.1642001335717146 -0.08615026372423126 -0.752532321863738 0.2667 0.0157 0.8314
v 0.13729565332645557 -0.05534537436111001 -0.7631574292851979 0.3137 0.0118 0.7725
v 0.10563679524114007 -0.03074096145321477 -0.77180975879399 0.3608 0.0078 0.7059
v 0.07030431979894605 -0.013024735113035018 -0.778453049247071 0.4078 0.0039 0.6353
v 0.0324755418481095 -0.0027077364683282066 -0.7830573866614632 0.4588 0.0039 0.5608
v -0.006604027687632672 -0.0001110551634953039 -0.785599337214398 0.5098 0.0039 0.4863
v -0.045650829356404916 -0.005357076775699558 -0.7860620564339513 0.5569 0.0039 0.4118
v -0.08337446881011767 -0.018365494569819018 -0.784435374066339 0.6078 0.0039 0.3412
v -0.11850924389567705 -0.03885420448071738 -0.7807158542060407 0.6549 0.0078 0.2706
v -0.1498452216055654 -0.06634508322782152 -0.7749068303769463 0.7020 0.0118 0.2078
v -0.1762581091415057 -0.10017452999343318 -0.7670184153562994 0.7451 0.0196 0.1529
v -0.19673718990394046 -0.13950853511427264 -0.7570674856379044 0.7882 0.0235 0.1020
v -0.21041063988924139 -0.18336192767521248 -0.7450776405363791 0.8275 0.0353 0.0627
v -0.2165676017017847 -0.2306213505578488 -0.7310791360397383 0.8627 0.0431 0.0314
v -0.21467647068185022 -0.2800714189887821 -0.7151087936227674 0.8941 0.0549 0.0118
v -0.20439893862842753 -0.3304234392919313 -0.6972098843380706 0.9255 0.0667 0.0039
v -0.18559944302434944 -0.3803460003887894 -0.6774319886048521 0.9490 0.0784 0.0039
v -0.15834978102180478 -0.42849670324542277 -0.6558308322169574 0.9686 0.0902 0.0196
v -0.12292876496120336 -0.47355426414999646 -0.6324680991910335 0.9804 0.1059 0.0431
v -0.07981691695721276 -0.514250217182667 -0.6074112221723849 0.9922 0.1216 0.0784
v -0.029686321087856318 -0.5493994498015909 -0.5807331512097873 0.9961 0.1373 0.1216
v 0.026614130048888882 -0.5779288329251836 -0.5525121018007796 0.9961 0.1569 0.1725
v 0.08807774513970713 -0.5989032525764476 -0.5228312831953268 0.9922 0.1725 0.2314
v 0.15356284707175913 -0.611548412945432 -0.4917786080279095 0.9843 0.1922 0.2980
v 0.2218188428525539 -0.6152698590650337 -0.45944638442563235 0.9686 0.2118 0.3686
v 0.29151492500542014 -0.6096677592358482 -0.4259309918125451 0.9490 0.2353 0.4431
v 0.36127071490302465 -0.5945470905879301 -0.39133254169768006 0.9255 0.2549 0.5176
v 0.4296881114925533 -0.5699229831572874 -0.35575452479607006 0.8980 0.2784 0.5922
v 0.49538358001754274 -0.5360210957903805 -0.3193034458879012 0.8667 0.3020 0.6627
v 0.5570201053549595 -0.4932730181309931 -0.28208844787076665 0.8314 0.3216 0.7333
v 0.6133380436892216 -0.44230681387813475 -0.24422092650348937 0.7922 0.3451 0.7961
v 0.6631841341842917 -0.3839329384225729 -0.20581413737696244 0.7490 0.3725 0.8510
v 0.7055379783643279 -0.31912587594510233 -0.16698279667781185 0.7059 0.3961 0.9020
v 0.7395353578924465 -0.2490019443181106 -0.12784267733420607 0.6588 0.4196 0.9412
v 0.7644878397422634 -0.17479380814473247 -0.08851020214980343 0.6118 0.4431 0.9686
v 0.7798982094030447 -0.09782231873709825 -0.04910203554152415 0.5608 0.4706 0.9882
v 0.7854713754311196 -0.01946636286286641 -0.009734675499522836 0.5137 0.4941 0.9961
v 0.7811204997717182 0.05886855184309073 0.029475952616526607 0.4627 0.5176 0.9961
v 0.7669682250365303 0.13578221888711456 0.06841489884200679 0.4118 0.5451 0.9804
v 0.743342989410173 0.20991139709473028 0.1069685863481081 0.3647 0.5686 0.9569
v 0.7107705390926157 0.27996046121455476 0.14502520259906765 0.3176 0.5922 0.9216
v 0.6699608642015212 0.34473031124060133 0.18247508239784968 0.2706 0.6157 0.8784
v 0.6217908939884795 0.4031448585328958 0.2192110813304514 0.2275 0.6431 0.8235
v 0.5672833883619419 0.4542744691343904 0.25512893816356247 0.1882 0.6667 0.7647
v 0.5075825525864252 0.49735582190060323 0.2901276248010084 0.1529 0.6902 0.6980
v 0.4439269784665403 0.5318077291803724 0.32410968246102373 0.1176 0.7098 0.6275
v 0.37762057649896225 0.5572425685007322 0.35698154279862115 0.0863 0.7333 0.5529
v 0.31000220795234484 0.5734730824518257 0.38865383276492504 0.0627 0.7569 0.4784
v 0.24241475260924236 0.5805144179872249 0.41904166206794374 0.0392 0.7765 0.4039
v 0.17617435642096352 0.5785813927832184 0.44806489217655754 0.0235 0.7961 0.3333
v 0.11254059349406946 0.5680810922270036 0.4756483858911462 0.0118 0.8157 0.2667
v 0.052688249016031204 0.5496010131492524 0.5017222365898554 0.0039 0.8353 0.2000
v -0.0023186152432178504 0.5238930768066729 0.5262219763486673 0.0039 0.8549 0.1451
v -0.0515497121020518 0.49185393125471644 0.5490887622257309 0.0039 0.8706 0.0980
v -0.09422817122131873 0.4545020497683734 0.5702695400954283 0.0118 0.8863 0.0588
v -0.1297463343106351 0.4129522053064352 0.5897171855149771 0.0235 0.9020 0.0275
v -0.1576773626311408 0.3683879594557661 0.6073906212055031 0.0431 0.9176 0.0118
v -0.17778242112233952 0.32203284650972447 0.6232549108300848 0.0627 0.9294 0.0039
v -0.19001331329328638 0.27512095842097045 0.6372813288527336 0.0902 0.9412 0.0039
v -0.19451055288385666 0.2288676438544996 0.6494474063642349 0.1216 0.9529 0.0196
v -0.19159696941661167 0.18444102442997307 0.6597369528627363 0.1529 0.9608 0.0471
v -0.1817670523650568 0.14293500390531785 0.6681400540784739 0.1922 0.9725 0.0824
v -0.1656723401155402 0.10534440236706452 0.674653046032653 0.2314 0.9765 0.1255
v -0.14410325273404448 0.07254278871151164 0.6792784656197323 0.2745 0.9843 0.1804
v -0.11796784954380574 0.04526351244655999 0.682024978099821 0.3216 0.9882 0.2392
v -0.08826806174909455 0.02408435206171522 0.6829072819831143 0.3686 0.9922 0.3059
v -0.05607400522070285 0.009416104118031215 0.6819459918808448 0.4157 0.9961 0.3765
v -0.02249701788454136 0.0014953372259521004 0.6791674999867301 0.4667 0.9961 0.4510
v 0.011337910873297136 0.00038143077917483743 0.6746038169389326 0.5176 0.9961 0.5255
v 0.04431964513176462 0.0059579123482162745 0.6682923928947492 0.5647 0.9961 0.6000
v 0.07537767848103959 0.017938002670783243 0.6602759197282704 0.6157 0.9961 0.6706
v 0.10350754463942193 0.03587417581267158 0.6506021153347418 0.6627 0.9922 0.7373
v 0.12779426809308023 0.05917144679524749 0.6393234910940105 0.7098 0.9882 0.8000
v 0.14743331630810758 0.08710401209132239 0.6264971036089828 0.7529 0.9804 0.8588
v 0.16174858366855008 0.11883479193698145 0.6121842918931469 0.7961 0.9725 0.9059
v 0.17020701652209294 0.1534373591586067 0.5964504012337354 0.8353 0.9647 0.9451
v 0.1724295764407446 0.18991968860578945 0.5793644950037745 0.8706 0.9569 0.9725
v 0.1681983327154996 0.22724912538168793 0.5609990557369187 0.9020 0.9451 0.9922
v 0.15745957276588757 0.26437794955538746 0.5414296768134441 0.9294 0.9333 0.9961
v 0.1403229180619632 0.30026891020986146 0.520734746133958 0.9529 0.9216 0.9922
v 0.11705653083677021 0.33392011240747344 0.4989951231791554 0.9686 0.9059 0.9804
v 0.08807859088921523 0.3643886664339147 0.4762938108692968 0.9843 0.8902 0.9529
v 0.053945309847617806 0.3908125486293362 0.45271562364590123 0.9922 0.8745 0.9176
v 0.015335830276302946 0.4124301760053442 0.42834685320050747 0.9961 0.8588 0.8706
v -0.02696557290778841 0.42859726114342583 0.4032749332712305 0.9961 0.8392 0.8157
v -0.07208951267193695 0.43880058777498493 0.3775881049173175 0.9922 0.8235 0.7569
v -0.11910320993642476 0.4426684289423174 0.3513750836650713 0.9804 0.8039 0.6902
v -0.16703335957760143 0.43997741656177336 0.32472472989546514 0.9647 0.7843 0.6196
v -0.21488957066084127 0.43065576128272265 0.29772572381468454 0.9451 0.7608 0.5451
v -0.2616878058505825 0.41478281244631615 0.27046624631386884 0.9216 0.7412 0.4706
v -0.30647325587310326 0.3925850374036662 0.24303366698367254 0.8941 0.7176 0.3961
v -0.3483421095722969 0.36442858523971344 0.2155142405031948 0.8588 0.6941 0.3255
v -0.3864617176199514 0.3308086799864498 0.18799281257152697 0.8235 0.6745 0.2588
v -0.42008869712999597 0.2923361608022436 0.16055253649397594 0.7843 0.6510 0.1961
v -0.4485845838172761 0.2497215496782773 0.13327460147420303 0.7412 0.6235 0.1412
v -0.47142870624097194 0.2037570796131828 0.10623797359838456 0.6980 0.6000 0.0941
v -0.4882280312032027 0.1552971567776048 0.07951915042843613 0.6510 0.5765 0.0549
v -0.49872380852627124 0.10523775819873331 0.053191930048630716 0.6039 0.5529 0.0275
v -0.5027949251223928 0.054495281494134774 0.027327195334022267 0.5529 0.5255 0.0078
v -0.5004579603917113 0.00398536507831195 0.0019927141303013726 0.5059 0.5020 0.0039
v -0.4918640154657723 -0.04539781370569892 -0.022747044046540207 0.4549 0.4784 0.0078
v -0.4772924656689679 -0.09280127835072213 -0.0468310742656382 0.4039 0.4510 0.0235
v -0.4571418569507504 -0.1374315813780746 -0.07020198495162824 0.3569 0.4275 0.0471
v -0.4319182312787657 -0.1785713165025955 -0.09280612881595732 0.3098 0.4039 0.0863
v -0.4022212216302619 -0.21559346425265738 -0.11459371568208035 0.2667 0.3804 0.1333
v -0.3687283030821002 -0.24797328182222086 -0.1355189070248244 0.2235 0.3529 0.1843
v -0.33217762166286674 -0.2752975148609967 -0.15553989213145186 0.1804 0.3294 0.2471
v -0.2933498464740917 -0.29727077964828236 -0.17461894587879273 0.1451 0.3098 0.3137
v -0.2530495027967427 -0.31371903676875385 -0.1927224682067045 0.1137 0.2863 0.3843
v -0.21208624446503238 -0.3245901501347613 -0.2098210054527398 0.0824 0.2627 0.4588
v -0.17125651300192246 -0.3299515961459241 -0.22588925379584668 0.0588 0.2431 0.5333
v -0.13132600944324754 -0.3299854552024342 -0.24090604513771785 0.0392 0.2196 0.6078
v -0.09301337326504086 -0.32498088008911746 -0.254854315828807 0.0196 0.2000 0.6784
v -0.05697542243996154 -0.31532429149291363 -0.26772105872153956 0.0118 0.1804 0.7451
v -0.023794260650878155 -0.3014875988845226 -0.27949725910559686 0.0039 0.1608 0.8078
v 0.006033496489364853 -0.28401478419682125 -0.29017781514901897 0.0039 0.1451 0.8627
v 0.03210518317622728 -0.2635072154331159 -0.29976144353385775 0.0039 0.1255 0.9098
v 0.05411810189996346 -0.24060807706799167 -0.30825057103605485 0.0157 0.1098 0.9490
v 0.07187303065678229 -0.215986313663847 -0.31565121285572784 0.0275 0.0941 0.9765
v 0.08527521376992302 -0.19032048258677514 -0.3219728385559513 0.0471 0.0824 0.9922
v 0.0943328922558699 -0.16428290139449997 -0.327228226515193 0.0667 0.0706 0.9961
v 0.09915348737755693 -0.1385244559573344 -0.33143330784055186 0.0941 0.0588 0.9922
v 0.0999376040384514 -0.11366040745110495 -0.3346070007257698 0.1255 0.0471 0.9765
v 0.09697106780210543 -0.09025750101189584 -0.3367710362694189 0.1608 0.0353 0.9490
v 0.09061524957564907 -0.06882263720962495 -0.3379497767946428 0.2000 0.0275 0.9137
v 0.08129596458855338 -0.04979332084929606 -0.33817002773225896 0.2392 0.0196 0.8667
v 0.06949125667106802 -0.0335300513010194 -0.33746084414381444 0.2824 0.0157 0.8118
v 0.05571839466411229 -0.020310765996384816 -0.33585333297035885 0.3294 0.0078 0.7490
v 0.04052041498192115 -0.010327395322928333 -0.3333804520961973 0.3765 0.0039 0.6824
v 0.024452543036470497 -0.0036845342846652633 -0.33007680731477423 0.4275 0.0039 0.6118
v 0.008068816771304516 -0.00040018529473766863 -0.3259784482761667 0.4745 0.0039 0.5373
v -0.008090781505844608 -0.0004084785480758328 -0.32112266448249793 0.5255 0.0039 0.4627
v -0.023512402727723824 -0.0035642326823212066 -0.31554778237905323 0.5765 0.0039 0.3882
v -0.03771936575719379 -0.009649179817084316 -0.3092929645651092 0.6235 0.0039 0.3176
v -0.05028193170445036 -0.018379646336188046 -0.30239801211964806 0.6706 0.0078 0.2510
v -0.06082563919978015 -0.029415454530385785 -0.29490317100340147 0.7176 0.0157 0.1882
v -0.06903806347557355 -0.04236979084016369 -0.28684894346026907 0.7608 0.0196 0.1333
v -0.07467390520425889 -0.05681977412339004 -0.27827590529832247 0.8000 0.0275 0.0863
v -0.0775583585350451 -0.07231745212003389 -0.26922452988357937 0.8392 0.0353 0.0510
v -0.07758875054881666 -0.08840095590872268 -0.2597350196288157 0.8745 0.0471 0.0235
v -0.07473448535414688 -0.1046055502871614 -0.24984714570513689 0.9059 0.0588 0.0078
v -0.06903536432076796 -0.12047433214394129 -0.23960009664619825 0.9333 0.0706 0.0039
v -0.06059838865056951 -0.135568348372006 -0.22903233645415683 0.9529 0.0824 0.0078
v -0.04959318091660682 -0.14947592894238354 -0.21818147275299057 0.9725 0.0980 0.0235
v -0.036246187803068514 -0.16182105856473314 -0.20708413546911686 0.9843 0.1098 0.0510
v -0.020833846656395295 -0.1722706410063267 -0.19577586645159564 0.9961 0.1255 0.0902
v -0.003674913373375703 -0.1805405426919558 -0.18429102037504363 0.9961 0.1451 0.1373
v 0.01487784147088823 -0.18640033573178214 -0.1726626771980428 0.9961 0.1608 0.1922
v 0.03444635743723582 -0.18967669411554006 -0.16092256637870134 0.9882 0.1804 0.2549
v 0.054636220488155515 -0.1902554296127683 -0.1491010029775236 0.9804 0.2000 0.3216
v 0.07504560743450181 -0.18808218514473074 -0.13722683570619595 0.9608 0.2196 0.3922
v 0.09527404594496347 -0.18316183234939493 -0.1253274069097572 0.9412 0.2431 0.4667
v 0.11493081203053247 -0.1755566461567176 -0.11342852439920866 0.9176 0.2627 0.5412
v 0.13364280470056888 -0.16538335195433518 -0.10155444498233498 0.8863 0.2863 0.6157
v 0.15106175785233708 -0.15280916000374564 -0.08972786947273693 0.8549 0.3098 0.6863
v 0.1668706717040727 -0.13804691694050805 -0.07796994889112974 0.8157 0.3294 0.7529
v 0.18078936951146474 -0.12134951536006655 -0.06630030150923724 0.7765 0.3569 0.8157
v 0.19257910923637586 -0.10300370967446627 -0.05473704032541736 0.7333 0.3804 0.8706
v 0.2020462036200738 -0.08332348975643195 -0.04329681050279379 0.6902 0.4039 0.9137
v 0.20904462516194497 -0.06264316359747711 -0.03199483624550601 0.6431 0.4275 0.9529
v 0.213477594299344 -0.04131029661218517 -0.02084497653692427 0.5961 0.4510 0.9765
v 0.21529816918669434 -0.019678648706855567 -0.009859789115659774 0.5451 0.4784 0.9922
v 0.21450887353334458 0.0018987587664063576 0.000949397978874057 0.4941 0.5020 0.9961
v 0.21116041472479807 0.023076325060173722 0.011572407999496354 0.4471 0.5255 0.9922
v 0.2053495577602134 0.04352219251804484 0.022000130966521654 0.3961 0.5529 0.9725
v 0.19721623132236862 0.062924114519198 0.032224433799845145 0.3490 0.5765 0.9451
v 0.18693995057307547 0.08099478808335557 0.04223806590865537 0.3020 0.6000 0.9059
v 0.17473564713434012 0.09747658468072286 0.05203456106095846 0.2588 0.6235 0.8588
v 0.160849000338 0.11214562691696343 0.061608136371540306 0.2157 0.6510 0.8039
v 0.14555136542391003 0.12481517234947252 0.07095358925838074 0.1765 0.6745 0.7412
v 0.12913439419975797 0.13533827848006216 0.08006619322388585 0.1412 0.6941 0.6745
v 0.11190444203154479 0.14360973477075156 0.08894159331853288 0.1059 0.7176 0.6039
v 0.09417685221128583 0.1495672582234379 0.09757570214067178 0.0784 0.7412 0.5294
v 0.07627020504321823 0.15319195859821327 0.10596459721733545 0.0549 0.7608 0.4549
v 0.05850061468089081 0.1545080877294684 0.11410442059698774 0.0353 0.7843 0.3804
v 0.04117615208533158 0.15358209470031445 0.12199128146634752 0.0196 0.8039 0.3098
v 0.0245914676708377 0.1505210149675047 0.12962116257980302 0.0078 0.8235 0.2431
v 0.00902268242479791 0.14547022704016233 0.13698983126166303 0.0039 0.8392 0.1804
v -0.005277388355620927 0.1386106151790115 0.14409275570873611 0.0039 0.8588 0.1294
v -0.01808361901562365 0.13015518098214038 0.15092502728363494 0.0078 0.8745 0.0824
v -0.02920250973917919 0.12034515084011724 0.15748128944804418 0.0157 0.8902 0.0471
v -0.038475623643593984 0.10944563024441785 0.16375567394013474 0.0314 0.9059 0.0196
v -0.045782477467668545 0.09774085995924374 0.1697417447516475 0.0471 0.9216 0.0078
v -0.05104284266576991 0.08552913322217434 0.17543245040817304 0.0706 0.9333 0.0039
v -0.054218418073887484 0.07311743748345706 0.18082008500108218 0.0980 0.9451 0.0078
v -0.055313840083270185 0.06081588873612412 0.18589625836176626 0.1333 0.9569 0.0275
v -0.0543770016266337 0.0489320311846619 0.19065187570860406 0.1686 0.9647 0.0549
v -0.05149865742765052 0.03776507974879988 0.195077127034746 0.2039 0.9725 0.0941
v -0.04681130004227188 0.02760018754846203 0.19916148644073467 0.2471 0.9804 0.1412
v -0.04048729935320759 0.018702824865267954 0.20289372155050717 0.2902 0.9882 0.2000
v -0.03273630744514078 0.01131335988340816 0.20626191308283573 0.3373 0.9922 0.2627
v -0.023801941212567092 0.0056419345054208436 0.20925348458310147 0.3843 0.9961 0.3294
v -0.013957766597487774 0.0018637304238077505 0.21185524225285587 0.4353 0.9961 0.4000
v -0.0035026209166750706 0.00011472110869593818 0.21405342474727174 0.4824 0.9961 0.4745
v 0.00724467685526802 0.00048800415398587624 0.21583376274369026 0.5333 0.9961 0.5490
v 0.017951163972441644 0.0030308052414701136 0.21718154801842304 0.5843 0.9961 0.6235
v 0.028276041796315713 0.007742239603816922 0.2180817117041147 0.6314 0.9922 0.6941
v 0.03787736125825793 0.01457190911440173 0.21851891133670187 0.6784 0.9882 0.7608
v 0.04641897975496465 0.023419402890926016 0.2184776262396481 0.7255 0.9843 0.8196
v 0.053577670524955524 0.03413475653277291 0.217942260734067 0.7686 0.9765 0.8745
v 0.0590502541723867 0.04651990986635334 0.21689725460687215 0.8078 0.9686 0.9176
v 0.0625606125257717 0.060331185486710404 0.21532720021556295 0.8471 0.9608 0.9529
v 0.06386643791791513 0.07528279069023718 0.21321696555796485 0.8784 0.9529 0.9804
v 0.06276556669505913 0.09105132391963013 0.2105518225884697 0.9098 0.9412 0.9961
v 0.05910174470668653 0.1072812440057589 0.20731758001937883 0.9373 0.9294 0.9961
v 0.05276967502672777 0.12359123679318568 0.20350071980704054 0.9569 0.9137 0.9882
v 0.043719204464826404 0.1395813897504838 0.19908853648787597 0.9765 0.9020 0.9725
v 0.03195851569945099 0.1548410615263799 0.1940692784992868 0.9882 0.8863 0.9412
v 0.01755620615101047 0.1689573107935171 0.18843229059502323 0.9961 0.8706 0.9020
v 0.0006421529428406865 0.18152372782198214 0.18216815644405013 0.9961 0.8510 0.8549
v -0.018592914723030363 0.19214949374580453 0.17526884048638633 0.9961 0.8353 0.7961
v -0.03989918904015456 0.2004684771083614 0.16772782810895007 0.9882 0.8157 0.7333
v -0.06297092779387811 0.20614816563530347 0.159540263199205 0.9765 0.7961 0.6667
v -0.08745096333690514 0.20889822385881926 0.15070308213439215 0.9608 0.7765 0.5961
v -0.11293653783679457 0.2084784646899719 0.14121514326945897 0.9373 0.7529 0.5216
v -0.1389863927385858 0.2047060256840257 0.13107735099736598 0.9137 0.7333 0.4471
v -0.16512900669371613 0.19746154881921044 0.12029277347133659 0.8824 0.7098 0.3725
v -0.1908718432691903 0.18669417622403287 0.10886675309970241 0.8471 0.6863 0.3020
v -0.21571143849747482 0.17242519340240645 0.09680700895021833 0.8118 0.6667 0.2353
v -0.23914412969199192 0.15475017592141985 0.08412373023201637 0.7686 0.6392 0.1765
v -0.2606772018479146 0.13383952488437603 0.07082966005952733 0.7294 0.6157 0.1216
v -0.2798402072353772 0.10993731029407272 0.056940168743643 0.6824 0.5922 0.0784
v -0.2961961982569268 0.08335837894888562 0.0424733159008949 0.6353 0.5686 0.0431
v -0.3093526039631157 0.0544837239983427 0.02744990072126148 0.5882 0.5451 0.0196
v -0.31897147735044235 0.02375415578440571 0.011893499789232827 0.5373 0.5176 0.0039
v -0.32477884410421987 -0.00833764292331983 -0.004169508089409479 0.4863 0.4941 0.0039
v -0.326572894025513 -0.04125655083467106 -0.020709930541160805 0.4392 0.4706 0.0118
v -0.3242307740425696 -0.07443576265273845 -0.03769576418001087 0.3882 0.4431 0.0314
v -0.3177137663065554 -0.10728865604513489 -0.05509221141787697 0.3412 0.4196 0.0588
v -0.30707066606519084 -0.13922152692658513 -0.07286171181337452 0.2941 0.3961 0.1020
v -0.29243921125662864 -0.16964691763681142 -0.09096398816934911 0.2510 0.3725 0.1490
v -0.274045458341827 -0.19799723708226688 -0.10935610751489237 0.2078 0.3451 0.2039
v -0.25220104589334014 -0.22373835306270196 -0.12799255703129384 0.1686 0.3216 0.2706
v -0.22729833782142056 -0.2463828255925962 -0.14682533490393698 0.1333 0.3020 0.3373
v -0.19980349065069863 -0.2655024466501778 -0.165804056003828 0.1020 0.2784 0.4078
v -0.170247542663221 -0.28073975684583474 -0.18487607222378655 0.0745 0.2549 0.4824
v -0.1392156756241818 -0.29181822318644574 -0.2039866072155846 0.0510 0.2353 0.5569
v -0.10733485079545484 -0.29855078438619653 -0.22307890519599927 0.0314 0.2118 0.6314
v -0.07526006860919908 -0.30084650076820363 -0.24209439341221664 0.0157 0.1922 0.7020
v -0.04365954434874397 -0.2987150842115928 -0.2609728577806487 0.0078 0.1725 0.7686
v -0.013199129173581342 -0.2922691290946452 -0.27965263113848665 0.0039 0.1569 0.8275
v 0.01547366434687239 -0.281723916819906 -0.29807079347451326 0.0039 0.1373 0.8784
