ply
format ascii 1.0
element vertex 263
property float x
property float y
property float z
property float scale_x
property float scale_y
property float scale_z
property uchar red
property uchar green
property uchar blue
property float opacity
end_header
-0.019718692865736135 -0.013560661345016548 -0.09837169716762939 0.0030465503473194604 0.0030465503473194604 0.0030465503473194604 110 121 138 0.5
-0.019712806162998697 -0.005650898992771133 -0.09831037105344752 0.0023119434714393336 0.0023119434714393336 0.0023119434714393336 106 121 137 0.5
-0.014890092748041855 -0.00963416261034062 -0.09848491329285938 0.001182221462797247 0.001182221462797247 0.001182221462797247 61 80 101 0.5
-0.010054616504045778 -0.013529196443838343 -0.09854566011819531 0.0025120044449701336 0.0025120044449701336 0.0025120044449701336 111 121 134 0.5
-0.010050533577545678 -0.005683795502779155 -0.0984453412257019 0.002721142125878565 0.002721142125878565 0.002721142125878565 108 123 138 0.5
-0.010044793298753804 0.0005176916736905313 -0.09836599050513807 0.0027649888996330086 0.0027649888996330086 0.0027649888996330086 107 121 138 0.5
-0.030090787262540327 -0.006979874183085644 0.23386430548573275 0.009952758372320505 0.009952758372320505 0.009952758372320505 111 121 131 0.5
-0.006091808735905016 -0.0095642449145921 -0.09862558787890882 0.0027923846351449754 0.0027923846351449754 0.0027923846351449754 182 170 158 0.5
-0.002139515206114265 0.0005045284697232714 -0.09866106429528275 0.002780550347341767 0.002780550347341767 0.002780550347341767 107 120 138 0.5
-0.0021260449436382015 -0.00560977374966093 -0.09874000741667677 0.0027121161270041824 0.0027121161270041824 0.0027121161270041824 105 121 137 0.5
-0.002120077185639742 0.014554476248882143 -0.09848127240036918 0.0024398426065808942 0.0024398426065808942 0.0024398426065808942 103 120 138 0.5
-0.0021046481773764015 -0.013510718846391588 -0.0988419637166652 0.0020230918468347975 0.0020230918468347975 0.0020230918468347975 104 120 138 0.5
-0.0004631263581491753 -0.011832107942281542 -0.09889894900252476 0.0016804474679875643 0.0016804474679875643 0.0016804474679875643 56 79 97 0.5
-0.0004722277245726852 0.016238912403939276 -0.09853834290228423 0.0028871481809588564 0.0028871481809588564 0.0028871481809588564 56 79 97 0.5
-0.001994106383062143 -0.04727184235098661 0.23203963994127444 0.001199598337814005 0.001199598337814005 0.001199598337814005 61 80 101 0.5
0.00752595755909021 0.00848233066113295 -0.09910386957801699 0.003370643205265291 0.003370643205265291 0.003370643205265291 103 120 139 0.5
-0.026430111879082768 -0.019821901075638935 -0.09956312811103646 0.0010000000000000002 0.0010000000000000002 0.0010000000000000002 181 170 160 0.5
-0.026008627436021243 -0.01950264417465916 -0.09948319242423102 0.0010000000000000002 0.0010000000000000002 0.0010000000000000002 181 169 159 0.5
-0.026395726391998938 0.04123166943073706 -0.09489697754250656 0.0018380918196604663 0.0018380918196604663 0.0018380918196604663 179 170 160 0.5
-0.02578309677792462 -0.023374773623904412 -0.09992136095747704 0.0018658657149576256 0.0018658657149576256 0.0018658657149576256 169 154 136 0.5
-0.023281561629828532 0.03827121498260929 -0.0956594170206061 0.0011908392831646917 0.0011908392831646917 0.0011908392831646917 180 169 161 0.5
-0.02290598719572701 0.025493174111827752 -0.09616805245062743 0.0037269188982552376 0.0037269188982552376 0.0037269188982552376 180 170 160 0.5
-0.022684896683447812 0.011336242689109642 -0.09653599861878483 0.0010000000000000002 0.0010000000000000002 0.0010000000000000002 180 170 160 0.5
-0.019829411299204333 0.014334327159708627 -0.09650471211118661 0.0020447312068194094 0.0020447312068194094 0.0020447312068194094 110 121 138 0.5
-0.014916779471316787 -0.009695804973137715 -0.09804760773386928 0.001249786135315934 0.001249786135315934 0.001249786135315934 61 80 101 0.5
-0.014937079010215952 0.004299931416422999 -0.09727960371588672 0.0036843445788940976 0.0036843445788940976 0.0036843445788940976 61 81 99 0.5
-0.015061221192365018 0.03260383692113848 -0.09638429469772068 0.0010000000000000002 0.0010000000000000002 0.0010000000000000002 61 81 99 0.5
-0.010126585171736736 0.014514266408486022 -0.09729767093083617 0.0029417491447349614 0.0029417491447349614 0.0029417491447349614 111 121 134 0.5
-0.006073028824204382 -0.002639404157078328 -0.09805216197408147 0.002513999999277774 0.002513999999277774 0.002513999999277774 182 170 160 0.5
0.002682449811833809 -0.00957021692371458 -0.09935721324506985 0.0016085490776466971 0.0016085490776466971 0.0016085490776466971 61 80 101 0.5
0.00750774600827984 -0.013395897700273374 -0.10007042031073035 0.002456173912281371 0.002456173912281371 0.002456173912281371 109 121 134 0.5
0.007516925363348509 -0.00554001019304478 -0.10008638817353596 0.001986335300758642 0.001986335300758642 0.001986335300758642 106 122 139 0.5
0.0075116206896443235 0.0006156852835149407 -0.10015427627547924 0.0020426460976028385 0.0020426460976028385 0.0020426460976028385 104 120 137 0.5
0.011614336720599708 -0.01607101000397232 -0.10039059056649476 0.0011303274555674518 0.0011303274555674518 0.0011303274555674518 180 169 160 0.5
0.015370507922763907 -0.005451594611742278 -0.10175052363103095 0.003428738434698418 0.003428738434698418 0.003428738434698418 104 119 134 0.5
0.015407129505287004 -0.0133226406368148 -0.10153930583167424 0.0023751920343677586 0.0023751920343677586 0.0023751920343677586 108 122 134 0.5
0.02318921393526557 -0.006955912038004089 -0.10378657495890518 0.002037401347313588 0.002037401347313588 0.002037401347313588 59 81 99 0.5
0.02324074655525963 -0.011577306668181887 -0.10354724208761967 0.0019731275757502056 0.0019731275757502056 0.0019731275757502056 57 80 98 0.5
0.024789529512834124 -0.013187223818667208 -0.1039023893481449 0.0019905571294154827 0.0019905571294154827 0.0019905571294154827 107 122 137 0.5
0.024752200618462998 -0.005328096238632791 -0.10436703295002307 0.0025909838754829477 0.0025909838754829477 0.0025909838754829477 105 120 138 0.5
0.028681743288801236 -0.015825958508616716 -0.1046684114983541 0.0013017242759016923 0.0013017242759016923 0.0013017242759016923 183 169 160 0.5
0.03190443102738509 0.06155289635978056 -0.07497230836674597 0.008559410237079752 0.008559410237079752 0.008559410237079752 40 73 35 0.5
0.03244288974594417 -0.013041606216788258 -0.10635452487026177 0.0020347228674658002 0.0020347228674658002 0.0020347228674658002 110 123 134 0.5
0.03233228942555189 -0.005225962676462888 -0.10700367725931077 0.0025705437859978035 0.0025705437859978035 0.0025705437859978035 107 122 140 0.5
0.03388935206429612 -0.011404899537010238 -0.10701758503143514 0.00198329757214224 0.00198329757214224 0.00198329757214224 61 80 101 0.5
0.03384350069603109 -0.006787716147857562 -0.10743583954285658 0.0020182580792775335 0.0020182580792775335 0.0020182580792775335 61 80 101 0.5
0.041388769752838374 -0.012858322246990819 -0.10985815465040029 0.004016933238086588 0.004016933238086588 0.004016933238086588 108 121 135 0.5
0.04120926431401797 -0.005096413804904251 -0.11072134094349063 0.00413957670537232 0.00413957670537232 0.00413957670537232 108 120 136 0.5
0.053571444106464194 -0.022556066315527496 -0.11421429558434651 0.001972596986241142 0.001972596986241142 0.001972596986241142 170 155 136 0.5
0.05364948755201693 -0.018632386446629838 -0.1148737293302695 0.0010000000000000002 0.0010000000000000002 0.0010000000000000002 181 170 159 0.5
0.05075059842687364 0.03991758308468375 -0.12539918122050364 0.010752436598352112 0.010752436598352112 0.010752436598352112 180 170 161 0.5
0.11293174825877095 0.022331499120138494 -0.027361643623183596 0.030380553400574585 0.030380553400574585 0.030380553400574585 31 105 28 0.5
0.007395814213361743 -0.005558264535420581 -0.10039469702915371 0.0020330352358420745 0.0020330352358420745 0.0020330352358420745 106 122 139 0.5
0.007376681125976615 0.0006047372584380246 -0.10049339997482966 0.0020837418335185893 0.0020837418335185893 0.0020837418335185893 104 120 137 0.5
0.02273901311106786 0.05698841056117003 -0.09636175803468577 0.0059024096180547835 0.0059024096180547835 0.0059024096180547835 40 73 36 0.5
0.06585028496151744 0.0290951305913812 -0.12938714724397038 0.013241712600314945 0.013241712600314945 0.013241712600314945 120 126 124 0.5
-0.07110351846748601 0.018418307057684352 -0.08768150675354264 0.02451850527112988 0.02451850527112988 0.02451850527112988 24 111 24 0.5
-0.02620340308891434 -0.01963011853957852 -0.1011521691329008 0.0010000000000000002 0.0010000000000000002 0.0010000000000000002 181 170 160 0.5
-0.025773587546763538 -0.019296872626038106 -0.10117679452121904 0.0010000000000000002 0.0010000000000000002 0.0010000000000000002 181 169 159 0.5
-0.02395598376582864 0.004789747956706919 -0.09743801040693614 0.0034146792695568056 0.0034146792695568056 0.0034146792695568056 180 170 160 0.5
-0.02366721510361402 -0.009277565122832138 -0.09918648810405904 0.0030556981315428273 0.0030556981315428273 0.0030556981315428273 180 170 160 0.5
-0.023589830951378017 0.038486354773733876 -0.0933503377105263 0.0014177798853467493 0.0014177798853467493 0.0014177798853467493 180 169 161 0.5
-0.023080160435344926 0.025573483707465917 -0.09499420207744717 0.003715705619724585 0.003715705619724585 0.003715705619724585 180 170 160 0.5
-0.022758095194826876 0.011509069547902184 -0.0968034062224316 0.0010000000000000002 0.0010000000000000002 0.0010000000000000002 180 170 160 0.5
-0.022362909049573318 -0.0024101956662474157 -0.09859221154703898 0.0019283777577073808 0.0019283777577073808 0.0019283777577073808 180 170 160 0.5
-0.01514166952601036 0.018341625190837343 -0.09542578379047667 0.0036220992317357727 0.0036220992317357727 0.0036220992317357727 61 80 101 0.5
-0.04115845872814899 -0.047305526257373005 0.23335235265882978 0.007138942514521257 0.007138942514521257 0.007138942514521257 61 80 101 0.5
-0.014855519998297654 -0.009589360196418905 -0.09892275275941022 0.0012559361444357546 0.0012559361444357546 0.0012559361444357546 61 80 101 0.5
-0.015249410793263996 0.0325132282579409 -0.09377050399386909 0.0010000000000000002 0.0010000000000000002 0.0010000000000000002 61 81 99 0.5
-0.006144917596962972 -0.0161491119829171 -0.0986993710555361 0.0016982440712239072 0.0016982440712239072 0.0016982440712239072 181 170 160 0.5
-0.006368934775608724 0.011190170646581508 -0.09240183902214373 0.0030447465094325396 0.0030447465094325396 0.0030447465094325396 181 170 160 0.5
-0.0065235919984624425 0.025540785361462967 -0.08775900902042463 0.004372883530204454 0.004372883530204454 0.004372883530204454 180 170 159 0.5
-0.002007511814480543 -0.04732647770577186 0.23302592888410284 0.0010359565383340691 0.0010359565383340691 0.0010359565383340691 61 80 101 0.5
0.007810324313273427 -0.024704172821328696 -0.011200949029108322 0.013948007291121303 0.013948007291121303 0.013948007291121303 109 121 134 0.5
0.009659535883192528 0.0012093074822458242 -0.19397769310726476 0.0032128988429252934 0.0032128988429252934 0.0032128988429252934 180 171 158 0.5
0.010733866894461368 0.011048846495179414 -0.23879847828861828 0.0029748000346754093 0.0029748000346754093 0.0029748000346754093 108 121 136 0.5
0.010739896861388699 0.008165231658289699 -0.23897051932462965 0.002259662292786219 0.002259662292786219 0.002259662292786219 104 119 134 0.5
0.015310292411146686 0.001205787238963417 -0.1943538429493059 0.0014815990614693087 0.0014815990614693087 0.0014815990614693087 61 80 101 0.5
0.020110050914769882 -0.009479802103062127 -0.10033934006939338 0.0027343260921191314 0.0027343260921191314 0.0027343260921191314 61 80 101 0.5
0.014545549578987724 0.005260574811348471 -0.2393661006621845 0.0014226309004431816 0.0014226309004431816 0.0014226309004431816 57 80 98 0.5
0.015293832508452482 0.00450199794776495 -0.23946608244243497 0.0012523312501404528 0.0012523312501404528 0.0012523312501404528 107 122 137 0.5
0.028804507019416753 -0.0026249807529166148 -0.0997170108534605 0.0039022924967551807 0.0039022924967551807 0.0039022924967551807 182 170 160 0.5
0.017190410084399983 0.006364784504649408 -0.23954104332718812 0.0013204354387259568 0.0013204354387259568 0.0013204354387259568 179 170 160 0.5
0.028693066195383903 -0.015732106545433323 -0.10205182259401742 0.0016499599837979336 0.0016499599837979336 0.0016499599837979336 183 169 160 0.5
0.01908312716469776 0.011082222731338486 -0.23940393702633633 0.0018585418930748762 0.0018585418930748762 0.0018585418930748762 110 121 136 0.5
0.01906337969551329 0.004546912343035933 -0.23979727960932587 0.0011165245256373258 0.0011165245256373258 0.0011165245256373258 110 123 134 0.5
0.01908677756972032 0.00820179849271625 -0.23957993645889777 0.0010960961182467479 0.0010960961182467479 0.0010960961182467479 107 122 140 0.5
0.01979886527797916 0.00530685307295823 -0.23982797215194337 0.0010083837793837434 0.0010083837793837434 0.0010083837793837434 61 80 101 0.5
0.0198262069248993 0.007465815852028977 -0.23970083876935952 0.0010123530696549722 0.0010123530696549722 0.0010123530696549722 61 80 101 0.5
0.019933222815824474 0.025057309227931666 -0.2386208380786123 0.007546529029896249 0.007546529029896249 0.007546529029896249 60 79 102 0.5
0.037230113194338395 -0.0023571700993386484 -0.10289995264156716 0.0025132011528040048 0.0025132011528040048 0.0025132011528040048 183 169 160 0.5
0.037425104400120736 0.01117000292900871 -0.1011956417660531 0.0034395071918372853 0.0034395071918372853 0.0034395071918372853 181 169 161 0.5
0.03751267671923485 0.01804629714197205 -0.10047019620170185 0.005729079921339268 0.005729079921339268 0.005729079921339268 61 80 101 0.5
0.03770579511392467 0.03181108508522837 -0.09876946725353145 0.00865843130529489 0.00865843130529489 0.00865843130529489 61 81 99 0.5
0.03713372792666433 -0.009081683450508537 -0.1040368502635542 0.0020298294083880308 0.0020298294083880308 0.0020298294083880308 61 80 101 0.5
0.03732167518207355 0.004425523641534406 -0.10238675243087136 0.0026065393889357505 0.0026065393889357505 0.0026065393889357505 61 81 99 0.5
0.04105453014471223 0.019369990652985922 -0.08132354254343914 0.010500963114422479 0.010500963114422479 0.010500963114422479 61 80 101 0.5
0.02354899678939467 0.004607535255770489 -0.24031500482149784 0.0019994517844749175 0.0019994517844749175 0.0019994517844749175 108 121 135 0.5
0.023579410914918573 0.008236110432228624 -0.2400983320513598 0.0017255845898809731 0.0017255845898809731 0.0017255845898809731 108 120 136 0.5
0.023614681231387272 0.011097062757862715 -0.2399261985239642 0.0021134111610030936 0.0021134111610030936 0.0021134111610030936 105 121 136 0.5
0.054333131344807044 -0.018818756472545245 -0.10163637161848908 0.0032164601518912734 0.0032164601518912734 0.0032164601518912734 180 169 161 0.5
0.05371575219217366 -0.017770988317753346 -0.11109862678081366 0.001670042107418284 0.001670042107418284 0.001670042107418284 181 170 159 0.5
0.054927277121669366 0.03979733495594734 -0.10439054975772098 0.007319289921391349 0.007319289921391349 0.007319289921391349 180 170 161 0.5
0.09741338154886628 0.017653670219199644 -0.10384062952008724 0.012525319575017542 0.012525319575017542 0.012525319575017542 24 112 25 0.5
0.10162932160480032 0.037985336378230136 -0.10870265867336552 0.009106168087978428 0.009106168087978428 0.009106168087978428 111 122 119 0.5
0.10038845754206581 0.0374207881630313 -0.11358264744631148 0.010094392233660408 0.010094392233660408 0.010094392233660408 113 121 119 0.5
-0.15979686487962413 0.05693500366148515 0.1270965134291824 0.02197199366506489 0.02197199366506489 0.02197199366506489 113 120 122 0.5
-0.15769038123825435 0.05682688090559935 0.1218823028114705 0.021581676339399735 0.021581676339399735 0.021581676339399735 112 120 122 0.5
-0.15216885456464269 0.016690450445710985 0.1173796419699503 0.02839317347977497 0.02839317347977497 0.02839317347977497 28 102 28 0.5
-0.10248493002283826 -0.06699103820074902 0.21555899735548062 0.008779685165524931 0.008779685165524931 0.008779685165524931 178 171 160 0.5
-0.09890814778373845 -0.014254843838136475 0.2257150530782775 0.008486102057370035 0.008486102057370035 0.008486102057370035 180 170 160 0.5
-0.09807836243959607 -0.04513708232156409 0.22104075329817288 0.010458137317604546 0.010458137317604546 0.010458137317604546 180 170 160 0.5
-0.09767897924745254 0.05997827042374121 0.232921971382553 0.007758321950301552 0.007758321950301552 0.007758321950301552 180 170 160 0.5
-0.09728116911966048 0.031750610391257594 0.23252720894429135 0.008813906590061395 0.008813906590061395 0.008813906590061395 180 171 158 0.5
-0.09653370929355476 0.0004927403639931827 0.22836697089111174 0.006028551642587773 0.006028551642587773 0.006028551642587773 180 170 160 0.5
-0.07972451159388874 -0.03098771616309578 0.22871535614946384 0.007854546619806623 0.007854546619806623 0.007854546619806623 185 170 158 0.5
-0.08018304356294322 -0.00013198858774679783 0.23330654800625147 0.008262985470802762 0.008262985470802762 0.008262985470802762 180 169 161 0.5
-0.08086027527477002 0.047088872896228866 0.24029884409920843 0.008070316242554307 0.008070316242554307 0.008070316242554307 61 80 101 0.5
-0.07989388232460794 -0.015556213666545051 0.2307785885070272 0.00848705831597768 0.00848705831597768 0.00848705831597768 61 80 101 0.5
-0.07938945469168046 -0.046317170410375724 0.22586897624678526 0.006158105312016349 0.006158105312016349 0.006158105312016349 61 80 101 0.5
-0.07860503326911404 -0.06327974586392897 0.22315272271324396 0.0090190810942074 0.0090190810942074 0.0090190810942074 181 170 160 0.5
-0.0606865752806984 -0.03150047826418146 0.2338337802714346 0.006409225707978938 0.006409225707978938 0.006409225707978938 180 170 160 0.5
-0.06143942007178437 -0.0004887952443863371 0.2465252597852551 0.007606076574431909 0.007606076574431909 0.007606076574431909 180 170 160 0.5
-0.06134575223685243 0.060029313186701266 0.24577092837740883 0.008644211374474195 0.008644211374474195 0.008644211374474195 180 170 160 0.5
-0.061962610910795766 0.031739432563296636 0.25804310482031234 0.00978445500208161 0.00978445500208161 0.00978445500208161 180 170 160 0.5
-0.05974323369086408 -0.060736257540594724 0.22517917491006453 0.008155173952740404 0.008155173952740404 0.008155173952740404 180 170 160 0.5
-0.02301784386421928 -0.021154950961869288 0.003727846008770678 0.009798754124973323 0.009798754124973323 0.009798754124973323 180 171 158 0.5
-0.0132749521323999 -0.0928685012794928 0.22103865518806132 0.01779044601336336 0.01779044601336336 0.01779044601336336 120 80 61 0.5
-0.012576351749781521 0.06592427884981421 0.25286246634546833 0.021750849766124486 0.021750849766124486 0.021750849766124486 57 85 51 0.5
-0.010888344007745073 -0.021308612941170063 0.004079340032367615 0.0062250565099865535 0.0062250565099865535 0.0062250565099865535 61 80 101 0.5
-0.0019747523611813103 -0.047277247579891706 0.2325340144657304 0.0010357490808226844 0.0010357490808226844 0.0010357490808226844 61 80 101 0.5
0.00010953473233507961 -0.03638715759262093 0.07990053146815755 0.03939921359668122 0.03939921359668122 0.03939921359668122 111 121 134 0.5
0.017785169237221905 -0.03196525520866742 0.23302525945926308 0.006591323875857272 0.006591323875857272 0.006591323875857272 182 170 160 0.5
0.018443606704234797 -0.00221965611793038 0.22827296775637754 0.01221281249284977 0.01221281249284977 0.01221281249284977 180 169 161 0.5
0.037945121826020826 0.04623296070662045 0.24087023322683973 0.019396187953865718 0.019396187953865718 0.019396187953865718 61 81 99 0.5
0.0368853915776834 -0.03144390313201309 0.2293420883695207 0.006042170622576877 0.006042170622576877 0.006042170622576877 183 169 160 0.5
0.03732141106990991 -0.0007655441224605031 0.23382301392549823 0.011048022435458724 0.011048022435458724 0.011048022435458724 182 170 160 0.5
0.03709001058023913 -0.016085889900531662 0.23116587904418845 0.007890304826573444 0.007890304826573444 0.007890304826573444 61 81 99 0.5
0.03666845811629485 -0.046699313064327515 0.22651213631915065 0.005432372720636076 0.005432372720636076 0.005432372720636076 61 80 101 0.5
-0.0040695121993086225 0.035871096422564815 -0.18211892974503702 0.019941929456900116 0.019941929456900116 0.019941929456900116 44 57 34 0.5
0.012080679601988031 -0.018285453810451362 -0.061731062345184474 0.012521226846361857 0.012521226846361857 0.012521226846361857 109 121 134 0.5
0.06605750591135705 0.05380407905980925 0.2346172913636638 0.007770193133572691 0.007770193133572691 0.007770193133572691 180 170 160 0.5
0.07456080400148507 0.06184886198844823 0.22944097551921702 0.004192769315029321 0.004192769315029321 0.004192769315029321 182 170 160 0.5
0.07604466887565728 -0.06924772394188633 0.23462970326616533 0.008193361597040582 0.008193361597040582 0.008193361597040582 179 170 160 0.5
0.07445481298594932 -0.06645465271766839 0.210225415183809 0.0017699471154648554 0.0017699471154648554 0.0017699471154648554 183 171 159 0.5
0.07734843878809936 0.06449128150506872 0.22821960897257734 0.004055066754471236 0.004055066754471236 0.004055066754471236 180 169 159 0.5
0.07544685861097888 -0.06726766255671304 0.2108939330127981 0.0016256642299333568 0.0016256642299333568 0.0016256642299333568 186 169 157 0.5
0.13685612576626535 0.045069223281823834 0.11368930041127269 0.04991446793630308 0.04991446793630308 0.04991446793630308 115 123 122 0.5
0.005129020363769473 0.026835884859703656 -0.2820733924455969 0.009152349790437563 0.009152349790437563 0.009152349790437563 113 120 122 0.5
0.14315066391565576 0.015289279724687861 0.09363674213796427 0.048562887837627106 0.048562887837627106 0.048562887837627106 23 95 22 0.5
-0.028294998325294717 0.04275272301711512 -0.09465357114381492 0.0026214070002297525 0.0026214070002297525 0.0026214070002297525 62 80 51 0.5
-0.02652105155546121 -0.019780045680421576 -0.09988360251814357 0.0010000000000000002 0.0010000000000000002 0.0010000000000000002 181 170 160 0.5
-0.026105871433575456 -0.019462356250652704 -0.0998357858805099 0.0010000000000000002 0.0010000000000000002 0.0010000000000000002 181 169 159 0.5
-0.023151300803764832 0.03828551730450035 -0.09523764957209989 0.0011308876316088537 0.0011308876316088537 0.0011308876316088537 179 170 160 0.5
-0.01495397546577957 -0.0027301915784430954 -0.09783983849157257 0.002878241297211732 0.002878241297211732 0.002878241297211732 183 169 160 0.5
-0.014761173065077755 -0.01738238865077816 -0.09889136562235482 0.003351322061176597 0.003351322061176597 0.003351322061176597 180 171 157 0.5
0.014830604612612836 -0.030688295337302104 -0.10091750796266831 0.007554378737145448 0.007554378737145448 0.007554378737145448 120 80 61 0.5
0.013534909695944553 -0.014228104577265343 -0.08373267914178938 0.007236570275410476 0.007236570275410476 0.007236570275410476 109 121 134 0.5
0.023625808888341124 -0.023485688796597726 -0.17048967430892456 0.016049928239101965 0.016049928239101965 0.016049928239101965 170 155 136 0.5
0.02890917010379574 -0.015840893556181117 -0.10430649951105529 0.0012687168291742686 0.0012687168291742686 0.0012687168291742686 182 170 160 0.5
0.036456040172041786 -0.017448786038288176 -0.08845421657647 0.00738540734873866 0.00738540734873866 0.00738540734873866 182 170 160 0.5
0.04000004060288804 -0.007230523236382947 -0.09496841257977087 0.004342164860997197 0.004342164860997197 0.004342164860997197 61 80 101 0.5
0.04426849569212405 0.010291392276748577 0.009369063952648374 0.030351321425491427 0.030351321425491427 0.030351321425491427 104 120 137 0.5
0.05393544408754189 -0.018589591141278696 -0.11469469669580454 0.0010000000000000002 0.0010000000000000002 0.0010000000000000002 181 170 159 0.5
0.054316066653780914 -0.01878522905423939 -0.11415568549918047 0.0010000000000000002 0.0010000000000000002 0.0010000000000000002 181 170 159 0.5
0.08025074440562416 0.03051746074615501 -0.156967816884676 0.02061507675827786 0.02061507675827786 0.02061507675827786 114 122 121 0.5
-0.031065233531789322 0.051104553228521664 -0.13701998397186033 0.021797681979139356 0.021797681979139356 0.021797681979139356 40 73 36 0.5
-0.026620859356521306 -0.019968539602059396 -0.0977479611558016 0.0010000000000000002 0.0010000000000000002 0.0010000000000000002 181 170 160 0.5
-0.02271861339276554 0.011576136915966507 -0.09715943447135772 0.0010000000000000002 0.0010000000000000002 0.0010000000000000002 180 170 160 0.5
-0.022324468006975243 -0.0023730749766286458 -0.09894734149124652 0.001939369135478199 0.001939369135478199 0.001939369135478199 180 170 160 0.5
-0.015208821619970734 0.032586831751742304 -0.09422991174306991 0.0010000000000000002 0.0010000000000000002 0.0010000000000000002 61 81 99 0.5
-0.006519103195256815 0.038358995169317164 -0.09152089946850375 0.005439204830072312 0.005439204830072312 0.005439204830072312 180 170 160 0.5
-0.006175141635504138 -0.01623740345123196 -0.09805301418668134 0.0017287271186587885 0.0017287271186587885 0.0017287271186587885 181 170 160 0.5
-0.006252342412884661 0.018373688940702692 -0.0952435001134015 0.003220149212210984 0.003220149212210984 0.003220149212210984 182 170 158 0.5
-0.006167332721938261 0.0043057337623184045 -0.09697319757005078 0.0030692694380635237 0.0030692694380635237 0.0030692694380635237 179 171 158 0.5
-0.006203715360171518 0.011341181084753972 -0.09592728625244083 0.002425145942570779 0.002425145942570779 0.002425145942570779 181 170 160 0.5
-0.006242734320030205 0.02552995850065448 -0.09373977350378282 0.00411612151056762 0.00411612151056762 0.00411612151056762 180 170 159 0.5
0.002641418744126666 -0.002684159305882067 -0.09773237343972455 0.002937665361237375 0.002937665361237375 0.002937665361237375 183 169 160 0.5
0.002652677645348938 -0.009674020625389437 -0.09832923351985848 0.0014255963304810211 0.0014255963304810211 0.0014255963304810211 61 80 101 0.5
0.0033113013578727098 0.025575770903459166 -0.08677842243799017 0.006061256718738198 0.006061256718738198 0.006061256718738198 184 169 159 0.5
0.006394936410446606 0.042362821124903804 -0.10018028844049845 0.007936425858516167 0.007936425858516167 0.007936425858516167 64 79 52 0.5
0.007000408182133411 0.0024689938017275715 -0.22296418494458928 0.008479689282113583 0.008479689282113583 0.008479689282113583 109 121 134 0.5
0.011073280663818217 0.01087034507134162 -0.09940455297328837 0.004355550634037353 0.004355550634037353 0.004355550634037353 181 170 160 0.5
0.01768844927048045 -0.04825746807818091 0.24067976060033938 0.009150619878960611 0.009150619878960611 0.009150619878960611 180 171 158 0.5
0.011468116733010783 -0.002676397536202651 -0.09762551986465105 0.002817618544666041 0.002817618544666041 0.002817618544666041 180 170 159 0.5
0.011529984701942704 -0.01574806381694331 -0.10187885909735016 0.0012053285710755307 0.0012053285710755307 0.0012053285710755307 180 169 160 0.5
0.015737990602263347 0.042505517497163255 -0.09344359148541098 0.006181855096639842 0.006181855096639842 0.006181855096639842 44 69 39 0.5
0.015285147334876834 0.0013210878642301014 -0.19485920733033396 0.0014625903725882122 0.0014625903725882122 0.0014625903725882122 61 80 101 0.5
0.03733359176264552 -0.04801453253840511 0.23702380055879063 0.005156007340484056 0.005156007340484056 0.005156007340484056 61 80 101 0.5
0.017323286856320265 0.002852319055852134 -0.19510660044487846 0.0021978955377065824 0.0021978955377065824 0.0021978955377065824 59 81 99 0.5
0.024882714083603423 0.043226947239875996 -0.09248658464435512 0.006367787640335191 0.006367787640335191 0.006367787640335191 40 62 37 0.5
0.027469402505380068 0.05158456776108856 -0.1334016113580791 0.01756346624514998 0.01756346624514998 0.01756346624514998 40 73 35 0.5
0.021135854707662 0.006220455536565743 -0.22715387385781516 0.006367060313518785 0.006367060313518785 0.006367060313518785 61 80 101 0.5
0.037399318278412454 -0.0024660725974796223 -0.10145803946420946 0.002536315752561959 0.002536315752561959 0.002536315752561959 183 169 160 0.5
0.0373570876067954 -0.009305316081696565 -0.10212202830403971 0.0025244428834885636 0.0025244428834885636 0.0025244428834885636 61 80 101 0.5
0.037554026905110324 0.004343276713309242 -0.10041519172568754 0.002624964936657532 0.002624964936657532 0.002624964936657532 61 81 99 0.5
0.05490010895017929 -0.01934129554617363 -0.09849788725240208 0.004284585432148386 0.004284585432148386 0.004284585432148386 180 169 161 0.5
0.054260093481762396 -0.018265054277403023 -0.10813929729080665 0.0026025377030840045 0.0026025377030840045 0.0026025377030840045 181 170 159 0.5
0.05543012209767901 0.040163819810128995 -0.10176555558601229 0.0077688430501167095 0.0077688430501167095 0.0077688430501167095 180 170 161 0.5
0.1044330834291106 0.040352895328440996 -0.08069769312373049 0.01426233531024288 0.01426233531024288 0.01426233531024288 109 122 119 0.5
0.10771158441478182 0.017377118487206217 -0.07397887859259451 0.01609742094531266 0.01609742094531266 0.01609742094531266 24 112 25 0.5
-0.10305010148786713 -0.06773569512670598 0.21984697856676821 0.00877088838566634 0.00877088838566634 0.00877088838566634 178 171 160 0.5
-0.0976192220063223 0.05984043636186583 0.23236881109664598 0.007793244563160046 0.007793244563160046 0.007793244563160046 180 170 160 0.5
-0.09777726220655526 0.031773101940653 0.23664564838757832 0.008497301087380399 0.008497301087380399 0.008497301087380399 180 171 158 0.5
-0.0969980890298824 0.00025692554047249523 0.232240408759981 0.006131200017007787 0.006131200017007787 0.006131200017007787 180 170 160 0.5
-0.081180778760336 0.04715905547285757 0.24376592402086644 0.008451040957984901 0.008451040957984901 0.008451040957984901 61 80 101 0.5
-0.07976179421116679 -0.04690091906225117 0.2299678887434991 0.006316209096877541 0.006316209096877541 0.006316209096877541 61 80 101 0.5
-0.060852758845639926 -0.03189059285166745 0.23666150756442247 0.006381746704762365 0.006381746704762365 0.006381746704762365 180 170 160 0.5
-0.06115694756468012 -0.00048600877997569944 0.24166643662861625 0.006963577803354154 0.006963577803354154 0.006963577803354154 180 170 160 0.5
-0.060888120599825186 -0.016229030463009927 0.23816612210144064 0.007956460986250403 0.007956460986250403 0.007956460986250403 180 170 160 0.5
-0.0615883414114658 0.060188785990895825 0.24985021475231997 0.008585500182585897 0.008585500182585897 0.008585500182585897 180 170 160 0.5
-0.061325755199692696 0.03148734787718689 0.2470980516292705 0.010336239857090907 0.010336239857090907 0.010336239857090907 180 170 160 0.5
-0.06005301076481712 -0.06161970989041142 0.2305461302760548 0.008226301050037264 0.008226301050037264 0.008226301050037264 180 170 160 0.5
-0.043026725659412166 0.047425055144740505 0.2550547410875713 0.0109789317884988 0.0109789317884988 0.0109789317884988 59 79 104 0.5
-0.04207347609025884 0.014952878132077702 0.2635625143927347 0.012249425172315994 0.012249425172315994 0.012249425172315994 61 80 101 0.5
-0.04114759240222342 -0.04774573467617676 0.23637079552041718 0.007164184543769357 0.007164184543769357 0.007164184543769357 61 80 101 0.5
-0.04130102157470285 -0.016456897835873403 0.2408111435718047 0.008645129980078157 0.008645129980078157 0.008645129980078157 61 81 99 0.5
-0.04119244756826494 -0.03204412669928648 0.23786032435159538 0.007924987029911072 0.007924987029911072 0.007924987029911072 185 170 159 0.5
-0.03990718353826615 0.03161764731102614 0.26446115317640395 0.009742775243696223 0.009742775243696223 0.009742775243696223 182 171 157 0.5
-0.023048359847872 -0.1147585264699067 0.22498931804629832 0.023761952132827467 0.023761952132827467 0.023761952132827467 182 167 144 0.5
-0.0216033196861546 -0.062215983990262194 0.2337265800618335 0.012279363665085613 0.012279363665085613 0.012279363665085613 179 170 160 0.5
-0.02154910836069732 -0.01679876854856252 0.24277742297204427 0.008574885595814413 0.008574885595814413 0.008574885595814413 180 171 158 0.5
-0.021509574544922652 -0.032519175380133075 0.24097920839357173 0.010171721326487393 0.010171721326487393 0.010171721326487393 181 170 160 0.5
-0.010856314917273612 -0.02143291598139414 0.0048985232095599554 0.00631941314398924 0.00631941314398924 0.00631941314398924 61 80 101 0.5
-0.0017728713179825742 -0.04803769078670876 0.2376986847263244 0.002611927063559466 0.002611927063559466 0.002611927063559466 61 80 101 0.5
0.01793542465081188 -0.031973020131334476 0.2351076617437141 0.00646707267787493 0.00646707267787493 0.00646707267787493 182 170 160 0.5
0.03742866358136157 -0.03205203128684214 0.23454715472526974 0.006177954228952569 0.006177954228952569 0.006177954228952569 183 169 160 0.5
0.03733320722795717 -0.04760762263638987 0.23287592194376608 0.0043792917609443305 0.0043792917609443305 0.0043792917609443305 61 80 101 0.5
-0.002348269518992476 -0.003111403073536833 -0.17966248545688665 0.008252112684094414 0.008252112684094414 0.008252112684094414 109 121 134 0.5
0.07748161671938328 -0.07078617866521907 0.24314324325752645 0.011086132519407597 0.011086132519407597 0.011086132519407597 179 170 160 0.5
0.0758188102454021 -0.06789705994794114 0.21812190441432225 0.003948913412291164 0.003948913412291164 0.003948913412291164 183 171 159 0.5
0.07868367141236748 0.06513178370738698 0.23588784717802494 0.0036806771169978145 0.0036806771169978145 0.0036806771169978145 180 169 159 0.5
0.07527219134141892 -0.06699414628246332 0.20990298006619718 0.0017267067266653097 0.0017267067266653097 0.0017267067266653097 186 169 157 0.5
0.025242953919607534 0.05840323343933012 -0.08192263316230265 0.005610618866202463 0.005610618866202463 0.005610618866202463 40 73 36 0.5
0.08295032797667784 0.06809239907551017 0.23878606176751027 0.005410336609201418 0.005410336609201418 0.005410336609201418 40 55 37 0.5
0.0036717672821497188 0.02552533748316373 -0.2818227649037322 0.00916293690267208 0.00916293690267208 0.00916293690267208 115 123 122 0.5
0.009206986523275165 0.02114812363037803 -0.2820733744510455 0.009753970541381439 0.009753970541381439 0.009753970541381439 31 114 34 0.5
-0.007339657723404115 -0.007735784292637739 -0.1781891100876318 0.010175815331735831 0.010175815331735831 0.010175815331735831 183 171 156 0.5
-0.030591814442688516 -0.022277880315096407 -0.08126145286590174 0.008552339925914712 0.008552339925914712 0.008552339925914712 181 171 159 0.5
-0.07695549366714591 0.05438312962343644 0.14142111779160274 0.0424513771818676 0.0424513771818676 0.0424513771818676 182 170 160 0.5
-0.04584618486276463 0.027629969998539824 0.005746118950847669 0.01564376748335406 0.01564376748335406 0.01564376748335406 184 169 160 0.5
-0.03691205756250821 0.0094502338223 -0.03431662895521498 0.011256081178541004 0.011256081178541004 0.011256081178541004 179 170 160 0.5
-0.027570976548810813 -0.004425751776477035 -0.07566507977641332 0.0067774763954332965 0.0067774763954332965 0.0067774763954332965 182 169 161 0.5
-0.018713545655752756 -0.011782703686389841 -0.07946000846759242 0.005771522166500882 0.005771522166500882 0.005771522166500882 61 80 101 0.5
-0.027149717628977436 0.017845201803427795 -0.034368348806667746 0.011425525833146065 0.011425525833146065 0.011425525833146065 61 80 101 0.5
-0.01864787152740858 -0.0042771602104782645 -0.07917631400828606 0.005578914516720572 0.005578914516720572 0.005578914516720572 183 169 160 0.5
-0.02458325931190236 0.001376800209252609 -0.04861230268612675 0.009484398868076203 0.009484398868076203 0.009484398868076203 61 81 99 0.5
-0.03756797743026451 0.03758209840039569 0.02009450396613337 0.017234911110818697 0.017234911110818697 0.017234911110818697 61 81 99 0.5
-0.007601094474307845 -0.010622234713080155 -0.08945994596822503 0.004927104921173026 0.004927104921173026 0.004927104921173026 179 170 160 0.5
-0.0004835491873600378 -0.01143665855614272 -0.132837479102062 0.016825374049271806 0.016825374049271806 0.016825374049271806 183 169 160 0.5
-0.021620264418144873 0.04423396967013681 0.0017152943226242817 0.016652614099817394 0.016652614099817394 0.016652614099817394 180 169 161 0.5
-0.013424458561454019 -0.0065840886183649834 -0.05318569478834943 0.01128476102833353 0.01128476102833353 0.01128476102833353 182 170 160 0.5
-0.0805653079146258 -0.0043396266623532045 0.3625857864634249 0.05537693745164612 0.05537693745164612 0.05537693745164612 181 170 160 0.5
0.0021652988332910086 -0.010119810001539142 -0.09470170754050178 0.0022739040284614374 0.0022739040284614374 0.0022739040284614374 61 80 101 0.5
0.037324118831291 -0.00021403038554885853 -0.1290753076881709 0.010907535974787537 0.010907535974787537 0.010907535974787537 183 169 160 0.5
0.037296548581745165 -0.0010543556693407034 -0.17530052793622447 0.014047547050923618 0.014047547050923618 0.014047547050923618 61 80 101 0.5
0.046371398015493136 -0.00035809320328495314 -0.22621119488123187 0.013569892997092312 0.013569892997092312 0.013569892997092312 181 170 160 0.5
-0.05043804925380118 0.05943575343878304 -0.07190815350908684 0.01900385792311236 0.01900385792311236 0.01900385792311236 40 71 36 0.5
-0.02633752677603459 -0.0196804514910207 -0.09881430972215378 0.0010000000000000002 0.0010000000000000002 0.0010000000000000002 181 170 160 0.5
-0.014928950219480321 0.03259602551844258 -0.09594185124621077 0.0010000000000000002 0.0010000000000000002 0.0010000000000000002 61 81 99 0.5
0.00427305368356897 -0.010167748540010827 -0.08221245619355674 0.006135164736697109 0.006135164736697109 0.006135164736697109 56 79 97 0.5
0.011473859103623422 -0.016049265349195787 -0.10080068673033901 0.0010637142330438955 0.0010637142330438955 0.0010637142330438955 180 169 160 0.5
0.025270948366301005 0.057638876646258136 -0.09070102627520316 0.004929026088756431 0.004929026088756431 0.004929026088756431 40 70 35 0.5
