# Gaussian Splat Export
# Generated by Instant3D — 263 splats
v -0.019718692865736135 -0.013560661345016548 -0.09837169716762939 0.4314 0.4745 0.5412
v -0.019712806162998697 -0.005650898992771133 -0.09831037105344752 0.4157 0.4745 0.5373
v -0.014890092748041855 -0.00963416261034062 -0.09848491329285938 0.2392 0.3137 0.3961
v -0.010054616504045778 -0.013529196443838343 -0.09854566011819531 0.4353 0.4745 0.5255
v -0.010050533577545678 -0.005683795502779155 -0.0984453412257019 0.4235 0.4824 0.5412
v -0.010044793298753804 0.0005176916736905313 -0.09836599050513807 0.4196 0.4745 0.5412
v -0.030090787262540327 -0.006979874183085644 0.23386430548573275 0.4353 0.4745 0.5137
v -0.006091808735905016 -0.0095642449145921 -0.09862558787890882 0.7137 0.6667 0.6196
v -0.002139515206114265 0.0005045284697232714 -0.09866106429528275 0.4196 0.4706 0.5412
v -0.0021260449436382015 -0.00560977374966093 -0.09874000741667677 0.4118 0.4745 0.5373
v -0.002120077185639742 0.014554476248882143 -0.09848127240036918 0.4039 0.4706 0.5412
v -0.0021046481773764015 -0.013510718846391588 -0.0988419637166652 0.4078 0.4706 0.5412
v -0.0004631263581491753 -0.011832107942281542 -0.09889894900252476 0.2196 0.3098 0.3804
v -0.0004722277245726852 0.016238912403939276 -0.09853834290228423 0.2196 0.3098 0.3804
v -0.001994106383062143 -0.04727184235098661 0.23203963994127444 0.2392 0.3137 0.3961
v 0.00752595755909021 0.00848233066113295 -0.09910386957801699 0.4039 0.4706 0.5451
v -0.026430111879082768 -0.019821901075638935 -0.09956312811103646 0.7098 0.6667 0.6275
v -0.026008627436021243 -0.01950264417465916 -0.09948319242423102 0.7098 0.6627 0.6235
v -0.026395726391998938 0.04123166943073706 -0.09489697754250656 0.7020 0.6667 0.6275
v -0.02578309677792462 -0.023374773623904412 -0.09992136095747704 0.6627 0.6039 0.5333
v -0.023281561629828532 0.03827121498260929 -0.0956594170206061 0.7059 0.6627 0.6314
v -0.02290598719572701 0.025493174111827752 -0.09616805245062743 0.7059 0.6667 0.6275
v -0.022684896683447812 0.011336242689109642 -0.09653599861878483 0.7059 0.6667 0.6275
v -0.019829411299204333 0.014334327159708627 -0.09650471211118661 0.4314 0.4745 0.5412
v -0.014916779471316787 -0.009695804973137715 -0.09804760773386928 0.2392 0.3137 0.3961
v -0.014937079010215952 0.004299931416422999 -0.09727960371588672 0.2392 0.3176 0.3882
v -0.015061221192365018 0.03260383692113848 -0.09638429469772068 0.2392 0.3176 0.3882
v -0.010126585171736736 0.014514266408486022 -0.09729767093083617 0.4353 0.4745 0.5255
v -0.006073028824204382 -0.002639404157078328 -0.09805216197408147 0.7137 0.6667 0.6275
v 0.002682449811833809 -0.00957021692371458 -0.09935721324506985 0.2392 0.3137 0.3961
v 0.00750774600827984 -0.013395897700273374 -0.10007042031073035 0.4275 0.4745 0.5255
v 0.007516925363348509 -0.00554001019304478 -0.10008638817353596 0.4157 0.4784 0.5451
v 0.0075116206896443235 0.0006156852835149407 -0.10015427627547924 0.4078 0.4706 0.5373
v 0.011614336720599708 -0.01607101000397232 -0.10039059056649476 0.7059 0.6627 0.6275
v 0.015370507922763907 -0.005451594611742278 -0.10175052363103095 0.4078 0.4667 0.5255
v 0.015407129505287004 -0.0133226406368148 -0.10153930583167424 0.4235 0.4784 0.5255
v 0.02318921393526557 -0.006955912038004089 -0.10378657495890518 0.2314 0.3176 0.3882
v 0.02324074655525963 -0.011577306668181887 -0.10354724208761967 0.2235 0.3137 0.3843
v 0.024789529512834124 -0.013187223818667208 -0.1039023893481449 0.4196 0.4784 0.5373
v 0.024752200618462998 -0.005328096238632791 -0.10436703295002307 0.4118 0.4706 0.5412
v 0.028681743288801236 -0.015825958508616716 -0.1046684114983541 0.7176 0.6627 0.6275
v 0.03190443102738509 0.06155289635978056 -0.07497230836674597 0.1569 0.2863 0.1373
v 0.03244288974594417 -0.013041606216788258 -0.10635452487026177 0.4314 0.4824 0.5255
v 0.03233228942555189 -0.005225962676462888 -0.10700367725931077 0.4196 0.4784 0.5490
v 0.03388935206429612 -0.011404899537010238 -0.10701758503143514 0.2392 0.3137 0.3961
v 0.03384350069603109 -0.006787716147857562 -0.10743583954285658 0.2392 0.3137 0.3961
v 0.041388769752838374 -0.012858322246990819 -0.10985815465040029 0.4235 0.4745 0.5294
v 0.04120926431401797 -0.005096413804904251 -0.11072134094349063 0.4235 0.4706 0.5333
v 0.053571444106464194 -0.022556066315527496 -0.11421429558434651 0.6667 0.6078 0.5333
v 0.05364948755201693 -0.018632386446629838 -0.1148737293302695 0.7098 0.6667 0.6235
v 0.05075059842687364 0.03991758308468375 -0.12539918122050364 0.7059 0.6667 0.6314
v 0.11293174825877095 0.022331499120138494 -0.027361643623183596 0.1216 0.4118 0.1098
v 0.007395814213361743 -0.005558264535420581 -0.10039469702915371 0.4157 0.4784 0.5451
v 0.007376681125976615 0.0006047372584380246 -0.10049339997482966 0.4078 0.4706 0.5373
v 0.02273901311106786 0.05698841056117003 -0.09636175803468577 0.1569 0.2863 0.1412
v 0.06585028496151744 0.0290951305913812 -0.12938714724397038 0.4706 0.4941 0.4863
v -0.07110351846748601 0.018418307057684352 -0.08768150675354264 0.0941 0.4353 0.0941
v -0.02620340308891434 -0.01963011853957852 -0.1011521691329008 0.7098 0.6667 0.6275
v -0.025773587546763538 -0.019296872626038106 -0.10117679452121904 0.7098 0.6627 0.6235
v -0.02395598376582864 0.004789747956706919 -0.09743801040693614 0.7059 0.6667 0.6275
v -0.02366721510361402 -0.009277565122832138 -0.09918648810405904 0.7059 0.6667 0.6275
v -0.023589830951378017 0.038486354773733876 -0.0933503377105263 0.7059 0.6627 0.6314
v -0.023080160435344926 0.025573483707465917 -0.09499420207744717 0.7059 0.6667 0.6275
v -0.022758095194826876 0.011509069547902184 -0.0968034062224316 0.7059 0.6667 0.6275
v -0.022362909049573318 -0.0024101956662474157 -0.09859221154703898 0.7059 0.6667 0.6275
v -0.01514166952601036 0.018341625190837343 -0.09542578379047667 0.2392 0.3137 0.3961
v -0.04115845872814899 -0.047305526257373005 0.23335235265882978 0.2392 0.3137 0.3961
v -0.014855519998297654 -0.009589360196418905 -0.09892275275941022 0.2392 0.3137 0.3961
v -0.015249410793263996 0.0325132282579409 -0.09377050399386909 0.2392 0.3176 0.3882
v -0.006144917596962972 -0.0161491119829171 -0.0986993710555361 0.7098 0.6667 0.6275
v -0.006368934775608724 0.011190170646581508 -0.09240183902214373 0.7098 0.6667 0.6275
v -0.0065235919984624425 0.025540785361462967 -0.08775900902042463 0.7059 0.6667 0.6235
v -0.002007511814480543 -0.04732647770577186 0.23302592888410284 0.2392 0.3137 0.3961
v 0.007810324313273427 -0.024704172821328696 -0.011200949029108322 0.4275 0.4745 0.5255
v 0.009659535883192528 0.0012093074822458242 -0.19397769310726476 0.7059 0.6706 0.6196
v 0.010733866894461368 0.011048846495179414 -0.23879847828861828 0.4235 0.4745 0.5333
v 0.010739896861388699 0.008165231658289699 -0.23897051932462965 0.4078 0.4667 0.5255
v 0.015310292411146686 0.001205787238963417 -0.1943538429493059 0.2392 0.3137 0.3961
v 0.020110050914769882 -0.009479802103062127 -0.10033934006939338 0.2392 0.3137 0.3961
v 0.014545549578987724 0.005260574811348471 -0.2393661006621845 0.2235 0.3137 0.3843
v 0.015293832508452482 0.00450199794776495 -0.23946608244243497 0.4196 0.4784 0.5373
v 0.028804507019416753 -0.0026249807529166148 -0.0997170108534605 0.7137 0.6667 0.6275
v 0.017190410084399983 0.006364784504649408 -0.23954104332718812 0.7020 0.6667 0.6275
v 0.028693066195383903 -0.015732106545433323 -0.10205182259401742 0.7176 0.6627 0.6275
v 0.01908312716469776 0.011082222731338486 -0.23940393702633633 0.4314 0.4745 0.5333
v 0.01906337969551329 0.004546912343035933 -0.23979727960932587 0.4314 0.4824 0.5255
v 0.01908677756972032 0.00820179849271625 -0.23957993645889777 0.4196 0.4784 0.5490
v 0.01979886527797916 0.00530685307295823 -0.23982797215194337 0.2392 0.3137 0.3961
v 0.0198262069248993 0.007465815852028977 -0.23970083876935952 0.2392 0.3137 0.3961
v 0.019933222815824474 0.025057309227931666 -0.2386208380786123 0.2353 0.3098 0.4000
v 0.037230113194338395 -0.0023571700993386484 -0.10289995264156716 0.7176 0.6627 0.6275
v 0.037425104400120736 0.01117000292900871 -0.1011956417660531 0.7098 0.6627 0.6314
v 0.03751267671923485 0.01804629714197205 -0.10047019620170185 0.2392 0.3137 0.3961
v 0.03770579511392467 0.03181108508522837 -0.09876946725353145 0.2392 0.3176 0.3882
v 0.03713372792666433 -0.009081683450508537 -0.1040368502635542 0.2392 0.3137 0.3961
v 0.03732167518207355 0.004425523641534406 -0.10238675243087136 0.2392 0.3176 0.3882
v 0.04105453014471223 0.019369990652985922 -0.08132354254343914 0.2392 0.3137 0.3961
v 0.02354899678939467 0.004607535255770489 -0.24031500482149784 0.4235 0.4745 0.5294
v 0.023579410914918573 0.008236110432228624 -0.2400983320513598 0.4235 0.4706 0.5333
v 0.023614681231387272 0.011097062757862715 -0.2399261985239642 0.4118 0.4745 0.5333
v 0.054333131344807044 -0.018818756472545245 -0.10163637161848908 0.7059 0.6627 0.6314
v 0.05371575219217366 -0.017770988317753346 -0.11109862678081366 0.7098 0.6667 0.6235
v 0.054927277121669366 0.03979733495594734 -0.10439054975772098 0.7059 0.6667 0.6314
v 0.09741338154886628 0.017653670219199644 -0.10384062952008724 0.0941 0.4392 0.0980
v 0.10162932160480032 0.037985336378230136 -0.10870265867336552 0.4353 0.4784 0.4667
v 0.10038845754206581 0.0374207881630313 -0.11358264744631148 0.4431 0.4745 0.4667
v -0.15979686487962413 0.05693500366148515 0.1270965134291824 0.4431 0.4706 0.4784
v -0.15769038123825435 0.05682688090559935 0.1218823028114705 0.4392 0.4706 0.4784
v -0.15216885456464269 0.016690450445710985 0.1173796419699503 0.1098 0.4000 0.1098
v -0.10248493002283826 -0.06699103820074902 0.21555899735548062 0.6980 0.6706 0.6275
v -0.09890814778373845 -0.014254843838136475 0.2257150530782775 0.7059 0.6667 0.6275
v -0.09807836243959607 -0.04513708232156409 0.22104075329817288 0.7059 0.6667 0.6275
v -0.09767897924745254 0.05997827042374121 0.232921971382553 0.7059 0.6667 0.6275
v -0.09728116911966048 0.031750610391257594 0.23252720894429135 0.7059 0.6706 0.6196
v -0.09653370929355476 0.0004927403639931827 0.22836697089111174 0.7059 0.6667 0.6275
v -0.07972451159388874 -0.03098771616309578 0.22871535614946384 0.7255 0.6667 0.6196
v -0.08018304356294322 -0.00013198858774679783 0.23330654800625147 0.7059 0.6627 0.6314
v -0.08086027527477002 0.047088872896228866 0.24029884409920843 0.2392 0.3137 0.3961
v -0.07989388232460794 -0.015556213666545051 0.2307785885070272 0.2392 0.3137 0.3961
v -0.07938945469168046 -0.046317170410375724 0.22586897624678526 0.2392 0.3137 0.3961
v -0.07860503326911404 -0.06327974586392897 0.22315272271324396 0.7098 0.6667 0.6275
v -0.0606865752806984 -0.03150047826418146 0.2338337802714346 0.7059 0.6667 0.6275
v -0.06143942007178437 -0.0004887952443863371 0.2465252597852551 0.7059 0.6667 0.6275
v -0.06134575223685243 0.060029313186701266 0.24577092837740883 0.7059 0.6667 0.6275
v -0.061962610910795766 0.031739432563296636 0.25804310482031234 0.7059 0.6667 0.6275
v -0.05974323369086408 -0.060736257540594724 0.22517917491006453 0.7059 0.6667 0.6275
v -0.02301784386421928 -0.021154950961869288 0.003727846008770678 0.7059 0.6706 0.6196
v -0.0132749521323999 -0.0928685012794928 0.22103865518806132 0.4706 0.3137 0.2392
v -0.012576351749781521 0.06592427884981421 0.25286246634546833 0.2235 0.3333 0.2000
v -0.010888344007745073 -0.021308612941170063 0.004079340032367615 0.2392 0.3137 0.3961
v -0.0019747523611813103 -0.047277247579891706 0.2325340144657304 0.2392 0.3137 0.3961
v 0.00010953473233507961 -0.03638715759262093 0.07990053146815755 0.4353 0.4745 0.5255
v 0.017785169237221905 -0.03196525520866742 0.23302525945926308 0.7137 0.6667 0.6275
v 0.018443606704234797 -0.00221965611793038 0.22827296775637754 0.7059 0.6627 0.6314
v 0.037945121826020826 0.04623296070662045 0.24087023322683973 0.2392 0.3176 0.3882
v 0.0368853915776834 -0.03144390313201309 0.2293420883695207 0.7176 0.6627 0.6275
v 0.03732141106990991 -0.0007655441224605031 0.23382301392549823 0.7137 0.6667 0.6275
v 0.03709001058023913 -0.016085889900531662 0.23116587904418845 0.2392 0.3176 0.3882
v 0.03666845811629485 -0.046699313064327515 0.22651213631915065 0.2392 0.3137 0.3961
v -0.0040695121993086225 0.035871096422564815 -0.18211892974503702 0.1725 0.2235 0.1333
v 0.012080679601988031 -0.018285453810451362 -0.061731062345184474 0.4275 0.4745 0.5255
v 0.06605750591135705 0.05380407905980925 0.2346172913636638 0.7059 0.6667 0.6275
v 0.07456080400148507 0.06184886198844823 0.22944097551921702 0.7137 0.6667 0.6275
v 0.07604466887565728 -0.06924772394188633 0.23462970326616533 0.7020 0.6667 0.6275
v 0.07445481298594932 -0.06645465271766839 0.210225415183809 0.7176 0.6706 0.6235
v 0.07734843878809936 0.06449128150506872 0.22821960897257734 0.7059 0.6627 0.6235
v 0.07544685861097888 -0.06726766255671304 0.2108939330127981 0.7294 0.6627 0.6157
v 0.13685612576626535 0.045069223281823834 0.11368930041127269 0.4510 0.4824 0.4784
v 0.005129020363769473 0.026835884859703656 -0.2820733924455969 0.4431 0.4706 0.4784
v 0.14315066391565576 0.015289279724687861 0.09363674213796427 0.0902 0.3725 0.0863
v -0.028294998325294717 0.04275272301711512 -0.09465357114381492 0.2431 0.3137 0.2000
v -0.02652105155546121 -0.019780045680421576 -0.09988360251814357 0.7098 0.6667 0.6275
v -0.026105871433575456 -0.019462356250652704 -0.0998357858805099 0.7098 0.6627 0.6235
v -0.023151300803764832 0.03828551730450035 -0.09523764957209989 0.7020 0.6667 0.6275
v -0.01495397546577957 -0.0027301915784430954 -0.09783983849157257 0.7176 0.6627 0.6275
v -0.014761173065077755 -0.01738238865077816 -0.09889136562235482 0.7059 0.6706 0.6157
v 0.014830604612612836 -0.030688295337302104 -0.10091750796266831 0.4706 0.3137 0.2392
v 0.013534909695944553 -0.014228104577265343 -0.08373267914178938 0.4275 0.4745 0.5255
v 0.023625808888341124 -0.023485688796597726 -0.17048967430892456 0.6667 0.6078 0.5333
v 0.02890917010379574 -0.015840893556181117 -0.10430649951105529 0.7137 0.6667 0.6275
v 0.036456040172041786 -0.017448786038288176 -0.08845421657647 0.7137 0.6667 0.6275
v 0.04000004060288804 -0.007230523236382947 -0.09496841257977087 0.2392 0.3137 0.3961
v 0.04426849569212405 0.010291392276748577 0.009369063952648374 0.4078 0.4706 0.5373
v 0.05393544408754189 -0.018589591141278696 -0.11469469669580454 0.7098 0.6667 0.6235
v 0.054316066653780914 -0.01878522905423939 -0.11415568549918047 0.7098 0.6667 0.6235
v 0.08025074440562416 0.03051746074615501 -0.156967816884676 0.4471 0.4784 0.4745
v -0.031065233531789322 0.051104553228521664 -0.13701998397186033 0.1569 0.2863 0.1412
v -0.026620859356521306 -0.019968539602059396 -0.0977479611558016 0.7098 0.6667 0.6275
v -0.02271861339276554 0.011576136915966507 -0.09715943447135772 0.7059 0.6667 0.6275
v -0.022324468006975243 -0.0023730749766286458 -0.09894734149124652 0.7059 0.6667 0.6275
v -0.015208821619970734 0.032586831751742304 -0.09422991174306991 0.2392 0.3176 0.3882
v -0.006519103195256815 0.038358995169317164 -0.09152089946850375 0.7059 0.6667 0.6275
v -0.006175141635504138 -0.01623740345123196 -0.09805301418668134 0.7098 0.6667 0.6275
v -0.006252342412884661 0.018373688940702692 -0.0952435001134015 0.7137 0.6667 0.6196
v -0.006167332721938261 0.0043057337623184045 -0.09697319757005078 0.7020 0.6706 0.6196
v -0.006203715360171518 0.011341181084753972 -0.09592728625244083 0.7098 0.6667 0.6275
v -0.006242734320030205 0.02552995850065448 -0.09373977350378282 0.7059 0.6667 0.6235
v 0.002641418744126666 -0.002684159305882067 -0.09773237343972455 0.7176 0.6627 0.6275
v 0.002652677645348938 -0.009674020625389437 -0.09832923351985848 0.2392 0.3137 0.3961
v 0.0033113013578727098 0.025575770903459166 -0.08677842243799017 0.7216 0.6627 0.6235
v 0.006394936410446606 0.042362821124903804 -0.10018028844049845 0.2510 0.3098 0.2039
v 0.007000408182133411 0.0024689938017275715 -0.22296418494458928 0.4275 0.4745 0.5255
v 0.011073280663818217 0.01087034507134162 -0.09940455297328837 0.7098 0.6667 0.6275
v 0.01768844927048045 -0.04825746807818091 0.24067976060033938 0.7059 0.6706 0.6196
v 0.011468116733010783 -0.002676397536202651 -0.09762551986465105 0.7059 0.6667 0.6235
v 0.011529984701942704 -0.01574806381694331 -0.10187885909735016 0.7059 0.6627 0.6275
v 0.015737990602263347 0.042505517497163255 -0.09344359148541098 0.1725 0.2706 0.1529
v 0.015285147334876834 0.0013210878642301014 -0.19485920733033396 0.2392 0.3137 0.3961
v 0.03733359176264552 -0.04801453253840511 0.23702380055879063 0.2392 0.3137 0.3961
v 0.017323286856320265 0.002852319055852134 -0.19510660044487846 0.2314 0.3176 0.3882
v 0.024882714083603423 0.043226947239875996 -0.09248658464435512 0.1569 0.2431 0.1451
v 0.027469402505380068 0.05158456776108856 -0.1334016113580791 0.1569 0.2863 0.1373
v 0.021135854707662 0.006220455536565743 -0.22715387385781516 0.2392 0.3137 0.3961
v 0.037399318278412454 -0.0024660725974796223 -0.10145803946420946 0.7176 0.6627 0.6275
v 0.0373570876067954 -0.009305316081696565 -0.10212202830403971 0.2392 0.3137 0.3961
v 0.037554026905110324 0.004343276713309242 -0.10041519172568754 0.2392 0.3176 0.3882
v 0.05490010895017929 -0.01934129554617363 -0.09849788725240208 0.7059 0.6627 0.6314
v 0.054260093481762396 -0.018265054277403023 -0.10813929729080665 0.7098 0.6667 0.6235
v 0.05543012209767901 0.040163819810128995 -0.10176555558601229 0.7059 0.6667 0.6314
v 0.1044330834291106 0.040352895328440996 -0.08069769312373049 0.4275 0.4784 0.4667
v 0.10771158441478182 0.017377118487206217 -0.07397887859259451 0.0941 0.4392 0.0980
v -0.10305010148786713 -0.06773569512670598 0.21984697856676821 0.6980 0.6706 0.6275
v -0.0976192220063223 0.05984043636186583 0.23236881109664598 0.7059 0.6667 0.6275
v -0.09777726220655526 0.031773101940653 0.23664564838757832 0.7059 0.6706 0.6196
v -0.0969980890298824 0.00025692554047249523 0.232240408759981 0.7059 0.6667 0.6275
v -0.081180778760336 0.04715905547285757 0.24376592402086644 0.2392 0.3137 0.3961
v -0.07976179421116679 -0.04690091906225117 0.2299678887434991 0.2392 0.3137 0.3961
v -0.060852758845639926 -0.03189059285166745 0.23666150756442247 0.7059 0.6667 0.6275
v -0.06115694756468012 -0.00048600877997569944 0.24166643662861625 0.7059 0.6667 0.6275
v -0.060888120599825186 -0.016229030463009927 0.23816612210144064 0.7059 0.6667 0.6275
v -0.0615883414114658 0.060188785990895825 0.24985021475231997 0.7059 0.6667 0.6275
v -0.061325755199692696 0.03148734787718689 0.2470980516292705 0.7059 0.6667 0.6275
v -0.06005301076481712 -0.06161970989041142 0.2305461302760548 0.7059 0.6667 0.6275
v -0.043026725659412166 0.047425055144740505 0.2550547410875713 0.2314 0.3098 0.4078
v -0.04207347609025884 0.014952878132077702 0.2635625143927347 0.2392 0.3137 0.3961
v -0.04114759240222342 -0.04774573467617676 0.23637079552041718 0.2392 0.3137 0.3961
v -0.04130102157470285 -0.016456897835873403 0.2408111435718047 0.2392 0.3176 0.3882
v -0.04119244756826494 -0.03204412669928648 0.23786032435159538 0.7255 0.6667 0.6235
v -0.03990718353826615 0.03161764731102614 0.26446115317640395 0.7137 0.6706 0.6157
v -0.023048359847872 -0.1147585264699067 0.22498931804629832 0.7137 0.6549 0.5647
v -0.0216033196861546 -0.062215983990262194 0.2337265800618335 0.7020 0.6667 0.6275
v -0.02154910836069732 -0.01679876854856252 0.24277742297204427 0.7059 0.6706 0.6196
v -0.021509574544922652 -0.032519175380133075 0.24097920839357173 0.7098 0.6667 0.6275
v -0.010856314917273612 -0.02143291598139414 0.0048985232095599554 0.2392 0.3137 0.3961
v -0.0017728713179825742 -0.04803769078670876 0.2376986847263244 0.2392 0.3137 0.3961
v 0.01793542465081188 -0.031973020131334476 0.2351076617437141 0.7137 0.6667 0.6275
v 0.03742866358136157 -0.03205203128684214 0.23454715472526974 0.7176 0.6627 0.6275
v 0.03733320722795717 -0.04760762263638987 0.23287592194376608 0.2392 0.3137 0.3961
v -0.002348269518992476 -0.003111403073536833 -0.17966248545688665 0.4275 0.4745 0.5255
v 0.07748161671938328 -0.07078617866521907 0.24314324325752645 0.7020 0.6667 0.6275
v 0.0758188102454021 -0.06789705994794114 0.21812190441432225 0.7176 0.6706 0.6235
v 0.07868367141236748 0.06513178370738698 0.23588784717802494 0.7059 0.6627 0.6235
v 0.07527219134141892 -0.06699414628246332 0.20990298006619718 0.7294 0.6627 0.6157
v 0.025242953919607534 0.05840323343933012 -0.08192263316230265 0.1569 0.2863 0.1412
v 0.08295032797667784 0.06809239907551017 0.23878606176751027 0.1569 0.2157 0.1451
v 0.0036717672821497188 0.02552533748316373 -0.2818227649037322 0.4510 0.4824 0.4784
v 0.009206986523275165 0.02114812363037803 -0.2820733744510455 0.1216 0.4471 0.1333
v -0.007339657723404115 -0.007735784292637739 -0.1781891100876318 0.7176 0.6706 0.6118
v -0.030591814442688516 -0.022277880315096407 -0.08126145286590174 0.7098 0.6706 0.6235
v -0.07695549366714591 0.05438312962343644 0.14142111779160274 0.7137 0.6667 0.6275
v -0.04584618486276463 0.027629969998539824 0.005746118950847669 0.7216 0.6627 0.6275
v -0.03691205756250821 0.0094502338223 -0.03431662895521498 0.7020 0.6667 0.6275
v -0.027570976548810813 -0.004425751776477035 -0.07566507977641332 0.7137 0.6627 0.6314
v -0.018713545655752756 -0.011782703686389841 -0.07946000846759242 0.2392 0.3137 0.3961
v -0.027149717628977436 0.017845201803427795 -0.034368348806667746 0.2392 0.3137 0.3961
v -0.01864787152740858 -0.0042771602104782645 -0.07917631400828606 0.7176 0.6627 0.6275
v -0.02458325931190236 0.001376800209252609 -0.04861230268612675 0.2392 0.3176 0.3882
v -0.03756797743026451 0.03758209840039569 0.02009450396613337 0.2392 0.3176 0.3882
v -0.007601094474307845 -0.010622234713080155 -0.08945994596822503 0.7020 0.6667 0.6275
v -0.0004835491873600378 -0.01143665855614272 -0.132837479102062 0.7176 0.6627 0.6275
v -0.021620264418144873 0.04423396967013681 0.0017152943226242817 0.7059 0.6627 0.6314
v -0.013424458561454019 -0.0065840886183649834 -0.05318569478834943 0.7137 0.6667 0.6275
v -0.0805653079146258 -0.0043396266623532045 0.3625857864634249 0.7098 0.6667 0.6275
v 0.0021652988332910086 -0.010119810001539142 -0.09470170754050178 0.2392 0.3137 0.3961
v 0.037324118831291 -0.00021403038554885853 -0.1290753076881709 0.7176 0.6627 0.6275
v 0.037296548581745165 -0.0010543556693407034 -0.17530052793622447 0.2392 0.3137 0.3961
v 0.046371398015493136 -0.00035809320328495314 -0.22621119488123187 0.7098 0.6667 0.6275
v -0.05043804925380118 0.05943575343878304 -0.07190815350908684 0.1569 0.2784 0.1412
v -0.02633752677603459 -0.0196804514910207 -0.09881430972215378 0.7098 0.6667 0.6275
v -0.014928950219480321 0.03259602551844258 -0.09594185124621077 0.2392 0.3176 0.3882
v 0.00427305368356897 -0.010167748540010827 -0.08221245619355674 0.2196 0.3098 0.3804
v 0.011473859103623422 -0.016049265349195787 -0.10080068673033901 0.7059 0.6627 0.6275
v 0.025270948366301005 0.057638876646258136 -0.09070102627520316 0.1569 0.2745 0.1373
