COFF
789 263 0
-0.013625592171097215 -0.013560661345016548 -0.09837169716762939
-0.022765243213055595 -0.008283881355642633 -0.09837169716762939
-0.0227652432130556 -0.018837441334390463 -0.09837169716762939
-0.015088919220120029 -0.005650898992771133 -0.09831037105344752
-0.02202474963443803 -0.001646495436011041 -0.09831037105344752
-0.022024749634438033 -0.009655302549531224 -0.09831037105344752
-0.01252564982244736 -0.00963416261034062 -0.09848491329285938
-0.0160723142108391 -0.007586494970977389 -0.09848491329285938
-0.016072314210839104 -0.01168183024970385 -0.09848491329285938
-0.005030607614105511 -0.013529196443838343 -0.09854566011819531
-0.01256662094901591 -0.009178277116311213 -0.09854566011819531
-0.012566620949015913 -0.01788011577136547 -0.09854566011819531
-0.004608249325788548 -0.005683795502779155 -0.0984453412257019
-0.012771675703424242 -0.0009706390861414947 -0.0984453412257019
-0.012771675703424246 -0.010396951919416815 -0.0984453412257019
-0.004514815499487787 0.0005176916736905313 -0.09836599050513807
-0.012809782198386813 0.005306792930218866 -0.09836599050513807
-0.012809782198386816 -0.004271409582837802 -0.09836599050513807
-0.010185270517899317 -0.006979874183085644 0.23386430548573275
-0.04004354563486083 0.010258808993229993 0.23386430548573275
-0.040043545634860844 -0.024218557359401274 0.23386430548573275
-0.0005070394656150655 -0.0095642449145921 -0.09862558787890882
-0.008884193371049991 -0.00472769285224632 -0.09862558787890882
-0.008884193371049995 -0.014400796976937878 -0.09862558787890882
0.00342158548856927 0.0005045284697232714 -0.09866106429528275
-0.0049200655534560305 0.005320582944322502 -0.09866106429528275
-0.004920065553456035 -0.004311526004875958 -0.09866106429528275
0.0032981873103701633 -0.00560977374966093 -0.09874000741667677
-0.004838161070642383 -0.0009122508216627594 -0.09874000741667677
-0.004838161070642387 -0.0103072966776591 -0.09874000741667677
0.0027596080275220465 0.014554476248882143 -0.09848127240036918
-0.004559919792220635 0.018780407605951534 -0.09848127240036918
-0.004559919792220639 0.01032854489181275 -0.09848127240036918
0.0019415355162931934 -0.013510718846391588 -0.0988419637166652
-0.0041277400242111986 -0.010006620979295366 -0.0988419637166652
-0.0041277400242112 -0.01701481671348781 -0.0988419637166652
0.0028977685778259535 -0.011832107942281542 -0.09889894900252476
-0.002143573826136739 -0.008921487548276607 -0.09889894900252476
-0.0021435738261367412 -0.014742728336286478 -0.09889894900252476
0.0053020686373450275 0.016238912403939276 -0.09853834290228423
-0.0033593759055315403 0.021239599742340076 -0.09853834290228423
-0.0033593759055315442 0.011238225065538475 -0.09853834290228423
0.0004050902925658668 -0.04727184235098661 0.23203963994127444
-0.0031937047208761473 -0.04519407708121758 0.23203963994127444
-0.003193704720876149 -0.04934960762075564 0.23203963994127444
0.014267243969620792 0.00848233066113295 -0.09910386957801699
0.00415531435382492 0.014320455946839247 -0.09910386957801699
0.004155314353824916 0.002644205375426656 -0.09910386957801699
-0.024430111879082766 -0.019821901075638935 -0.09956312811103646
-0.02743011187908277 -0.018089850268070057 -0.09956312811103646
-0.02743011187908277 -0.021553951883207814 -0.09956312811103646
-0.02400862743602124 -0.01950264417465916 -0.09948319242423102
-0.027008627436021244 -0.017770593367090283 -0.09948319242423102
-0.027008627436021244 -0.02123469498222804 -0.09948319242423102
-0.022719542752678006 0.04123166943073706 -0.09489697754250656
-0.028233818211659403 0.04441533785136572 -0.09489697754250656
-0.028233818211659406 0.038048001010108405 -0.09489697754250656
-0.022051365348009368 -0.023374773623904412 -0.09992136095747704
-0.027648962492882245 -0.020142999405496975 -0.09992136095747704
-0.027648962492882248 -0.026606547842311846 -0.09992136095747704
-0.020899883063499148 0.03827121498260929 -0.0956594170206061
-0.024472400912993224 0.040333809124699437 -0.0956594170206061
-0.024472400912993224 0.036208620840519144 -0.0956594170206061
-0.015452149399216533 0.025493174111827752 -0.09616805245062743
-0.026632906093982247 0.03194838699929445 -0.09616805245062743
-0.02663290609398225 0.01903796122436106 -0.09616805245062743
-0.02068489668344781 0.011336242689109642 -0.09653599861878483
-0.023684896683447813 0.01306829349667852 -0.09653599861878483
-0.023684896683447813 0.009604191881540766 -0.09653599861878483
-0.015739948885565513 0.014334327159708627 -0.09650471211118661
-0.021874142506023743 0.01787590549774147 -0.09650471211118661
-0.021874142506023743 0.010792748821675786 -0.09650471211118661
-0.01241720720068492 -0.009695804973137715 -0.09804760773386928
-0.01616656560663272 -0.007531111888175365 -0.09804760773386928
-0.016166565606632724 -0.011860498058100064 -0.09804760773386928
-0.007568389852427758 0.004299931416422999 -0.09727960371588672
-0.018621423589110047 0.010681403419658536 -0.09727960371588672
-0.018621423589110054 -0.002081540586812535 -0.09727960371588672
-0.013061221192365018 0.03260383692113848 -0.09638429469772068
-0.016061221192365017 0.03433588772870736 -0.09638429469772068
-0.01606122119236502 0.030871786113569603 -0.09638429469772068
-0.004243086882266813 0.014514266408486022 -0.09729767093083617
-0.013068334316471697 0.01960952539028927 -0.09729767093083617
-0.0130683343164717 0.00941900742668278 -0.09729767093083617
-0.001045028825648834 -0.002639404157078328 -0.09805216197408147
-0.008587028823482154 0.0017149715718988976 -0.09805216197408147
-0.008587028823482157 -0.006993779886055552 -0.09805216197408147
0.005899547967127203 -0.00957021692371458 -0.09935721324506985
0.0010739007341871124 -0.006784128194762445 -0.09935721324506985
0.0010739007341871102 -0.012356305652666714 -0.09935721324506985
0.012420093832842583 -0.013395897700273374 -0.10007042031073035
0.00505157209599847 -0.009141679691976816 -0.10007042031073035
0.005051572095998467 -0.01765011570856993 -0.10007042031073035
0.011489595964865793 -0.00554001019304478 -0.10008638817353596
0.0055305900625898675 -0.0020995765312632054 -0.10008638817353596
0.005530590062589866 -0.008980443854826353 -0.10008638817353596
0.01159691288485 0.0006156852835149407 -0.10015427627547924
0.005468974592041486 0.004153652106445353 -0.10015427627547924
0.005468974592041483 -0.0029222815394154703 -0.10015427627547924
0.013874991631734612 -0.01607101000397232 -0.10039059056649476
0.010484009265032256 -0.01411322542173944 -0.10039059056649476
0.010484009265032256 -0.018028794586205196 -0.10039059056649476
0.022227984792160742 -0.005451594611742278 -0.10175052363103095
0.01194176948806549 0.0004871545630195659 -0.10175052363103095
0.011941769488065485 -0.01139034378650412 -0.10175052363103095
0.02015751357402252 -0.0133226406368148 -0.10153930583167424
0.013031937470919245 -0.009208687355556959 -0.10153930583167424
0.013031937470919243 -0.01743659391807264 -0.10153930583167424
0.027264016629892744 -0.006955912038004089 -0.10378657495890518
0.021151812587951985 -0.0034270293890476707 -0.10378657495890518
0.02115181258795198 -0.010484794686960506 -0.10378657495890518
0.02718700170676004 -0.011577306668181887 -0.10354724208761967
0.021267618979509424 -0.008159749457167322 -0.10354724208761967
0.021267618979509424 -0.01499486387919645 -0.10354724208761967
0.028770643771665088 -0.013187223818667208 -0.1039023893481449
0.02279897238341864 -0.009739477735151134 -0.1039023893481449
0.022798972383418638 -0.01663496990218328 -0.1039023893481449
0.029934168369428894 -0.005328096238632791 -0.10436703295002307
0.02216121674298005 -0.0008403805247046113 -0.10436703295002307
0.02216121674298005 -0.009815811952560968 -0.10436703295002307
0.03128519184060462 -0.015825958508616716 -0.1046684114983541
0.027380019012899545 -0.013571305925309177 -0.1046684114983541
0.02738001901289954 -0.018080611091924253 -0.1046684114983541
0.049023251501544594 0.06155289635978056 -0.07497230836674597
0.023345020790305343 0.07637822977322786 -0.07497230836674597
0.023345020790305333 0.04672756294633327 -0.07497230836674597
0.03651233548087577 -0.013041606216788258 -0.10635452487026177
0.03040816687847837 -0.009517362831015258 -0.10635452487026177
0.030408166878478367 -0.01656584960256126 -0.10635452487026177
0.0374733769975475 -0.005225962676462888 -0.10700367725931077
0.02976174563955409 -0.0007736502360342328 -0.10700367725931077
0.029761745639554086 -0.009678275116891542 -0.10700367725931077
0.0378559472085806 -0.011404899537010238 -0.10701758503143514
0.03190605449215388 -0.007969727375531878 -0.10701758503143514
0.031906054492153876 -0.014840071698488597 -0.10701758503143514
0.03788001685458616 -0.006787716147857562 -0.10743583954285658
0.03182524261675356 -0.003291990611762499 -0.10743583954285658
0.031825242616753555 -0.010283441683952625 -0.10743583954285658
0.04942263622901155 -0.012858322246990819 -0.10985815465040029
0.03737183651475179 -0.005900789788012678 -0.10985815465040029
0.03737183651475178 -0.019815854705968958 -0.10985815465040029
0.049488417724762604 -0.005096413804904251 -0.11072134094349063
0.03706968760864565 0.0020735433706291894 -0.11072134094349063
0.037069687608645645 -0.012266370980437688 -0.11072134094349063
0.057516638078946476 -0.022556066315527496 -0.11421429558434651
0.05159884712022305 -0.019139428112500592 -0.11421429558434651
0.05159884712022305 -0.0259727045185544 -0.11421429558434651
0.05564948755201693 -0.018632386446629838 -0.1148737293302695
0.05264948755201693 -0.01690033563906096 -0.1148737293302695
0.05264948755201693 -0.020364437254198717 -0.1148737293302695
0.07225547162357787 0.03991758308468375 -0.12539918122050364
0.03999816182852153 0.05854134957819268 -0.12539918122050364
0.03999816182852152 0.021293816591174828 -0.12539918122050364
0.17369285505992013 0.022331499120138494 -0.027361643623183596
0.08255119485819637 0.07495216117199312 -0.027361643623183596
0.08255119485819633 -0.03028916293171611 -0.027361643623183596
0.011461884685045892 -0.005558264535420581 -0.10039469702915371
0.00536277897751967 -0.0020369442133643333 -0.10039469702915371
0.005362778977519666 -0.009079584857476827 -0.10039469702915371
0.011544164793013793 0.0006047372584380246 -0.10049339997482966
0.0052929392924580265 0.00421388398394895 -0.10049339997482966
0.005292939292458024 -0.0030044094670729 -0.10049339997482966
0.03454383234717742 0.05698841056117003 -0.09636175803468577
0.01683660349301308 0.06721168390672412 -0.09636175803468577
0.01683660349301307 0.04676513721561594 -0.09636175803468577
0.09233371016214734 0.0290951305913812 -0.12938714724397038
0.052608572361202505 0.052030449594351685 -0.12938714724397038
0.05260857236120249 0.006159811588410731 -0.12938714724397038
-0.022066507925226256 0.018418307057684352 -0.08768150675354264
-0.09562202373861588 0.060885603912926634 -0.08768150675354264
-0.09562202373861592 -0.024048989797557915 -0.08768150675354264
-0.02420340308891434 -0.01963011853957852 -0.1011521691329008
-0.027203403088914342 -0.01789806773200964 -0.1011521691329008
-0.027203403088914342 -0.021362169347147398 -0.1011521691329008
-0.023773587546763536 -0.019296872626038106 -0.10117679452121904
-0.02677358754676354 -0.017564821818469228 -0.10117679452121904
-0.02677358754676354 -0.021028923433606985 -0.10117679452121904
-0.017126625226715028 0.004789747956706919 -0.09743801040693614
-0.027370663035385445 0.010704145943131488 -0.09743801040693614
-0.027370663035385448 -0.001124650029717648 -0.09743801040693614
-0.017555818840528363 -0.009277565122832138 -0.09918648810405904
-0.026722913235156846 -0.003984940706406675 -0.09918648810405904
-0.02672291323515685 -0.014570189539257601 -0.09918648810405904
-0.020754271180684517 0.038486354773733876 -0.0933503377105263
-0.025007610836724765 0.04094202156910362 -0.0933503377105263
-0.02500761083672477 0.03603068797836413 -0.0933503377105263
-0.015648749195895754 0.025573483707465917 -0.09499420207744717
-0.02679586605506951 0.032009274626798104 -0.09499420207744717
-0.026795866055069513 0.019137692788133737 -0.09499420207744717
-0.020758095194826874 0.011509069547902184 -0.0968034062224316
-0.023758095194826877 0.013241120355471061 -0.0968034062224316
-0.023758095194826877 0.009777018740333307 -0.0968034062224316
-0.018506153534158555 -0.0024101956662474157 -0.09859221154703898
-0.0242912868072807 0.0009298525862875143 -0.09859221154703898
-0.0242912868072807 -0.005750243918782344 -0.09859221154703898
-0.007897471062538814 0.018341625190837343 -0.09542578379047667
-0.01876376875774613 0.024615285090259897 -0.09542578379047667
-0.018763768757746137 0.01206796529141479 -0.09542578379047667
-0.026880573699106472 -0.047305526257373005 0.23335235265882978
-0.04829740124267024 -0.03494051510990867 0.23335235265882978
-0.04829740124267025 -0.05967053740483734 0.23335235265882978
-0.012343647709426146 -0.009589360196418905 -0.09892275275941022
-0.016111456142733408 -0.007414014983194014 -0.09892275275941022
-0.016111456142733408 -0.011764705409643795 -0.09892275275941022
-0.013249410793263996 0.0325132282579409 -0.09377050399386909
-0.016249410793263995 0.03424527906550978 -0.09377050399386909
-0.016249410793264 0.030781177450372024 -0.09377050399386909
-0.002748429454515157 -0.0161491119829171 -0.0986993710555361
-0.007843161668186879 -0.013207666967904673 -0.0986993710555361
-0.00784316166818688 -0.019090556997929525 -0.0986993710555361
-0.0002794417567436435 0.011190170646581508 -0.09240183902214373
-0.009413681285041262 0.01646382629708666 -0.09240183902214373
-0.009413681285041267 0.005916514996076359 -0.09240183902214373
0.002222175061946466 0.025540785361462967 -0.08775900902042463
-0.010896475528666894 0.03311484181135824 -0.08775900902042463
-0.010896475528666901 0.0179667289115677 -0.08775900902042463
6.440126218759537e-05 -0.04732647770577186 0.23302592888410284
-0.0030434683528146114 -0.04553214834694408 0.23302592888410284
-0.003043468352814613 -0.04912080706459965 0.23302592888410284
0.03570633889551603 -0.024704172821328696 -0.011200949029108322
-0.006137682977847867 -0.0005455155287654584 -0.011200949029108322
-0.006137682977847886 -0.04886283011389193 -0.011200949029108322
0.016085333569043115 0.0012093074822458242 -0.19397769310726476
0.0064466370402672364 0.006774211517771691 -0.19397769310726476
0.006446637040267232 -0.00435559655328004 -0.19397769310726476
0.016683466963812187 0.011048846495179414 -0.23879847828861828
0.00775906685978596 0.016201351297594882 -0.23879847828861828
0.007759066859785956 0.005896341692763949 -0.23879847828861828
0.015259221446961136 0.008165231658289699 -0.23897051932462965
0.00848023456860248 0.01207908155734301 -0.23897051932462965
0.008480234568602477 0.004251381759236389 -0.23897051932462965
0.018273490534085304 0.001205787238963417 -0.1943538429493059
0.013828693349677377 0.003771992089874624 -0.1943538429493059
0.013828693349677375 -0.001360417611947789 -0.1943538429493059
0.025578703099008147 -0.009479802103062127 -0.10033934006939338
0.01737572482265075 -0.0047438103870505325 -0.10033934006939338
0.017375724822650748 -0.01421579381907372 -0.10033934006939338
0.017390811379874086 0.005260574811348471 -0.2393661006621845
0.013122918678544543 0.007724643811333523 -0.2393661006621845
0.01312291867854454 0.002796505811363419 -0.2393661006621845
0.017798495008733387 0.00450199794776495 -0.23946608244243497
0.01404150125831203 0.006671099300914463 -0.23946608244243497
0.014041501258312028 0.0023328965946154373 -0.23946608244243497
0.036609092012927114 -0.0026249807529166148 -0.0997170108534605
0.024902214522661573 0.004133988117458166 -0.0997170108534605
0.02490221452266157 -0.009383949623291393 -0.0997170108534605
0.019831280961851896 0.006364784504649408 -0.23954104332718812
0.015869974645674027 0.008651845772637267 -0.23954104332718812
0.015869974645674027 0.004077723236661551 -0.23954104332718812
0.03199298616297977 -0.015732106545433323 -0.10205182259401742
0.02704310621158597 -0.01287429202303978 -0.10205182259401742
0.02704310621158597 -0.018589921067826864 -0.10205182259401742
0.022800210950847513 0.011082222731338486 -0.23940393702633633
0.017224585271622884 0.014301311718139415 -0.23940393702633633
0.017224585271622884 0.007863133744537558 -0.23940393702633633
0.021296428746787943 0.004546912343035933 -0.23979727960932587
0.017946855169875965 0.006480789549336521 -0.23979727960932587
0.017946855169875965 0.002613035136735346 -0.23979727960932587
0.021278969806213813 0.00820179849271625 -0.23957993645889777
0.017990681451473572 0.01010029265949864 -0.23957993645889777
0.01799068145147357 0.006303304325933859 -0.23957993645889777
0.021815632836746646 0.00530685307295823 -0.23982797215194337
0.018790481498595416 0.0070534250123791995 -0.23982797215194337
0.018790481498595416 0.0035602811335372613 -0.23982797215194337
0.02185091306420924 0.007465815852028977 -0.23970083876935952
0.018813853855244325 0.009219262803869704 -0.23970083876935952
0.018813853855244325 0.005712368900188251 -0.23970083876935952
0.035026280875616975 0.025057309227931666 -0.2386208380786123
0.01238669378592823 0.03812828092850544 -0.2386208380786123
0.012386693785928219 0.011986337527357897 -0.2386208380786123
0.042256515499946405 -0.0023571700993386484 -0.10289995264156716
0.03471691204153439 0.0019958219869585614 -0.10289995264156716
0.03471691204153439 -0.006710162185635856 -0.10289995264156716
0.04430411878379531 0.01117000292900871 -0.1011956417660531
0.03398559720828345 0.017127404138269443 -0.1011956417660531
0.033985597208283445 0.005212601719747981 -0.1011956417660531
0.04897083656191338 0.01804629714197205 -0.10047019620170185
0.03178359679789558 0.02796935464635437 -0.10047019620170185
0.03178359679789557 0.008123239637589735 -0.10047019620170185
0.05502265772451445 0.03181108508522837 -0.09876946725353145
0.02904736380862978 0.04680792801984403 -0.09876946725353145
0.029047363808629774 0.01681424215061271 -0.09876946725353145
0.04119338674344039 -0.009081683450508537 -0.1040368502635542
0.0351038985182763 -0.005565915784482992 -0.1040368502635542
0.03510389851827629 -0.01259745111653408 -0.1040368502635542
0.04253475395994505 0.004425523641534406 -0.10238675243087136
0.0347151357931378 0.00894018229510066 -0.10238675243087136
0.0347151357931378 -8.913501203184748e-05 -0.10238675243087136
0.06205645637355718 0.019369990652985922 -0.08132354254343914
0.030553567030289754 0.03755819229557237 -0.08132354254343914
0.03055356703028974 0.0011817890103994824 -0.08132354254343914
0.027547900358344507 0.004607535255770489 -0.24031500482149784
0.021549545004919755 0.008070687333765304 -0.24031500482149784
0.021549545004919752 0.0011443831777756767 -0.24031500482149784
0.02703058009468052 0.008236110432228624 -0.2400983320513598
0.0218538263250376 0.011224910614660374 -0.2400983320513598
0.021853826325037597 0.005247310249796876 -0.2400983320513598
0.02784150355339346 0.011097062757862715 -0.2399261985239642
0.02150127007038418 0.014757598266003202 -0.2399261985239642
0.021501270070384177 0.007436527249722229 -0.2399261985239642
0.06076605164858959 -0.018818756472545245 -0.10163637161848908
0.05111667119291577 -0.013247684068948851 -0.10163637161848908
0.05111667119291577 -0.024389828876141637 -0.10163637161848908
0.05705583640701022 -0.017770988317753346 -0.11109862678081366
0.05204571008475537 -0.014878390536925478 -0.11109862678081366
0.05204571008475537 -0.020663586098581214 -0.11109862678081366
0.06956585696445207 0.03979733495594734 -0.10439054975772098
0.04760798720027802 0.05247471697512397 -0.10439054975772098
0.04760798720027801 0.027119952936770712 -0.10439054975772098
0.12246402069890136 0.017653670219199644 -0.10384062952008724
0.08488806197384874 0.03934816010416704 -0.10384062952008724
0.08488806197384872 -0.004040819665767751 -0.10384062952008724
0.11984165778075717 0.037985336378230136 -0.10870265867336552
0.09252315351682189 0.05375768216887111 -0.10870265867336552
0.09252315351682187 0.022212990587589167 -0.10870265867336552
0.12057724200938663 0.0374207881630313 -0.11358264744631148
0.0902940653084054 0.05490478838325981 -0.11358264744631148
0.09029406530840539 0.019936787942802795 -0.11358264744631148
-0.11585287754949436 0.05693500366148515 0.1270965134291824
-0.18176885854468902 0.09499161303295905 0.1270965134291824
-0.18176885854468905 0.018878394290011258 0.1270965134291824
-0.11452702855945487 0.05682688090559935 0.1218823028114705
-0.17927205757765408 0.0942074408379468 0.1218823028114705
-0.1792720575776541 0.01944632097325192 0.1218823028114705
-0.09538250760509273 0.016690450445710985 0.1173796419699503
-0.18056202804441765 0.06586886950079845 0.1173796419699503
-0.18056202804441768 -0.03248796860937647 0.1173796419699503
-0.0849255596917884 -0.06699103820074902 0.21555899735548062
-0.11126461518836318 -0.05178417741960106 0.21555899735548062
-0.1112646151883632 -0.08219789898189696 0.21555899735548062
-0.08193594366899838 -0.014254843838136475 0.2257150530782775
-0.10739424984110849 0.00044351608344320517 0.2257150530782775
-0.10739424984110849 -0.028953203759716148 0.2257150530782775
-0.07716208780438698 -0.04513708232156409 0.22104075329817288
-0.10853649975720062 -0.027023057134940923 0.22104075329817288
-0.10853649975720063 -0.06325110750818724 0.22104075329817288
-0.08216233534684944 0.05997827042374121 0.232921971382553
-0.10543730119775409 0.07341607822314036 0.232921971382553
-0.1054373011977541 0.04654046262434206 0.232921971382553
-0.07965335593953768 0.031750610391257594 0.23252720894429135
-0.10609507570972188 0.047016744418410084 0.23252720894429135
-0.10609507570972188 0.016484476364105112 0.23252720894429135
-0.08447660600837921 0.0004927403639931827 0.22836697089111174
-0.10256226093614253 0.010934498105008015 0.22836697089111174
-0.10256226093614254 -0.009949017377021646 0.22836697089111174
-0.06401541835427549 -0.03098771616309578 0.22871535614946384
-0.08757905821369535 -0.01738324234717232 0.22871535614946384
-0.08757905821369537 -0.04459218997901923 0.22871535614946384
-0.06365707262133768 -0.00013198858774679783 0.23330654800625147
-0.08844602903374597 0.014179922069887028 0.23330654800625147
-0.08844602903374599 -0.014443899245380618 0.23330654800625147
-0.06471964278966141 0.047088872896228866 0.24029884409920843
-0.08893059151732433 0.06106707066148128 0.24029884409920843
-0.08893059151732434 0.03311067513097646 0.24029884409920843
-0.06291976569265258 -0.015556213666545051 0.2307785885070272
-0.08838094064058562 -0.000856197456471754 0.2307785885070272
-0.08838094064058563 -0.030256229876618343 0.2307785885070272
-0.06707324406764777 -0.046317170410375724 0.22586897624678526
-0.08554756000369682 -0.03565101913160361 0.22586897624678526
-0.08554756000369682 -0.05698332168914783 0.22586897624678526
-0.06056687108069924 -0.06327974586392897 0.22315272271324396
-0.08762411436332143 -0.04765823917117785 0.22315272271324396
-0.08762411436332145 -0.07890125255668008 0.22315272271324396
-0.04786812386474053 -0.03150047826418146 0.2338337802714346
-0.06709580098867733 -0.02039937370078533 0.2338337802714346
-0.06709580098867735 -0.04260158282757759 0.2338337802714346
-0.046227266922920555 -0.0004887952443863371 0.2465252597852551
-0.06904549664621627 0.01268531582878917 0.2465252597852551
-0.06904549664621629 -0.013662906317561842 0.2465252597852551
-0.04405732948790404 0.060029313186701266 0.24577092837740883
-0.06998996361132662 0.07500152647865538 0.24577092837740883
-0.06998996361132663 0.04505709989474717 0.24577092837740883
-0.042393700906632546 0.031739432563296636 0.25804310482031234
-0.07174706591287737 0.048686605751273426 0.25804310482031234
-0.07174706591287738 0.014792259375319847 0.25804310482031234
-0.04343288578538328 -0.060736257540594724 0.22517917491006453
-0.06789840764360448 -0.04661108190988603 0.22517917491006453
-0.0678984076436045 -0.07486143317130341 0.22517917491006453
-0.003420335614272633 -0.021154950961869288 0.003727846008770678
-0.0328165979891926 -0.004183010966540376 0.003727846008770678
-0.03281659798919261 -0.03812689095719819 0.003727846008770678
0.02230593989432682 -0.0928685012794928 0.22103865518806132
-0.031065398145763253 -0.06205454489503627 0.22103865518806132
-0.031065398145763277 -0.12368245766394931 0.22103865518806132
0.03092534778246745 0.06592427884981421 0.25286246634546833
-0.034327201515906 0.10359785575253945 0.25286246634546833
-0.03432720151590603 0.02825070194708898 0.25286246634546833
0.0015617690122280339 -0.021308612941170063 0.004079340032367615
-0.017113400517731622 -0.010526498785885956 0.004079340032367615
-0.017113400517731633 -0.032090727096454164 0.004079340032367615
9.67458004640584e-05 -0.047277247579891706 0.2325340144657304
-0.0030105014420039942 -0.04548327754801405 0.2325340144657304
-0.0030105014420039955 -0.04907121761176936 0.2325340144657304
0.07890796192569752 -0.03638715759262093 0.07990053146815755
-0.03928967886434612 0.03185428213508948 0.07990053146815755
-0.03928967886434617 -0.1046285973203313 0.07990053146815755
0.03096781698893645 -0.03196525520866742 0.23302525945926308
0.011193845361364637 -0.02054874736654081 0.23302525945926308
0.011193845361364627 -0.043381763050794026 0.23302525945926308
0.04286923168993434 -0.00221965611793038 0.22827296775637754
0.006230794211385032 0.01893355562299734 0.22827296775637754
0.006230794211385017 -0.02337286785885809 0.22827296775637754
0.07673749773375227 0.04623296070662045 0.24087023322683973
0.018548933872155116 0.0798281437158713 0.24087023322683973
0.01854893387215509 0.012637777697369616 0.24087023322683973
0.04896973282283715 -0.03144390313201309 0.2293420883695207
0.030843220955106526 -0.020978556625709865 0.2293420883695207
0.030843220955106516 -0.04190924963831631 0.2293420883695207
0.059417455940827354 -0.0007655441224605031 0.23382301392549823
0.02627338863445119 0.018370192058914856 0.23382301392549823
0.026273388634451174 -0.019901280303835856 0.23382301392549823
0.05287062023338601 -0.016085889900531662 0.23116587904418845
0.029199705753665685 -0.0024194810537005174 0.23116587904418845
0.029199705753665678 -0.0297522987473628 0.23116587904418845
0.047533203557567 -0.046699313064327515 0.22651213631915065
0.031236085395658777 -0.03729016750653466 0.22651213631915065
0.031236085395658766 -0.05610845862212037 0.22651213631915065
0.03581434671449161 0.035871096422564815 -0.18211892974503702
-0.024011441656208728 0.07041153144287024 -0.18211892974503702
-0.024011441656208755 0.0013306614022593963 -0.18211892974503702
0.037123133294711744 -0.018285453810451362 -0.061731062345184474
-0.000440547244373821 0.0034019472605428015 -0.061731062345184474
-0.0004405472443738366 -0.039972854881445516 -0.061731062345184474
0.08159789217850243 0.05380407905980925 0.2346172913636638
0.05828731277778436 0.06726244835177998 0.2346172913636638
0.05828731277778435 0.04034570976783853 0.2346172913636638
0.08294634263154371 0.06184886198844823 0.22944097551921702
0.07036803468645575 0.06911095146649478 0.22944097551921702
0.07036803468645575 0.05458677251040169 0.22944097551921702
0.09243139206973844 -0.06924772394188633 0.23462970326616533
0.0678513072786167 -0.055056405371028364 0.23462970326616533
0.06785130727861668 -0.0834390425127443 0.23462970326616533
0.07799470721687903 -0.06645465271766839 0.210225415183809
0.07268486587048446 -0.06338901438697328 0.210225415183809
0.07268486587048446 -0.06952029104836349 0.210225415183809
0.08545857229704183 0.06449128150506872 0.22821960897257734
0.07329337203362812 0.07151486315189633 0.22821960897257734
0.07329337203362811 0.057467699858241114 0.22821960897257734
0.0786981870708456 -0.06726766255671304 0.2108939330127981
0.07382119438104552 -0.06445192951442114 0.2108939330127981
0.07382119438104552 -0.07008339559900495 0.2108939330127981
0.2366850616388715 0.045069223281823834 0.11368930041127269
0.0869416578299623 0.13152361778026844 0.11368930041127269
0.08694165782996223 -0.04138517121662072 0.11368930041127269
0.023433719944644597 0.026835884859703656 -0.2820733924455969
-0.004023329426668087 0.04268821970538388 -0.2820733924455969
-0.004023329426668099 0.010983550014023433 -0.2820733924455969
0.24027643959090997 0.015289279724687861 0.09363674213796427
0.09458777607802868 0.09940266882172671 0.09363674213796427
0.09458777607802861 -0.06882410937235095 0.09363674213796427
-0.02305218432483521 0.04275272301711512 -0.09465357114381492
-0.03091640532552447 0.047293133128829774 -0.09465357114381492
-0.03091640532552447 0.038212312905400475 -0.09465357114381492
-0.024521051555461207 -0.019780045680421576 -0.09988360251814357
-0.02752105155546121 -0.018047994872852698 -0.09988360251814357
-0.02752105155546121 -0.021512096487990455 -0.09988360251814357
-0.024105871433575454 -0.019462356250652704 -0.0998357858805099
-0.027105871433575457 -0.017730305443083825 -0.0998357858805099
-0.027105871433575457 -0.021194407058221582 -0.0998357858805099
-0.020889525540547123 0.03828551730450035 -0.09523764957209989
-0.024282188435373685 0.04024427214009812 -0.09523764957209989
-0.024282188435373688 0.036326762468902575 -0.09523764957209989
-0.009197492871356107 -0.0027301915784430954 -0.09783983849157257
-0.0178322167629913 0.002255068584770579 -0.09783983849157257
-0.017832216762991307 -0.007715451741656768 -0.09783983849157257
-0.00805852894272456 -0.01738238865077816 -0.09889136562235482
-0.01811249512625435 -0.01157772856829384 -0.09889136562235482
-0.018112495126254353 -0.023187048733262477 -0.09889136562235482
0.02993936208690373 -0.030688295337302104 -0.10091750796266831
0.007276225875467393 -0.017603727544948176 -0.10091750796266831
0.0072762258754673825 -0.043772863129656024 -0.10091750796266831
0.028008050246765503 -0.014228104577265343 -0.08373267914178938
0.006298339420534081 -0.0016939971877116943 -0.08373267914178938
0.006298339420534071 -0.026762211966818987 -0.08373267914178938
0.05572566536654505 -0.023485688796597726 -0.17048967430892456
0.007575880649239166 0.004313602371361365 -0.17048967430892456
0.007575880649239145 -0.051284979964556804 -0.17048967430892456
0.031446603762144275 -0.015840893556181117 -0.10430649951105529
0.027640453274621474 -0.0136434115476336 -0.10430649951105529
0.02764045327462147 -0.018038375564728634 -0.10430649951105529
0.051226854869519105 -0.017448786038288176 -0.08845421657647
0.02907063282330313 -0.004656885275680258 -0.08845421657647
0.02907063282330312 -0.03024068680089609 -0.08845421657647
0.04868437032488243 -0.007230523236382947 -0.09496841257977087
0.035657875741890846 0.00029032691770445023 -0.09496841257977087
0.03565787574189084 -0.014751373390470342 -0.09496841257977087
0.1049711385431069 0.010291392276748577 0.009369063952648374
0.01391717426663264 0.06286142306255357 0.009369063952648374
0.013917174266632599 -0.042278638509056395 0.009369063952648374
0.05593544408754189 -0.018589591141278696 -0.11469469669580454
0.05293544408754189 -0.016857540333709817 -0.11469469669580454
0.05293544408754189 -0.020321641948847575 -0.11469469669580454
0.056316066653780916 -0.01878522905423939 -0.11415568549918047
0.053316066653780914 -0.017053178246670513 -0.11415568549918047
0.053316066653780914 -0.02051727986180827 -0.11415568549918047
0.12148089792217988 0.03051746074615501 -0.156967816884676
0.059635667647346305 0.06622382109342456 -0.156967816884676
0.05963566764734628 -0.005188899601114544 -0.156967816884676
0.01253013042648939 0.051104553228521664 -0.13701998397186033
-0.05286291551092867 0.08885924590361954 -0.13701998397186033
-0.0528629155109287 0.013349860553423791 -0.13701998397186033
-0.024620859356521304 -0.019968539602059396 -0.0977479611558016
-0.027620859356521307 -0.018236488794490517 -0.0977479611558016
-0.027620859356521307 -0.021700590409628275 -0.0977479611558016
-0.02071861339276554 0.011576136915966507 -0.09715943447135772
-0.023718613392765542 0.013308187723535383 -0.09715943447135772
-0.023718613392765542 0.00984408610839763 -0.09715943447135772
-0.018445729736018844 -0.0023730749766286458 -0.09894734149124652
-0.02426383714245344 0.0009860109006505245 -0.09894734149124652
-0.024263837142453445 -0.005732160853907814 -0.09894734149124652
-0.013208821619970734 0.032586831751742304 -0.09422991174306991
-0.016208821619970733 0.03431888255931118 -0.09422991174306991
-0.016208821619970736 0.030854780944173425 -0.09422991174306991
0.004359306464887808 0.038358995169317164 -0.09152089946850375
-0.011958308025329125 0.04777997428777645 -0.09152089946850375
-0.011958308025329132 0.028938016050857884 -0.09152089946850375
-0.0027176873981865613 -0.01623740345123196 -0.09805301418668134
-0.007903868754162926 -0.013243160249292785 -0.09805301418668134
-0.007903868754162928 -0.01923164665317113 -0.09805301418668134
0.0001879560115373071 0.018373688940702692 -0.0952435001134015
-0.009472491625095643 0.02395115098420501 -0.0952435001134015
-0.009472491625095648 0.012796226897200374 -0.0952435001134015
-2.879384581121365e-05 0.0043057337623184045 -0.09697319757005078
-0.009236602160001783 0.009621864371162806 -0.09697319757005078
-0.009236602160001788 -0.0010103968465259945 -0.09697319757005078
-0.0013534234750299601 0.011341181084753972 -0.09592728625244083
-0.008628861302742296 0.015541657073056075 -0.09592728625244083
-0.008628861302742298 0.00714070509645187 -0.09592728625244083
0.0019895087011050343 0.02552995850065448 -0.09373977350378282
-0.010358855830597823 0.03265929008708476 -0.09373977350378282
-0.010358855830597829 0.01840062691422421 -0.09373977350378282
0.008516749466601414 -0.002684159305882067 -0.09773237343972455
-0.00029624661711070716 0.0024040263554162456 -0.09773237343972455
-0.00029624661711071107 -0.007772344967180378 -0.09773237343972455
0.00550387030631098 -0.009674020625389437 -0.09832923351985848
0.0012270813148679174 -0.007204815349912555 -0.09832923351985848
0.0012270813148679155 -0.012143225900866316 -0.09832923351985848
0.015433814795349107 0.025575770903459166 -0.08677842243799017
-0.002749955360865486 0.03607417549803195 -0.08677842243799017
-0.002749955360865494 0.01507736630888639 -0.08677842243799017
0.02226778812747894 0.042362821124903804 -0.10018028844049845
-0.0015414894480695572 0.05610911394235725 -0.10018028844049845
-0.0015414894480695676 0.028616528307450362 -0.10018028844049845
0.023959786746360578 0.0024689938017275715 -0.22296418494458928
-0.001479281099980168 0.017156246470745557 -0.22296418494458928
-0.0014792810999801785 -0.012218258867290409 -0.22296418494458928
0.01978438193189292 0.01087034507134162 -0.09940455297328837
0.006717730029780866 0.018414380064433154 -0.09940455297328837
0.006717730029780861 0.0033263100782500903 -0.09940455297328837
0.035989689028401675 -0.04825746807818091 0.24067976060033938
0.008537829391519841 -0.03240812952707136 0.24067976060033938
0.008537829391519829 -0.06410680662929046 0.24067976060033938
0.017103353822342866 -0.002676397536202651 -0.09762551986465105
0.008650498188344742 0.0022038609395072105 -0.09762551986465105
0.008650498188344739 -0.007556656011912511 -0.09762551986465105
0.013940641844093766 -0.01574806381694331 -0.10187885909735016
0.010324656130867173 -0.013660373492026097 -0.10187885909735016
0.010324656130867173 -0.017835754141860526 -0.10187885909735016
0.02810170079554303 0.042505517497163255 -0.09344359148541098
0.009556135505623509 0.053212804609572076 -0.09344359148541098
0.0095561355056235 0.03179823038475444 -0.09344359148541098
0.018210328080053257 0.0013210878642301014 -0.19485920733033396
0.013822556962288622 0.00385436870021398 -0.19485920733033396
0.01382255696228862 -0.0012121929717537764 -0.19485920733033396
0.04764560644361363 -0.04801453253840511 0.23702380055879063
0.03217758442216147 -0.03908406586048864 0.23702380055879063
0.03217758442216146 -0.056944999216321575 0.23702380055879063
0.02171907793173343 0.002852319055852134 -0.19510660044487846
0.015125391318613682 0.0066591857968888515 -0.19510660044487846
0.01512539131861368 -0.0009545476851845827 -0.19510660044487846
0.037618289364273805 0.043226947239875996 -0.09248658464435512
0.018514926443268236 0.05425627896474568 -0.09248658464435512
0.018514926443268225 0.032197615515006314 -0.09248658464435512
0.06259633499568003 0.05158456776108856 -0.1334016113580791
0.009905936260230095 0.0820053836547093 -0.1334016113580791
0.009905936260230074 0.021163751867467828 -0.1334016113580791
0.03386997533469957 0.006220455536565743 -0.22715387385781516
0.01476879439414322 0.017248527494435704 -0.22715387385781516
0.01476879439414321 -0.004807616421304213 -0.22715387385781516
0.04247194978353637 -0.0024660725974796223 -0.10145803946420946
0.0348630025258505 0.0019269551499949832 -0.10145803946420946
0.03486300252585049 -0.0068591003449542266 -0.10145803946420946
0.042405973373772526 -0.009305316081696565 -0.10212202830403971
0.03483264472330684 -0.004932852746688693 -0.10212202830403971
0.034832644723306834 -0.013677779416704436 -0.10212202830403971
0.04280395677842539 0.004343276713309242 -0.10041519172568754
0.034929061968452794 0.008889849351686907 -0.10041519172568754
0.03492906196845279 -0.00020329592506842208 -0.10041519172568754
0.06346927981447606 -0.01934129554617363 -0.09849788725240208
0.050615523518030905 -0.011920175888323168 -0.09849788725240208
0.050615523518030905 -0.026762415204024087 -0.09849788725240208
0.05946516888793041 -0.018265054277403023 -0.10813929729080665
0.05165755577867839 -0.013757326747047922 -0.10813929729080665
0.051657555778678386 -0.022772781807758123 -0.10813929729080665
0.07096780819791243 0.040163819810128995 -0.10176555558601229
0.0476612790475623 0.053619850688959504 -0.10176555558601229
0.047661279047562295 0.026707788931298493 -0.10176555558601229
0.13295775404959637 0.040352895328440996 -0.08069769312373049
0.09017074811886773 0.06505598472036529 -0.08069769312373049
0.09017074811886772 0.01564980593651671 -0.08069769312373049
0.13990642630540714 0.017377118487206217 -0.07397887859259451
0.09161416346946917 0.04525866943531117 -0.07397887859259451
0.09161416346946914 -0.010504432460898726 -0.07397887859259451
-0.08550832471653444 -0.06773569512670598 0.21984697856676821
-0.11182098987353346 -0.05254407081521611 0.21984697856676821
-0.11182098987353348 -0.08292731943819584 0.21984697856676821
-0.08203273288000221 0.05984043636186583 0.23236881109664598
-0.10541246656948233 0.07333873190106896 0.23236881109664598
-0.10541246656948235 0.04634214082266272 0.23236881109664598
-0.08078266003179446 0.031773101940653 0.23664564838757832
-0.10627456329393566 0.04649085915120612 0.23664564838757832
-0.10627456329393567 0.017055344730099883 0.23664564838757832
-0.08473568899586682 0.00025692554047249523 0.232240408759981
-0.10312928904689019 0.010876475481297148 0.232240408759981
-0.10312928904689019 -0.010362624400352155 0.232240408759981
-0.0642786968443662 0.04715905547285757 0.24376592402086644
-0.08963181971832089 0.06179668778893298 0.24376592402086644
-0.0896318197183209 0.032521423156782164 0.24376592402086644
-0.0671293760174117 -0.04690091906225117 0.2299678887434991
-0.08607800330804433 -0.035960923995230536 0.2299678887434991
-0.08607800330804434 -0.0578409141292718 0.2299678887434991
-0.0480892654361152 -0.03189059285166745 0.23666150756442247
-0.0672345055504023 -0.02083708331798377 0.23666150756442247
-0.0672345055504023 -0.04294410238535112 0.23666150756442247
-0.047229791957971806 -0.00048600877997569944 0.24166643662861625
-0.06812052536803427 0.011575261777892575 0.24166643662861625
-0.06812052536803428 -0.01254727933784397 0.24166643662861625
-0.04497519862732438 -0.016229030463009927 0.23816612210144064
-0.06884458158607559 -0.0024480357863846513 0.23816612210144064
-0.06884458158607559 -0.0300100251396352 0.23816612210144064
-0.044417341046294 0.060188785990895825 0.24985021475231997
-0.07017384159405168 0.07505930851552647 0.24985021475231997
-0.0701738415940517 0.045318263466265184 0.24985021475231997
-0.040653275485510884 0.03148734787718689 0.2470980516292705
-0.0716619950567836 0.04939024046888682 0.2470980516292705
-0.07166199505678361 0.013584455285486973 0.2470980516292705
-0.043600408664742595 -0.06161970989041142 0.2305461302760548
-0.06827931181485439 -0.04737133851338967 0.2305461302760548
-0.06827931181485439 -0.07586808126743316 0.2305461302760548
-0.021068862082414565 0.047425055144740505 0.2550547410875713
-0.05400565744791096 0.06644112281525347 0.2550547410875713
-0.05400565744791098 0.028408987474227546 0.2550547410875713
-0.017574625745626852 0.014952878132077702 0.2635625143927347
-0.05432290126257483 0.03616950489404215 0.2635625143927347
-0.054322901262574844 -0.006263748629886743 0.2635625143927347
-0.026819223314684705 -0.04774573467617676 0.23637079552041718
-0.04831177694599277 -0.035337003051568575 0.23637079552041718
-0.048311776945992785 -0.06015446630078494 0.23637079552041718
-0.024010761614546534 -0.016456897835873403 0.2408111435718047
-0.049946151554781 -0.001483093472341119 0.2408111435718047
-0.049946151554781014 -0.031430702199405684 0.2408111435718047
-0.0253424735084428 -0.03204412669928648 0.23786032435159538
-0.04911743459817601 -0.01831764651415613 0.23786032435159538
-0.049117434598176024 -0.04577060688441683 0.23786032435159538
-0.020421633050873706 0.03161764731102614 0.26446115317640395
-0.04964995878196237 0.04849262903983225 0.26446115317640395
-0.049649958781962385 0.014742665582220038 0.26446115317640395
0.024475544417782928 -0.1147585264699067 0.22498931804629832
-0.04681031198069945 -0.07360161808882988 0.22498931804629832
-0.04681031198069949 -0.1559154348509835 0.22498931804629832
0.002955407644016625 -0.062215983990262194 0.2337265800618335
-0.03388268335124021 -0.04094750223771873 0.2337265800618335
-0.03388268335124023 -0.08348446574280566 0.2337265800618335
-0.004399337169068495 -0.01679876854856252 0.24277742297204427
-0.03012399395651173 -0.001946631027521432 0.24277742297204427
-0.03012399395651174 -0.0316509060696036 0.24277742297204427
-0.001166131891947867 -0.032519175380133075 0.24097920839357173
-0.03168129587141004 -0.014901237242225016 0.24097920839357173
-0.03168129587141005 -0.050137113518041135 0.24097920839357173
0.0017825113707048684 -0.02143291598139414 0.0048985232095599554
-0.01717572806126285 -0.010487371341986199 0.0048985232095599554
-0.017175728061262857 -0.032378460620802074 0.0048985232095599554
0.003450982809136357 -0.04803769078670876 0.2376986847263244
-0.004384798381542038 -0.04351370040695958 0.2376986847263244
-0.0043847983815420415 -0.05256168116645794 0.2376986847263244
0.030869570006561736 -0.031973020131334476 0.2351076617437141
0.011468351972936951 -0.020771721677014583 0.2351076617437141
0.011468351972936943 -0.04317431858565437 0.2351076617437141
0.04978457203926671 -0.03205203128684214 0.23454715472526974
0.031250709352409006 -0.021351500675461283 0.23454715472526974
0.031250709352409 -0.042752561898223 0.23454715472526974
0.04609179074984583 -0.04760762263638987 0.23287592194376608
0.03295391546701284 -0.040022466805266506 0.23287592194376608
0.03295391546701283 -0.05519277846751322 0.23287592194376608
0.014155955849196352 -0.003111403073536833 -0.17966248545688665
-0.010600382203086886 0.011181675365098273 -0.17966248545688665
-0.010600382203086896 -0.017404481512171933 -0.17966248545688665
0.09965388175819848 -0.07078617866521907 0.24314324325752645
0.06639548419997568 -0.05158443388216354 0.24314324325752645
0.06639548419997567 -0.08998792344827458 0.24314324325752645
0.08371663706998443 -0.06789705994794114 0.21812190441432225
0.07186989683311094 -0.061057341283162654 0.21812190441432225
0.07186989683311093 -0.07473677861271961 0.21812190441432225
0.08604502564636311 0.06513178370738698 0.23588784717802494
0.07500299429536968 0.07150690348028334 0.23588784717802494
0.07500299429536966 0.05875666393449063 0.23588784717802494
0.07872560479474955 -0.06699414628246332 0.20990298006619718
0.07354548461475362 -0.06400340250210806 0.20990298006619718
0.07354548461475362 -0.06998489006281858 0.20990298006619718
0.036464191652012465 0.05840323343933012 -0.08192263316230265
0.019632335053405073 0.06812111037749728 -0.08192263316230265
0.019632335053405066 0.048685356501162964 -0.08192263316230265
0.09377100119508068 0.06809239907551017 0.23878606176751027
0.07753999136747643 0.07746337696869694 0.23878606176751027
0.07753999136747641 0.05872142118232339 0.23878606176751027
0.02199764108749388 0.02552533748316373 -0.2818227649037322
-0.005491169620522357 0.04139600974513957 -0.2818227649037322
-0.005491169620522369 0.009654665221187894 -0.2818227649037322
0.02871492760603804 0.02114812363037803 -0.2820733744510455
-0.0005469840181062703 0.03804249618358079 -0.2820733744510455
-0.0005469840181062825 0.004253751077175273 -0.2820733744510455
0.013011972940067548 -0.007735784292637739 -0.1781891100876318
-0.01751547305513994 0.009889244870367072 -0.1781891100876318
-0.017515473055139955 -0.025360813455642544 -0.1781891100876318
-0.013487134590859092 -0.022277880315096407 -0.08126145286590174
-0.039144154368603225 -0.0074647930398122776 -0.08126145286590174
-0.03914415436860323 -0.03709096759038053 -0.08126145286590174
0.007947260696589312 0.05438312962343644 0.14142111779160274
-0.1194068708490135 0.12791107175370126 0.14142111779160274
-0.11940687084901355 -0.019144812506828347 0.14142111779160274
-0.014558649896056507 0.027629969998539824 0.005746118950847669
-0.06148995234611868 0.05472577010150297 0.005746118950847669
-0.061489952346118704 0.0005341698955766867 0.005746118950847669
-0.014399895205426203 0.0094502338223 -0.03431662895521498
-0.04816813874104921 0.028946338317652788 -0.03431662895521498
-0.04816813874104923 -0.01004587067305278 -0.03431662895521498
-0.014016023757944219 -0.004425751776477035 -0.07566507977641332
-0.03434845294424411 0.007313181687512211 -0.07566507977641332
-0.034348452944244115 -0.016164685240466277 -0.07566507977641332
-0.007170501322750994 -0.011782703686389841 -0.07946000846759242
-0.024485067822253632 -0.0017861340570003124 -0.07946000846759242
-0.024485067822253643 -0.021779273315779363 -0.07946000846759242
-0.004298665962685307 0.017845201803427795 -0.034368348806667746
-0.038575243462123494 0.03763479304962751 -0.034368348806667746
-0.038575243462123515 -0.0019443894427719106 -0.034368348806667746
-0.007490042493967437 -0.0042771602104782645 -0.07917631400828606
-0.024226786044129145 0.005385803183565334 -0.07917631400828606
-0.024226786044129155 -0.013940123604521858 -0.07917631400828606
-0.005614461575749956 0.001376800209252609 -0.04861230268612675
-0.03406765817997856 0.017804260928009342 -0.04861230268612675
-0.034067658179978574 -0.01505066050950412 -0.04861230268612675
-0.003098155208627114 0.03758209840039569 0.02009450396613337
-0.0548028885410832 0.06743384010826703 0.02009450396613337
-0.054802888541083214 0.0077303566925243615 0.02009450396613337
0.0022531153680382067 -0.010622234713080155 -0.08945994596822503
-0.012528199395480867 -0.0020882386553858264 -0.08945994596822503
-0.012528199395480874 -0.019156230770774482 -0.08945994596822503
0.033167198911183575 -0.01143665855614272 -0.132837479102062
-0.017308923236631836 0.01770574415354695 -0.132837479102062
-0.017308923236631857 -0.04057906126583237 -0.132837479102062
0.011684963781489914 0.04423396967013681 0.0017152943226242817
-0.03827287851796226 0.0730771433698584 0.0017152943226242817
-0.03827287851796228 0.015390795970415233 0.0017152943226242817
0.009145063495213039 -0.0065840886183649834 -0.05318569478834943
-0.024709219589787543 0.012961690833981902 -0.05318569478834943
-0.024709219589787557 -0.02612986807071186 -0.05318569478834943
0.03018856698866644 -0.0043396266623532045 0.3625857864634249
-0.1359422453662719 0.09157604257146167 0.3625857864634249
-0.13594224536627197 -0.10025529589616804 0.3625857864634249
0.0067131068902138834 -0.010119810001539142 -0.09470170754050178
-0.0001086051951704279 -0.006181292692708386 -0.09470170754050178
-0.00010860519517043093 -0.014058327310369897 -0.09470170754050178
0.059139190780866074 -0.00021403038554885853 -0.1290753076881709
0.026416582856503466 0.018678376108168478 -0.1290753076881709
0.026416582856503452 -0.019106436879266185 -0.1290753076881709
0.0653916426835924 -0.0010543556693407034 -0.17530052793622447
0.02324900153082155 0.02327670954457335 -0.17530052793622447
0.023249001530821534 -0.02538542088325475 -0.17530052793622447
0.07351118400967777 -0.00035809320328495314 -0.22621119488123187
0.03280150501840083 0.02314565092095204 -0.22621119488123187
0.03280150501840081 -0.023861837327521934 -0.22621119488123187
-0.01243033340757646 0.05943575343878304 -0.07190815350908684
-0.06944190717691354 0.09235140090143401 -0.07190815350908684
-0.06944190717691356 0.02652010597613208 -0.07190815350908684
-0.02433752677603459 -0.0196804514910207 -0.09881430972215378
-0.02733752677603459 -0.017948400683451823 -0.09881430972215378
-0.02733752677603459 -0.02141250229858958 -0.09881430972215378
-0.012928950219480321 0.03259602551844258 -0.09594185124621077
-0.01592895021948032 0.03432807632601146 -0.09594185124621077
-0.015928950219480324 0.030863974710873703 -0.09594185124621077
0.016543383156963187 -0.010167748540010827 -0.08221245619355674
-0.001862111053128136 0.00045866849675350006 -0.08221245619355674
-0.0018621110531281439 -0.020794165576775152 -0.08221245619355674
0.013601287569711212 -0.016049265349195787 -0.10080068673033901
0.010410144870579527 -0.014206858252829599 -0.10080068673033901
0.010410144870579525 -0.017891672445561974 -0.10080068673033901
0.03512900054381386 0.057638876646258136 -0.09070102627520316
0.020341922277544576 0.06617620026381678 -0.09070102627520316
0.02034192227754457 0.0491015530286995 -0.09070102627520316
3 0 1 2 110 121 138 127
3 3 4 5 106 121 137 127
3 6 7 8 61 80 101 127
3 9 10 11 111 121 134 127
3 12 13 14 108 123 138 127
3 15 16 17 107 121 138 127
3 18 19 20 111 121 131 127
3 21 22 23 182 170 158 127
3 24 25 26 107 120 138 127
3 27 28 29 105 121 137 127
3 30 31 32 103 120 138 127
3 33 34 35 104 120 138 127
3 36 37 38 56 79 97 127
3 39 40 41 56 79 97 127
3 42 43 44 61 80 101 127
3 45 46 47 103 120 139 127
3 48 49 50 181 170 160 127
3 51 52 53 181 169 159 127
3 54 55 56 179 170 160 127
3 57 58 59 169 154 136 127
3 60 61 62 180 169 161 127
3 63 64 65 180 170 160 127
3 66 67 68 180 170 160 127
3 69 70 71 110 121 138 127
3 72 73 74 61 80 101 127
3 75 76 77 61 81 99 127
3 78 79 80 61 81 99 127
3 81 82 83 111 121 134 127
3 84 85 86 182 170 160 127
3 87 88 89 61 80 101 127
3 90 91 92 109 121 134 127
3 93 94 95 106 122 139 127
3 96 97 98 104 120 137 127
3 99 100 101 180 169 160 127
3 102 103 104 104 119 134 127
3 105 106 107 108 122 134 127
3 108 109 110 59 81 99 127
3 111 112 113 57 80 98 127
3 114 115 116 107 122 137 127
3 117 118 119 105 120 138 127
3 120 121 122 183 169 160 127
3 123 124 125 40 73 35 127
3 126 127 128 110 123 134 127
3 129 130 131 107 122 140 127
3 132 133 134 61 80 101 127
3 135 136 137 61 80 101 127
3 138 139 140 108 121 135 127
3 141 142 143 108 120 136 127
3 144 145 146 170 155 136 127
3 147 148 149 181 170 159 127
3 150 151 152 180 170 161 127
3 153 154 155 31 105 28 127
3 156 157 158 106 122 139 127
3 159 160 161 104 120 137 127
3 162 163 164 40 73 36 127
3 165 166 167 120 126 124 127
3 168 169 170 24 111 24 127
3 171 172 173 181 170 160 127
3 174 175 176 181 169 159 127
3 177 178 179 180 170 160 127
3 180 181 182 180 170 160 127
3 183 184 185 180 169 161 127
3 186 187 188 180 170 160 127
3 189 190 191 180 170 160 127
3 192 193 194 180 170 160 127
3 195 196 197 61 80 101 127
3 198 199 200 61 80 101 127
3 201 202 203 61 80 101 127
3 204 205 206 61 81 99 127
3 207 208 209 181 170 160 127
3 210 211 212 181 170 160 127
3 213 214 215 180 170 159 127
3 216 217 218 61 80 101 127
3 219 220 221 109 121 134 127
3 222 223 224 180 171 158 127
3 225 226 227 108 121 136 127
3 228 229 230 104 119 134 127
3 231 232 233 61 80 101 127
3 234 235 236 61 80 101 127
3 237 238 239 57 80 98 127
3 240 241 242 107 122 137 127
3 243 244 245 182 170 160 127
3 246 247 248 179 170 160 127
3 249 250 251 183 169 160 127
3 252 253 254 110 121 136 127
3 255 256 257 110 123 134 127
3 258 259 260 107 122 140 127
3 261 262 263 61 80 101 127
3 264 265 266 61 80 101 127
3 267 268 269 60 79 102 127
3 270 271 272 183 169 160 127
3 273 274 275 181 169 161 127
3 276 277 278 61 80 101 127
3 279 280 281 61 81 99 127
3 282 283 284 61 80 101 127
3 285 286 287 61 81 99 127
3 288 289 290 61 80 101 127
3 291 292 293 108 121 135 127
3 294 295 296 108 120 136 127
3 297 298 299 105 121 136 127
3 300 301 302 180 169 161 127
3 303 304 305 181 170 159 127
3 306 307 308 180 170 161 127
3 309 310 311 24 112 25 127
3 312 313 314 111 122 119 127
3 315 316 317 113 121 119 127
3 318 319 320 113 120 122 127
3 321 322 323 112 120 122 127
3 324 325 326 28 102 28 127
3 327 328 329 178 171 160 127
3 330 331 332 180 170 160 127
3 333 334 335 180 170 160 127
3 336 337 338 180 170 160 127
3 339 340 341 180 171 158 127
3 342 343 344 180 170 160 127
3 345 346 347 185 170 158 127
3 348 349 350 180 169 161 127
3 351 352 353 61 80 101 127
3 354 355 356 61 80 101 127
3 357 358 359 61 80 101 127
3 360 361 362 181 170 160 127
3 363 364 365 180 170 160 127
3 366 367 368 180 170 160 127
3 369 370 371 180 170 160 127
3 372 373 374 180 170 160 127
3 375 376 377 180 170 160 127
3 378 379 380 180 171 158 127
3 381 382 383 120 80 61 127
3 384 385 386 57 85 51 127
3 387 388 389 61 80 101 127
3 390 391 392 61 80 101 127
3 393 394 395 111 121 134 127
3 396 397 398 182 170 160 127
3 399 400 401 180 169 161 127
3 402 403 404 61 81 99 127
3 405 406 407 183 169 160 127
3 408 409 410 182 170 160 127
3 411 412 413 61 81 99 127
3 414 415 416 61 80 101 127
3 417 418 419 44 57 34 127
3 420 421 422 109 121 134 127
3 423 424 425 180 170 160 127
3 426 427 428 182 170 160 127
3 429 430 431 179 170 160 127
3 432 433 434 183 171 159 127
3 435 436 437 180 169 159 127
3 438 439 440 186 169 157 127
3 441 442 443 115 123 122 127
3 444 445 446 113 120 122 127
3 447 448 449 23 95 22 127
3 450 451 452 62 80 51 127
3 453 454 455 181 170 160 127
3 456 457 458 181 169 159 127
3 459 460 461 179 170 160 127
3 462 463 464 183 169 160 127
3 465 466 467 180 171 157 127
3 468 469 470 120 80 61 127
3 471 472 473 109 121 134 127
3 474 475 476 170 155 136 127
3 477 478 479 182 170 160 127
3 480 481 482 182 170 160 127
3 483 484 485 61 80 101 127
3 486 487 488 104 120 137 127
3 489 490 491 181 170 159 127
3 492 493 494 181 170 159 127
3 495 496 497 114 122 121 127
3 498 499 500 40 73 36 127
3 501 502 503 181 170 160 127
3 504 505 506 180 170 160 127
3 507 508 509 180 170 160 127
3 510 511 512 61 81 99 127
3 513 514 515 180 170 160 127
3 516 517 518 181 170 160 127
3 519 520 521 182 170 158 127
3 522 523 524 179 171 158 127
3 525 526 527 181 170 160 127
3 528 529 530 180 170 159 127
3 531 532 533 183 169 160 127
3 534 535 536 61 80 101 127
3 537 538 539 184 169 159 127
3 540 541 542 64 79 52 127
3 543 544 545 109 121 134 127
3 546 547 548 181 170 160 127
3 549 550 551 180 171 158 127
3 552 553 554 180 170 159 127
3 555 556 557 180 169 160 127
3 558 559 560 44 69 39 127
3 561 562 563 61 80 101 127
3 564 565 566 61 80 101 127
3 567 568 569 59 81 99 127
3 570 571 572 40 62 37 127
3 573 574 575 40 73 35 127
3 576 577 578 61 80 101 127
3 579 580 581 183 169 160 127
3 582 583 584 61 80 101 127
3 585 586 587 61 81 99 127
3 588 589 590 180 169 161 127
3 591 592 593 181 170 159 127
3 594 595 596 180 170 161 127
3 597 598 599 109 122 119 127
3 600 601 602 24 112 25 127
3 603 604 605 178 171 160 127
3 606 607 608 180 170 160 127
3 609 610 611 180 171 158 127
3 612 613 614 180 170 160 127
3 615 616 617 61 80 101 127
3 618 619 620 61 80 101 127
3 621 622 623 180 170 160 127
3 624 625 626 180 170 160 127
3 627 628 629 180 170 160 127
3 630 631 632 180 170 160 127
3 633 634 635 180 170 160 127
3 636 637 638 180 170 160 127
3 639 640 641 59 79 104 127
3 642 643 644 61 80 101 127
3 645 646 647 61 80 101 127
3 648 649 650 61 81 99 127
3 651 652 653 185 170 159 127
3 654 655 656 182 171 157 127
3 657 658 659 182 167 144 127
3 660 661 662 179 170 160 127
3 663 664 665 180 171 158 127
3 666 667 668 181 170 160 127
3 669 670 671 61 80 101 127
3 672 673 674 61 80 101 127
3 675 676 677 182 170 160 127
3 678 679 680 183 169 160 127
3 681 682 683 61 80 101 127
3 684 685 686 109 121 134 127
3 687 688 689 179 170 160 127
3 690 691 692 183 171 159 127
3 693 694 695 180 169 159 127
3 696 697 698 186 169 157 127
3 699 700 701 40 73 36 127
3 702 703 704 40 55 37 127
3 705 706 707 115 123 122 127
3 708 709 710 31 114 34 127
3 711 712 713 183 171 156 127
3 714 715 716 181 171 159 127
3 717 718 719 182 170 160 127
3 720 721 722 184 169 160 127
3 723 724 725 179 170 160 127
3 726 727 728 182 169 161 127
3 729 730 731 61 80 101 127
3 732 733 734 61 80 101 127
3 735 736 737 183 169 160 127
3 738 739 740 61 81 99 127
3 741 742 743 61 81 99 127
3 744 745 746 179 170 160 127
3 747 748 749 183 169 160 127
3 750 751 752 180 169 161 127
3 753 754 755 182 170 160 127
3 756 757 758 181 170 160 127
3 759 760 761 61 80 101 127
3 762 763 764 183 169 160 127
3 765 766 767 61 80 101 127
3 768 769 770 181 170 160 127
3 771 772 773 40 71 36 127
3 774 775 776 181 170 160 127
3 777 778 779 61 81 99 127
3 780 781 782 56 79 97 127
3 783 784 785 180 169 160 127
3 786 787 788 40 70 35 127
